SplineFontDB: 3.0
FontName: LinLibertineMO
FullName: Linux Libertine Mono O
FamilyName: Linux Libertine Mono O
Weight: Book
Copyright: Linux Libertine by Philipp H. Poll,\nOpen Font under Terms of following Free Software Licenses:\nGPL (General Public License) with font-exception and OFL (Open Font License).\nCreated with FontForge (http://fontforge.sf.net)\nSept 2003, 2004, 2005, 2006, 2007, 2008, 2009, 2010, 2011,2012
UComments: "2003-08-29: Created.+AAoA-2004-07-25: v(1.0) release candidate+AAoA-2005-12-28: v(1.1.0)stable+AAoA-2006-05-01: v(2.0.0)stable+AAoA-2007-01-10: v(2.3.0)stable" 
Version: 5.1.7
ItalicAngle: 0
UnderlinePosition: -98
UnderlineWidth: 40
Ascent: 754
Descent: 246
LayerCount: 2
Layer: 0 0 "Back"  1
Layer: 1 0 "Fore"  0
XUID: [1021 975 16237491 13016554]
FSType: 0
OS2Version: 3
OS2_WeightWidthSlopeOnly: 0
OS2_UseTypoMetrics: 0
CreationTime: 1155510122
ModificationTime: 1341180392
PfmFamily: 49
TTFWeight: 400
TTFWidth: 5
LineGap: 0
VLineGap: 0
OS2TypoAscent: 894
OS2TypoAOffset: 0
OS2TypoDescent: -246
OS2TypoDOffset: 0
OS2TypoLinegap: 0
OS2WinAscent: 894
OS2WinAOffset: 0
OS2WinDescent: 246
OS2WinDOffset: 0
HheadAscent: 894
HheadAOffset: 0
HheadDescent: -246
HheadDOffset: 0
OS2FamilyClass: 261
OS2Vendor: 'PfEd'
Lookup: 1 0 0 "Substitution f short"  {"Substitution f short 1"  } []
Lookup: 1 0 0 "Substitution dotless forms"  {"Substitution dotless forms 1"  } []
Lookup: 3 0 0 "'aalt' Alle Alternativen zeigen"  {"LinLibertine-'aalt' Alle Alternativen zeigen 1"  } ['aalt' ('DFLT' <'dflt' > 'cyrl' <'dflt' > 'grek' <'dflt' > 'latn' <'AZE ' 'CRT ' 'DEU ' 'MOL ' 'ROM ' 'TRK ' 'dflt' > ) ]
Lookup: 1 0 0 "'locl' Localized Forms Romaenisch"  {"LinLibertine-'locl' Localized Forms Romaenisch 1"  } ['locl' ('latn' <'MOL ' 'ROM ' > ) ]
Lookup: 1 0 0 "'locl' Localized Forms Cyrillic"  {"'locl' Localized Forms Cyrillic-1"  } ['locl' ('cyrl' <'SRB ' > ) ]

StartChar: exclam
Encoding: 33 33 0
Width: 640
VWidth: 999
Flags: HW
HStem: -10 120<261.107 352.893> 638 20G<295 319>
VStem: 246 122<5.01419 94.9858> 254 106<411.697 645.75>
LayerCount: 2
Fore
SplineSet
307 658 m 0
 331 658 360 639 360 585 c 0
 360 520 346 478 336 392 c 0
 323 284 323 224 321 210 c 0
 320 199 317 190 307 190 c 0
 297 190 294 197 293 203 c 0
 291 224 285 314 277 392 c 0
 268 480 254 515 254 585 c 0
 254 639 283 658 307 658 c 0
246 50 m 0
 246 82 274 110 307 110 c 0
 340 110 368 82 368 50 c 0
 368 18 340 -10 307 -10 c 0
 274 -10 246 18 246 50 c 0
EndSplineSet
EndChar

StartChar: quotedbl
Encoding: 34 34 1
Width: 640
VWidth: 999
Flags: HW
HStem: 393 284<189.946 234.483> 394 284<395.946 440.483>
VStem: 157 120<517.941 656.548> 363 120<518.941 657.548>
LayerCount: 2
Fore
SplineSet
198 363 m 1
 198 363 157 600 157 612 c 0
 157 641 176 667 218 667 c 0
 260.5 667 277 639.5 277 613 c 0
 277 592 236 363 236 363 c 1
 198 363 l 1
404 364 m 1
 404 364 363 601 363 613 c 0
 363 642 382 668 424 668 c 0
 466.5 668 483 640.5 483 614 c 0
 483 593 442 364 442 364 c 1
 404 364 l 1
EndSplineSet
EndChar

StartChar: numbersign
Encoding: 35 35 2
Width: 640
VWidth: 487
Flags: HW
HStem: 153.6 63<72 157 213 377 434 522> 394.6 64<104 189 246 410 467 553>
DStem2: 131 -34 178 -34 0.135623 0.990761<6.37427 189.393 259.405 432.506 503.645 700.336> 352 -34 400 -34 0.132819 0.99114<6.37529 189.258 259.271 432.506 503.509 700.204>
LayerCount: 2
Fore
SplineSet
387 216.6 m 1
 410 394.6 l 1
 237 394.6 l 1
 213 216.6 l 1
 387 216.6 l 1
458 394.6 m 1
 434 216.6 l 1
 529 216.6 l 1
 522 153.6 l 1
 427 153.6 l 1
 400 -34 l 1
 352 -34 l 1
 377 153.6 l 1
 205 153.6 l 1
 178 -34 l 1
 131 -34 l 1
 157 153.6 l 1
 64 153.6 l 1
 72 216.6 l 1
 166 216.6 l 1
 189 394.6 l 1
 96 394.6 l 1
 104 458.6 l 1
 199 458.6 l 1
 225 660 l 1
 273 660 l 1
 246 458.6 l 1
 420 458.6 l 1
 445 660 l 1
 493 660 l 1
 467 458.6 l 1
 561 458.6 l 1
 553 394.6 l 1
 458 394.6 l 1
EndSplineSet
EndChar

StartChar: dollar
Encoding: 36 36 3
Width: 640
VWidth: 999
Flags: HMW
HStem: -7 37<250.564 306 347 421.679> 619 34<289.277 340>
VStem: 138 32<121.326 167.819> 161 72<449.286 565.024> 468 83<99.6727 225.968> 487 34<494.281 536.613>
DStem2: 300 -103 340 -97 0.0548623 0.998494<3.52044 96.8531 133.381 392.759 496.789 721.253>
LayerCount: 2
Fore
SplineSet
306 393 m 1
 320 619 l 1
 256 618 202 565 202 510 c 0
 202 453 253 417 306 393 c 1
343 287 m 1
 327 28 l 1
 413 29 460 71 460 150 c 0
 460 234 402 265 343 287 c 1
498 626 m 1
 510 574 516 546 519 498 c 1
 509 491 494 492 481 492 c 1
 462 548 436 601 362 615 c 1
 348 376 l 1
 370 368 389 362 402 357 c 0
 480 326 552 279 552 184 c 0
 552 121 513 59 450 24 c 0
 415 4 371 -6 325 -7 c 1
 320 -97 l 1
 311 -102 288 -103 276 -103 c 1
 282 -7 l 1
 210 -3 179 15 119 15 c 1
 106 64 101 88 97 165 c 1
 108 170 120 172 133 168 c 1
 154 83 205 40 284 30 c 1
 301 302 l 1
 294 304 288 307 281 309 c 0
 196 342 123 390 123 483 c 0
 123 586 215 650 322 653 c 1
 326 737 l 1
 337 741 355 743 370 743 c 1
 365 652 l 1
 438 648 442 633 498 626 c 1
EndSplineSet
EndChar

StartChar: percent
Encoding: 37 37 4
Width: 640
VWidth: 999
Flags: HW
HStem: -12 39<446.742 517.671> 217 39<484.29 551.922> 303 39<124.613 196.024> 484 37<279.857 459.046> 532 39<161 231.401>
VStem: 57 59<348.032 481.208> 239 38<396.359 504.413> 378 60<32.9175 165.304> 560 38<79.594 210.171>
DStem2: 102 3 146 -12 0.584454 0.811427<13.5446 615.532 644.549 704.931>
LayerCount: 2
Fore
SplineSet
438 86 m 0
 438 38 462 27 479 27 c 0
 530 27 560 109 560 161 c 0
 560 209 534 217 521 217 c 0
 476 217 438 139 438 86 c 0
378 98 m 0
 378 180 438 256 512 256 c 0
 552 256 598 238 598 165 c 0
 598 98 554 -12 471 -12 c 0
 410 -12 378 45 378 98 c 0
364 521 m 0
 406 521 483 533 514 575 c 1
 556 559 l 1
 146 -12 l 1
 102 3 l 1
 461 503 l 1
 423 488 384 484 354 484 c 0
 331 484 293 494 274 505 c 1
 276 498 277 489 277 480 c 0
 277 416 233 303 149 303 c 0
 87 303 57 361 57 412 c 0
 57 500 118 571 190 571 c 0
 218 571 247 558 257 546 c 1
 311 521 346 521 364 521 c 0
116 401 m 0
 116 353 140 342 157 342 c 0
 208 342 239 423 239 476 c 0
 239 522 216 532 199 532 c 0
 154 532 116 454 116 401 c 0
EndSplineSet
EndChar

StartChar: parenleft
Encoding: 40 40 5
Width: 640
VWidth: 999
Flags: HW
VStem: 197 97<122.88 386.301>
LayerCount: 2
Fore
SplineSet
197 252 m 0
 197 438 317 605 484 707 c 1
 500 706 509 699 514 689 c 1
 469 653 294 510.9 294 252 c 0
 294 0 468 -149 514 -187 c 1
 510 -195 498 -202 484 -204 c 1
 208 -37.1 197 207 197 252 c 0
EndSplineSet
Substitution2: "'case' Versalformen 1" parenleft.sc
Substitution2: "'c2sc' Versale nach Kapitaelchen 1" parenleft.sc
Substitution2: "'sinf' Wissenschaftliche Indices 1" parenleft.inferior
Substitution2: "'sups' Hochgestellte 1" parenleft.superior
AlternateSubs2: "LinLibertine-'aalt' Alle Alternativen zeigen 1" parenleft.sc
EndChar

StartChar: parenright
Encoding: 41 41 6
Width: 640
VWidth: 999
Flags: HW
VStem: 346 97<117.699 381.12>
LayerCount: 2
Fore
SplineSet
443 252 m 0
 443 66 323 -101 156 -203 c 1
 140 -202 131 -195 126 -185 c 1
 171 -149 346 -6.89999 346 252 c 0
 346 504 172 653 126 691 c 1
 130 699 142 706 156 708 c 1
 432 541.1 443 297 443 252 c 0
EndSplineSet
Substitution2: "'case' Versalformen 1" parenright.sc
Substitution2: "'c2sc' Versale nach Kapitaelchen 1" parenright.sc
Substitution2: "'sinf' Wissenschaftliche Indices 1" parenright.inferior
Substitution2: "'sups' Hochgestellte 1" parenright.superior
AlternateSubs2: "LinLibertine-'aalt' Alle Alternativen zeigen 1" parenright.sc
EndChar

StartChar: asterisk
Encoding: 42 42 7
Width: 640
VWidth: 999
Flags: HMW
LayerCount: 2
Fore
SplineSet
277 546 m 1
 264 548 251 553 236 551 c 0
 191 543 155 543 155 588 c 0
 155 602 164 620 188 620 c 0
 222 620 239 587 283 568 c 1
 279 608 253 633 253 659 c 0
 253 680 273 698 291 698 c 0
 309 698 331 687 331 663 c 0
 331 636 308 598 306 568 c 1
 351 587 362 622 395 622 c 0
 426 622 434 598 434 588 c 0
 434 558 400 548 365 548 c 0
 346 548 329 548 311 545 c 1
 345 509 396 511 396 460 c 0
 396 442 378 431 364 431 c 0
 315 431 318 493 293 532 c 1
 268 487 282 431 223 431 c 0
 206 431 194 444 194 459 c 0
 194 513 244 508 277 546 c 1
EndSplineSet
EndChar

StartChar: plus
Encoding: 43 43 8
Width: 640
VWidth: 999
Flags: HW
HStem: -1 21G<303 318> 221 60<55.5 288 352 583.092>
VStem: 288 64<4.80078 221 281 497.151>
LayerCount: 2
Fore
SplineSet
288 472 m 2
 288 488 317 504 330 504 c 0
 340 504 352 499 352 487 c 2
 352 281 l 1
 571 281 l 2
 584 281 590 270 590 260 c 0
 590 248 571 221 554 221 c 2
 352 221 l 1
 352 29 l 2
 352 15 328 -1 308 -1 c 0
 298 -1 288 6 288 17 c 2
 288 221 l 1
 70 221 l 2
 58 221 50 230 50 240 c 0
 50 258 67 281 83 281 c 2
 288 281 l 1
 288 472 l 2
EndSplineSet
Substitution2: "'sinf' Wissenschaftliche Indices 1" plus.inferior
Substitution2: "'sups' Hochgestellte 1" plus.superior
AlternateSubs2: "LinLibertine-'aalt' Alle Alternativen zeigen 1" plus.superior plus.inferior uni2098
EndChar

StartChar: slash
Encoding: 47 47 9
Width: 640
VWidth: 999
Flags: HW
DStem2: 82 -97 144 -97 0.44373 0.896161<27.5113 919.478>
LayerCount: 2
Fore
SplineSet
490 727 m 1
 552 727 l 1
 144 -97 l 1
 82 -97 l 1
 490 727 l 1
EndSplineSet
Ligature2: "'frac' Brueche 1" uni2215
AlternateSubs2: "LinLibertine-'aalt' Alle Alternativen zeigen 1" uni2215
EndChar

StartChar: one
Encoding: 49 49 10
Width: 640
VWidth: 999
Flags: HW
HStem: -2 37<169.77 277.565 402.303 505.23> 637 20G<354.5 384>
VStem: 300 85<54.0206 541.982>
LayerCount: 2
Fore
SplineSet
385 134 m 2
 385 86 390 63 405 51 c 0
 418 40 469.5 36 502 35 c 1
 508 29 508 4 502 -2 c 1
 452 -1 401.3 0 350 0 c 0
 281 0 222 -1 173 -2 c 1
 167 4 167 29 173 35 c 1
 208 36 260 40 276 52 c 0
 293 65 300 88 300 134 c 2
 300 470 l 2
 300 507 296 532 280 532 c 0
 261 532 199 506 153 485 c 1
 144 492 135 511 133 523 c 1
 221 567 323 621.5 382 657 c 1
 386 657 388 656 388 651 c 0
 386 637 385 572 385 507 c 2
 385 134 l 2
EndSplineSet
Substitution2: "LinLibertine-'onum' Minuskelziffern 1" one.taboldstyle
Substitution2: "LinLibertine-'pnum' Proportionalziffern 1" one.fitted
Substitution2: "'sinf' Wissenschaftliche Indices 1" one.inferior
Substitution2: "'sups' Hochgestellte 1" one.superior
AlternateSubs2: "LinLibertine-'aalt' Alle Alternativen zeigen 1" one.oldstyle one.superior one.fitted
EndChar

StartChar: two
Encoding: 50 50 11
Width: 640
VWidth: 487
Flags: HW
HStem: 0 70<202 460.184> 619 38<231.655 376.824>
VStem: 123 81<468.607 569.994> 426 99<416.589 570.555> 494 33<123.252 171.505>
DStem2: 236 221 288 201 0.741384 0.671081<-102.253 245.415>
LayerCount: 2
Fore
SplineSet
123 505 m 0
 123 570 194 657 322 657 c 0
 431 657 525 612 525 495 c 0
 525 417 470 365 404 306 c 2
 288 201 l 2
 233 151 202 109 202 70 c 1
 413 70 l 2
 454 70 474 97 494 174 c 1
 506 176 520 173 527 168 c 1
 526 136 514 55 499 -2 c 1
 499 -2 447 0 410 0 c 2
 208 0 l 2
 171 0 105 -2 105 -2 c 1
 105 62 123 113 236 221 c 1
 321 300 l 1
 389 365 426 421 426 490 c 0
 426 594 356 619 315 619 c 0
 231 619 199 582 199 555 c 0
 199 546 198 537 200 529 c 0
 202 521 204 516 204 507 c 0
 204 483 184 463 164 463 c 0
 140 463 123 482 123 505 c 0
EndSplineSet
Substitution2: "LinLibertine-'onum' Minuskelziffern 1" two.taboldstyle
Substitution2: "LinLibertine-'pnum' Proportionalziffern 1" two.fitted
Substitution2: "'sinf' Wissenschaftliche Indices 1" two.inferior
Substitution2: "'sups' Hochgestellte 1" two.superior
AlternateSubs2: "LinLibertine-'aalt' Alle Alternativen zeigen 1" two.oldstyle two.superior two.fitted
EndChar

StartChar: three
Encoding: 51 51 12
Width: 640
VWidth: 487
Flags: HW
HStem: -10 38<216.059 350.714> 338 35<229.8 276.163> 484 21G<128.5 164> 620 38<223.191 367.843>
VStem: 102 88<489.829 573.005> 403 94<462.236 589.448> 440 101<123.873 285.61>
LayerCount: 2
Fore
SplineSet
296 620 m 0
 260 620 190 609 190 540 c 0
 190 519 185 484 143 484 c 0
 114 484 102 505 102 520 c 0
 102 556 153 658 329 658 c 0
 392 658 434 642 460 618 c 0
 489 591 497 564 497 532 c 0
 497 475 470 431 371 389 c 1
 372 387 l 1
 443 376 541 334 541 216 c 0
 541 73 414 -10 271 -10 c 0
 199 -10 99 20 99 63 c 0
 99 80 124 100 149 100 c 0
 173 100 189 87 201 72 c 0
 215 53 206 28 276 28 c 0
 324 28 440 57 440 201 c 0
 440 323 355 340 277 340 c 0
 259 340 251 340 231 338 c 1
 225 373 l 1
 344 388 403 471 403 525 c 0
 403 594 356 620 296 620 c 0
EndSplineSet
Substitution2: "LinLibertine-'onum' Minuskelziffern 1" three.taboldstyle
Substitution2: "LinLibertine-'pnum' Proportionalziffern 1" three.fitted
Substitution2: "'sinf' Wissenschaftliche Indices 1" three.inferior
Substitution2: "'sups' Hochgestellte 1" three.superior
AlternateSubs2: "LinLibertine-'aalt' Alle Alternativen zeigen 1" three.oldstyle three.superior three.fitted
EndChar

StartChar: four
Encoding: 52 52 13
Width: 640
VWidth: 487
Flags: HW
HStem: -2 37<240.77 333.868 453.849 541.23> 186 51<124 354 438 563.299> 637 20G<394.5 440>
VStem: 354 84<51.5137 186 237 548>
LayerCount: 2
Fore
SplineSet
354 548 m 1
 272 449 175 326 124 237 c 1
 354 237 l 1
 354 548 l 1
552 237 m 2
 563 237 566 230 566 219 c 0
 566 206 552 186 538 186 c 2
 438 186 l 1
 438 88 l 2
 438 41.3 488.7 38 538 35 c 1
 544 29 544 4 538 -2 c 1
 506 -1 431 0 392 0 c 0
 346 0 276 -1 244 -2 c 1
 238 4 238 29 244 35 c 1
 286.7 36.7 354 39.7 354 88 c 2
 354 186 l 1
 110 186 l 2
 80 186 73.3 214.7 72 231 c 1
 164 385 308 566 380 645 c 0
 384 649 393 658 399 658 c 2
 438 658 l 1
 440 654 l 1
 438 646 438 606 438 552 c 2
 438 237 l 1
 552 237 l 2
EndSplineSet
Substitution2: "LinLibertine-'onum' Minuskelziffern 1" four.taboldstyle
Substitution2: "LinLibertine-'pnum' Proportionalziffern 1" four.fitted
Substitution2: "'sinf' Wissenschaftliche Indices 1" four.inferior
Substitution2: "'sups' Hochgestellte 1" four.superior
AlternateSubs2: "LinLibertine-'aalt' Alle Alternativen zeigen 1" four.oldstyle four.superior four.fitted
EndChar

StartChar: five
Encoding: 53 53 14
Width: 640
VWidth: 487
Flags: HW
HStem: -12 37<236.308 350.456> 368 54<194.593 365.922> 576 72<217.365 489.583>
VStem: 436 96<124.518 298.527>
DStem2: 134 342 194 405 0.130702 0.991422<70.3017 252.688>
LayerCount: 2
Fore
SplineSet
436 204 m 0
 436 322 366 368 276 368 c 0
 227 368 198 364 134 342 c 1
 175 653 l 1
 217 650 260 648 304 648 c 0
 368 648 435 653.8 501 660 c 1
 510 656 l 1
 490 582 l 1
 441 578 400 576 364 576 c 0
 306 576 260 578.8 218 585 c 1
 194 405 l 1
 216 413 266 422 318 422 c 0
 452 422 532 329 532 224 c 0
 532 88 427 -12 278 -12 c 0
 210 -12 108 25 108 69 c 0
 108 91 130 109 153 109 c 0
 178 109 198 93 214 75 c 0
 232 53 232 25 285 25 c 0
 368 25 436 101 436 204 c 0
EndSplineSet
Substitution2: "LinLibertine-'onum' Minuskelziffern 1" five.taboldstyle
Substitution2: "LinLibertine-'pnum' Proportionalziffern 1" five.fitted
Substitution2: "'sinf' Wissenschaftliche Indices 1" five.inferior
Substitution2: "'sups' Hochgestellte 1" five.superior
AlternateSubs2: "LinLibertine-'aalt' Alle Alternativen zeigen 1" five.oldstyle five.superior five.fitted
EndChar

StartChar: six
Encoding: 54 54 15
Width: 640
VWidth: 487
Flags: HW
HStem: -12 38<260.985 385.472> 356 38<207.637 385.022> 630 30<433.879 475.472>
VStem: 86 88<130.016 331.898> 456 96<124.672 288.536>
LayerCount: 2
Fore
SplineSet
180 332 m 1
 174 306.8 174 272 174 247 c 0
 174 62 273 26 327 26 c 0
 386 26 456 80 456 199 c 0
 456 253 436 356 300 356 c 0
 276 356 225 356 180 332 c 1
191 370 m 1
 232 385 297 394 328 394 c 0
 491 394 552 311 552 218 c 0
 552 125 481 -12 324 -12 c 0
 239 -12 86 32 86 251 c 0
 86 448.2 220 631.8 468 660 c 1
 478 655 480 643 480 630 c 1
 267 582.8 219 463.8 191 370 c 1
EndSplineSet
Substitution2: "LinLibertine-'onum' Minuskelziffern 1" six.taboldstyle
Substitution2: "LinLibertine-'pnum' Proportionalziffern 1" six.fitted
Substitution2: "'sinf' Wissenschaftliche Indices 1" six.inferior
Substitution2: "'sups' Hochgestellte 1" six.superior
AlternateSubs2: "LinLibertine-'aalt' Alle Alternativen zeigen 1" six.oldstyle six.superior six.fitted
EndChar

StartChar: seven
Encoding: 55 55 16
Width: 640
VWidth: 487
Flags: HW
HStem: 572 76<168.432 451.142>
VStem: 104 32<479.419 522.409> 196 84<-11 40.7896>
LayerCount: 2
Fore
SplineSet
222 572 m 2
 190 572 158 564 136 478 c 1
 125 477 115 478 104 481 c 1
 110.5 536.5 118.5 607.5 124 660 c 0
 124 663 125 663 128 663 c 0
 146 659 144 648 178 648 c 2
 434 648 l 2
 472 648 501 655 518 660 c 1
 534 647 l 1
 410 355 337 173 280 -11 c 1
 204 -14 l 1
 196 -6 l 1
 264 158 352 361 452 572 c 1
 222 572 l 2
EndSplineSet
Substitution2: "LinLibertine-'onum' Minuskelziffern 1" seven.taboldstyle
Substitution2: "LinLibertine-'pnum' Proportionalziffern 1" seven.fitted
Substitution2: "'sinf' Wissenschaftliche Indices 1" seven.inferior
Substitution2: "'sups' Hochgestellte 1" seven.superior
AlternateSubs2: "LinLibertine-'aalt' Alle Alternativen zeigen 1" seven.oldstyle seven.superior seven.fitted
EndChar

StartChar: nine
Encoding: 57 57 17
Width: 640
VWidth: 487
Flags: HW
HStem: -14 30<164.528 206.121> 252 38<254.978 432.363> 620 38<254.528 379.015>
VStem: 88 96<357.464 521.328> 466 88<314.102 515.984>
LayerCount: 2
Fore
SplineSet
460 314 m 1
 466 339.2 466 374 466 399 c 0
 466 584 367 620 313 620 c 0
 254 620 184 566 184 447 c 0
 184 393 204 290 340 290 c 0
 364 290 415 290 460 314 c 1
449 276 m 1
 408 261 343 252 312 252 c 0
 149 252 88 335 88 428 c 0
 88 521 159 658 316 658 c 0
 401 658 554 614 554 395 c 0
 554 197.8 420 14.2 172 -14 c 1
 162 -9 160 3 160 16 c 1
 373 63.2 421 182.2 449 276 c 1
EndSplineSet
Substitution2: "LinLibertine-'onum' Minuskelziffern 1" nine.taboldstyle
Substitution2: "LinLibertine-'pnum' Proportionalziffern 1" nine.fitted
Substitution2: "'sinf' Wissenschaftliche Indices 1" nine.inferior
Substitution2: "'sups' Hochgestellte 1" nine.superior
AlternateSubs2: "LinLibertine-'aalt' Alle Alternativen zeigen 1" nine.oldstyle nine.superior nine.fitted
EndChar

StartChar: colon
Encoding: 58 58 18
Width: 640
VWidth: 999
Flags: HW
HStem: 29 134<270.978 369.022> 322 134<270.978 369.022>
VStem: 252 136<47.8648 144.135 340.865 437.135>
LayerCount: 2
Fore
SplineSet
252 96 m 0
 252 132 283 163 320 163 c 0
 357 163 388 132 388 96 c 0
 388 60 357 29 320 29 c 0
 283 29 252 60 252 96 c 0
252 389 m 0
 252 425 283 456 320 456 c 0
 357 456 388 425 388 389 c 0
 388 353 357 322 320 322 c 0
 283 322 252 353 252 389 c 0
EndSplineSet
EndChar

StartChar: semicolon
Encoding: 59 59 19
Width: 640
VWidth: 999
Flags: HW
HStem: -164 36<238.478 268.332> 6 116<267.047 336.333> 322 134<270.978 369.022>
VStem: 252 136<340.865 437.135> 338 58<-71.0972 3.19388>
LayerCount: 2
Fore
SplineSet
315 122 m 0
 363 122 396 71 396 -1 c 0
 396 -85 306 -151 244 -164 c 1
 236 -156 228 -140 228 -128 c 1
 290 -112 338 -56 338 -31 c 0
 338 -3 327 4 304 6 c 1
 282 10 251 21 251 59 c 0
 251 93 278 122 315 122 c 0
252 389 m 0
 252 425 283 456 320 456 c 0
 357 456 388 425 388 389 c 0
 388 353 357 322 320 322 c 0
 283 322 252 353 252 389 c 0
EndSplineSet
EndChar

StartChar: less
Encoding: 60 60 20
Width: 640
VWidth: 999
Flags: HW
DStem2: 104 270 184 239 0.9187 0.394955<61.2524 454.133> 184 239 104 208 0.91792 -0.396765<0 393.302>
LayerCount: 2
Fore
SplineSet
184 239 m 1
 532 88 l 1
 546 70 547 31 532 23 c 1
 104 208 l 1
 94 228 94 248 104 270 c 1
 532 454 l 1
 547 446 546 407 532 389 c 1
 184 239 l 1
EndSplineSet
EndChar

StartChar: equal
Encoding: 61 61 21
Width: 640
VWidth: 999
Flags: HW
HStem: 143 50<92.4893 546.691> 329 50<92.4893 546.691>
LayerCount: 2
Fore
SplineSet
523 329 m 2
 105 329 l 2
 96 329 90 337 90 345 c 0
 90 360 103 379 115 379 c 2
 536 379 l 2
 546 379 550 370 550 362 c 0
 550 352 536 329 523 329 c 2
523 143 m 2
 105 143 l 2
 96 143 90 151 90 159 c 0
 90 174 103 193 115 193 c 2
 536 193 l 2
 546 193 550 184 550 176 c 0
 550 166 536 143 523 143 c 2
EndSplineSet
Substitution2: "'sinf' Wissenschaftliche Indices 1" equal.inferior
Substitution2: "'sups' Hochgestellte 1" equal.superior
AlternateSubs2: "LinLibertine-'aalt' Alle Alternativen zeigen 1" equal.superior
EndChar

StartChar: greater
Encoding: 62 62 22
Width: 640
VWidth: 999
Flags: HW
DStem2: 456 236 536 267 0.91792 -0.396765<-393.302 0> 536 205 456 236 0.9187 0.394955<-454.133 -61.2524>
LayerCount: 2
Fore
SplineSet
456 236 m 1
 108 387 l 1
 94 405 93 444 108 452 c 1
 536 267 l 1
 546 247 546 227 536 205 c 1
 108 21 l 1
 93 29 94 68 108 86 c 1
 456 236 l 1
EndSplineSet
EndChar

StartChar: question
Encoding: 63 63 23
Width: 640
VWidth: 487
Flags: HW
HStem: -10 120<261.107 352.893> 622 37<247.17 381.172>
VStem: 122 76<479.928 570.474> 246 122<5.01419 94.9858> 287 33<174.009 272.382> 436 97<419.313 570.973>
LayerCount: 2
Fore
SplineSet
198 542 m 0
 198 527 200 521 205 516 c 0
 210 511 213 505 213 492 c 0
 213 469 194 457 171 457 c 0
 152 457 122 475 122 510 c 0
 122 548 147 584 183 608 c 1
 218 633 278 659 342 659 c 0
 464 659 533 586 533 488 c 0
 533 409 457 359 402 329 c 0
 373 313 351 296 340 279 c 0
 324 254 320 245 320 221 c 2
 320 184 l 2
 320 177 313 174 303 174 c 0
 293 174 287 177 287 184 c 2
 287 223 l 2
 287 266 291 318 367 369 c 0
 422 406 436 437 436 484 c 0
 436 558 399 622 321 622 c 0
 243 622 198 572 198 542 c 0
246 50 m 0
 246 82 274 110 307 110 c 0
 340 110 368 82 368 50 c 0
 368 18 340 -10 307 -10 c 0
 274 -10 246 18 246 50 c 0
EndSplineSet
EndChar

StartChar: at
Encoding: 64 64 24
Width: 640
VWidth: 999
Flags: HW
HStem: -80 40<224.13 439.408> 73 27<390.5 477.089> 85 35<258.339 321.501> 343 28<303.272 373.093> 514 35<253.308 406.849>
VStem: 32 68<96.3993 346.043> 535 68<183.079 390.887>
LayerCount: 2
Fore
SplineSet
383 298 m 0
 381 326 369 343 344 343 c 0
 332 343 303 336 283 314 c 0
 250 278 244 231 247 186 c 0
 250 147 254 120 292 120 c 0
 316 120 350 161 368 214 c 0
 375 236 385 273 383 298 c 0
424 119 m 0
 424 112 428 100 442 100 c 0
 486 100 535 150 535 284 c 0
 535 439 424 514 330 514 c 0
 221 514 100 420 100 238 c 0
 100 79 153 -40 331 -40 c 0
 392 -40 469 -20 526 11 c 1
 535 6 538 -1 542 -8 c 1
 452 -63 398 -80 317 -80 c 0
 134 -80 32 42 32 231 c 0
 32 406 167 549 338 549 c 0
 476 549 603 449 603 289 c 0
 603 196 556 73 407 73 c 0
 374 73 370 102 369 114 c 0
 368 126 372 143 377 162 c 1
 374 163 l 1
 346 107 299 85 274 85 c 0
 194 85 176 134 173 178 c 0
 165 286 250 371 344 371 c 0
 368 371 394 359 402 339 c 1
 404 357 l 1
 448 363 l 1
 459 359 l 1
 429 169 l 2
 425 149 424 124 424 119 c 0
EndSplineSet
EndChar

StartChar: A
Encoding: 65 65 25
Width: 640
VWidth: 999
Flags: HW
HStem: -2 37<3.77002 65.0049 146.85 217.23 386.77 467.557 575.19 628.23> 229 40<220.562 396> 605 20G<345.5 360.644>
DStem2: 93 101 218 282 0.363425 0.931623<-25.7453 165.636 208.714 214.052> 290 606 300 527 0.363425 0.931623<-502.155 -384.549 -336.377 -69.964> 353 625 302 527 0.357004 -0.934103<73.3349 347.892 390.611 577.226>
AnchorPoint: "unten_punkt" 308 -104 basechar 0
AnchorPoint: "unten_anhang" 116 5 basechar 0
AnchorPoint: "top_akzent" 354 808 basechar 0
LayerCount: 2
Fore
SplineSet
243 269 m 2
 396 269 l 1
 302 527 l 1
 300 527 l 1
 218 282 l 2
 215 272 221 269 243 269 c 2
145 79 m 2
 132 40.3 176 37 214 35 c 1
 220 29 220 4 214 -2 c 1
 177 -1 135 0 96 0 c 0
 69.3 0 35 -1 7 -2 c 1
 1 4 1 29 7 35 c 1
 51 38 70 43 93 101 c 2
 290 606 l 1
 303 606 338 616 353 625 c 1
 559 86 l 2
 577 40 586 38 625 35 c 1
 631 29 631 4 625 -2 c 1
 595.3 -1 562 0 521 0 c 0
 482 0 427 -1 390 -2 c 1
 384 4 384 29 390 35 c 1
 438 38 481 44 470 72 c 2
 411 229 l 1
 225 229 l 2
 201 229 195 227 190 213 c 2
 145 79 l 2
EndSplineSet
Substitution2: "'c2sc' Versale nach Kapitaelchen 1" a.sc
EndChar

StartChar: B
Encoding: 66 66 26
Width: 640
VWidth: 999
Flags: HW
HStem: -2 37<39.77 112.478 227.972 428.358> 315 33<215 390.547> 578 37<39.77 111.618 223.12 392.521>
VStem: 122 93<46.4395 315 348 568.526> 441 81<405.811 536.08> 488 93<87.3229 242.187>
AnchorPoint: "mittelpunkt" 330 176 basechar 0
AnchorPoint: "top_rechts" 513 695 basechar 0
AnchorPoint: "unten_punkt" 272 -104 basechar 0
AnchorPoint: "unten_anhang" 244 0 basechar 0
AnchorPoint: "top_akzent" 271 808 basechar 0
LayerCount: 2
Fore
SplineSet
215 536 m 2
 215 348 l 1
 309 348 l 2
 392 348 441 376 441 457 c 0
 441 554 378 578 322 578 c 0
 235 578 215 567 215 536 c 2
215 315 m 1
 215 95 l 2
 215 39 248 35 318 35 c 0
 470 35 488 88 488 157 c 0
 488 243 441 315 304 315 c 2
 215 315 l 1
172 613 m 0
 215 613 282 616 317 616 c 0
 503 616 522 532 522 468 c 0
 522 416 477 368 427 344 c 1
 427 342 l 1
 514 318 581 266 581 175 c 0
 581 93 538 -2 339 -2 c 0
 250 -2 216 0 173 0 c 0
 122.3 0 92 -1 43 -2 c 1
 37 4 37 29 43 35 c 1
 113 38 122 39 122 118 c 2
 122 491 l 2
 122 570 113 575 43 578 c 1
 37 584 37 609 43 615 c 1
 81.7 614 121.7 613 172 613 c 0
EndSplineSet
Substitution2: "'c2sc' Versale nach Kapitaelchen 1" b.sc
EndChar

StartChar: C
Encoding: 67 67 27
Width: 640
VWidth: 999
Flags: HW
HStem: -10 41<280 468> 587 38<275 442>
VStem: 42 97<188 412> 540 32<432 475>
AnchorPoint: "mittelpunkt" 346 299 basechar 0
AnchorPoint: "top_rechts" 609 695 basechar 0
AnchorPoint: "unten_punkt" 356 -104 basechar 0
AnchorPoint: "unten_anhang" 359 -7 basechar 0
AnchorPoint: "top_akzent" 340 808 basechar 0
LayerCount: 2
Fore
SplineSet
354 -10 m 0
 154 -10 35 128 35 290 c 0
 35 470 175 625 362 625 c 0
 473 625 525 587 571 582 c 1
 579 530 587 484 591 435 c 1
 581 429 570 426 559 430 c 1
 536 512 476 587 352 587 c 0
 239 587 132 484 132 308 c 0
 132 169 217 31 353 31 c 0
 437 31 512 62 576 136 c 1
 586 136 599 126 603 117 c 1
 542 32 441 -10 354 -10 c 0
EndSplineSet
Substitution2: "'c2sc' Versale nach Kapitaelchen 1" c.sc
EndChar

StartChar: D
Encoding: 68 68 28
Width: 640
VWidth: 999
Flags: HW
HStem: -2 35<16 79 200 392> 580 35<16 79 201 378>
VStem: 89 93<48 564> 500 97<163 434>
AnchorPoint: "mittelpunkt" 346 299 basechar 0
AnchorPoint: "top_rechts" 579 600 basechar 0
AnchorPoint: "unten_punkt" 279 -104 basechar 0
AnchorPoint: "unten_anhang" 279 4 basechar 0
AnchorPoint: "top_akzent" 306 808 basechar 0
LayerCount: 2
Fore
SplineSet
182 85 m 2
 182 55 209 35 291 35 c 0
 409 35 500 78 500 270 c 0
 500 458 469 578 271 578 c 0
 230 578 182 563 182 530 c 2
 182 85 l 2
140 613 m 0
 176 613 247 616 302 616 c 0
 478 616 597 513 597 293 c 0
 597 59 435 -2 317 -2 c 0
 231 -2 175 0 141 0 c 0
 93.4 0 65 -1 19 -2 c 1
 13 4 13 29 19 35 c 1
 79 35 89 43 89 122 c 2
 89 491 l 2
 89 570 79 578 19 578 c 1
 13 584 13 609 19 615 c 1
 65 614 92.8 613 140 613 c 0
EndSplineSet
Substitution2: "'c2sc' Versale nach Kapitaelchen 1" d.sc
EndChar

StartChar: E
Encoding: 69 69 29
Width: 640
VWidth: 999
Flags: HW
HStem: 0 39<33.2466 111.169 219.31 511.259> 307 36<215 400.322> 573 40<33.7036 112.072 219.649 491.3>
VStem: 122 93<47.0087 307 343 565.991> 414 33<238.625 291.629 355.105 411.375> 536 33<473.56 512.891> 575 35<116.871 160.353>
AnchorPoint: "top_rechts" 519 695 basechar 0
AnchorPoint: "unten_anhang" 299 4 basechar 0
AnchorPoint: "unten_punkt" 289 -104 basechar 0
AnchorPoint: "top_akzent" 273 808 basechar 0
LayerCount: 2
Fore
SplineSet
323 343 m 2
 408 343 411 356 414 408 c 1
 420 414 441 414 447 408 c 1
 445.7 380.7 445 358 445 326 c 0
 445 293.2 445 274 447 242 c 1
 441 236 420 236 414 242 c 1
 411 285 408 307 323 307 c 2
 215 307 l 1
 215 80 l 2
 215 54 229 39 251 39 c 2
 444 39 l 2
 520 39 555 94 575 162 c 1
 588 165 600 163 610 157 c 1
 602 109 587 46 573 -2 c 1
 573 -2 493 0 445 0 c 2
 155 0 l 1
 155 0 84 -1 35 -2 c 1
 29 4 29 29 35 35 c 1
 105 38 122 43 122 122 c 2
 122 491 l 2
 122 570 105 575 35 578 c 1
 29 584 29 609 35 615 c 1
 85 614 154 613 154 613 c 1
 494 613 l 2
 518 613 526 614 543 617 c 0
 546 617 547 616 547 614 c 0
 549 606 564 515 569 476 c 1
 559 472 548 469 536 471 c 1
 514 537 498 573 423 573 c 2
 251 573 l 2
 227 573 215 554 215 531 c 2
 215 343 l 1
 323 343 l 2
EndSplineSet
Substitution2: "'c2sc' Versale nach Kapitaelchen 1" e.sc
EndChar

StartChar: F
Encoding: 70 70 30
Width: 640
VWidth: 999
Flags: HW
HStem: -2 37<58.77 152.282 291.638 392.23> 297 36<272 447.167> 573 40<60.7036 169.35 278.868 498.879>
VStem: 179 93<57.6501 297 333 563.5> 456 33<229.625 285.712 341.893 401.375> 580 32<427.953 466.378>
AnchorPoint: "top_rechts" 519 695 basechar 0
AnchorPoint: "unten_anhang" 205 -1 basechar 0
AnchorPoint: "unten_punkt" 221 -104 basechar 0
AnchorPoint: "top_akzent" 296 808 basechar 0
LayerCount: 2
Fore
SplineSet
375 297 m 2
 272 297 l 1
 272 122 l 2
 272 81 277 59 291 48 c 0
 304 38 356 36 389 35 c 1
 395 29 395 4 389 -2 c 1
 341.3 -1 292 0 230 0 c 0
 164.5 0 111 -1 62 -2 c 1
 56 4 56 29 62 35 c 1
 132 38 179 43 179 122 c 2
 179 510 l 2
 179 568 162 572 62 578 c 1
 56 584 56 609 62 615 c 1
 112 614 219 613 219 613 c 1
 534 613 l 2
 559 613 563 614 581 617 c 0
 583 617 585 616 585 614 c 0
 586 607 607 469 612 430 c 1
 604 427 592 425 580 425 c 1
 558 491 529 573 423 573 c 2
 338 573 l 2
 290 573 272 568 272 512 c 2
 272 333 l 1
 375 333 l 2
 458 333 453 346 456 398 c 1
 462 404 483 404 489 398 c 1
 487 371 487 348 487 316 c 0
 487 283.6 487 258 489 233 c 1
 483 227 462 227 456 233 c 1
 453 276 459 297 375 297 c 2
EndSplineSet
Substitution2: "'c2sc' Versale nach Kapitaelchen 1" f.sc
EndChar

StartChar: G
Encoding: 71 71 31
Width: 640
VWidth: 999
Flags: HW
HStem: -10 35<275 457> 238 35<379 459 576 621> 590 35<267 436>
VStem: 35 97<176 429> 472 94<60 226> 530 35<436 486>
AnchorPoint: "mittelpunkt" 308 318 basechar 0
AnchorPoint: "top_rechts" 631 695 basechar 0
AnchorPoint: "unten_anhang" 367 2 basechar 0
AnchorPoint: "unten_punkt" 367 -104 basechar 0
AnchorPoint: "top_akzent" 365 808 basechar 0
LayerCount: 2
Fore
SplineSet
359 625 m 0
 469 625 492 596 546 596 c 1
 552 528 557 480 565 440 c 1
 555 434 542 433 530 434 c 1
 507 516 477 590 347 590 c 0
 231 590 132 499 132 311 c 0
 132 156 203 28 366 28 c 0
 415 28 445 35 472 53 c 1
 472 193 l 2
 472 231 431 234 382 238 c 1
 377 244 377 268 382 274 c 1
 424 273 489 272 524 272 c 0
 560 272 591 273 618 274 c 1
 623 268 623 244 618 238 c 1
 592 235 566 226 566 193 c 2
 566 86 l 2
 566 76 571 69 581 60 c 1
 530 16 451 -10 345 -10 c 0
 155 -10 35 112 35 292 c 0
 35 538 197 625 359 625 c 0
EndSplineSet
Substitution2: "'c2sc' Versale nach Kapitaelchen 1" g.sc
EndChar

StartChar: grave
Encoding: 96 96 32
Width: 640
VWidth: 999
Flags: HMW
LayerCount: 2
Fore
SplineSet
299.8 686 m 1
 423.6 542 l 2
 429.4 535.8 430 530 430 526 c 0
 430 515 424 510 406.8 510 c 0
 392.4 510 374.6 516 347.4 532 c 2
 149 652 l 1
 157 663 l 1
 179.4 670 195.8 689 271 689 c 0
 280.6 689 293.4 688 299.8 686 c 1
EndSplineSet
Substitution2: "'case' Versalformen 1" uni0358
EndChar

StartChar: ograve
Encoding: 242 242 33
Width: 640
VWidth: 999
Flags: HW
HStem: -10 41<256.497 417.406> 449 41<224.832 386.04>
VStem: 60 96<144.93 336.691> 484 96<133.429 338.358>
AnchorPoint: "top_akzent" 325 834 basechar 0
AnchorPoint: "komb_OR" 490 396 basechar 0
LayerCount: 2
Fore
SplineSet
303 729 m 1
 373 603 l 2
 378 593 379 586 379 579 c 0
 379 574 372 568 364 568 c 0
 358 568 351 573 335 588 c 2
 221 697 l 1
 223 708 l 1
 231 714 254 731 288 731 c 0
 293 731 299 730 303 729 c 1
60 230 m 0
 60 300 85 364 129 412 c 0
 174 460 240 490 321 490 c 0
 509 490 580 356 580 240 c 0
 580 172 556 101 500 52 c 0
 458 15 398 -10 319 -10 c 0
 144 -10 60 116 60 230 c 0
301 449 m 0
 184.9 449 156 354 156 255 c 0
 156 167 200 31 337 31 c 0
 400 31 484 60 484 203 c 0
 484 367 415 449 301 449 c 0
EndSplineSet
Substitution2: "'smcp' Gemeine nach Kapitaelchen 1" ograve.sc
AlternateSubs2: "LinLibertine-'aalt' Alle Alternativen zeigen 1" ograve.sc
EndChar

StartChar: oacute
Encoding: 243 243 34
Width: 640
VWidth: 999
Flags: HW
HStem: -10 41<256.497 417.406> 449 41<224.832 386.04>
VStem: 60 96<144.93 336.691> 484 96<133.429 338.358>
AnchorPoint: "top_akzent" 335 834 basechar 0
AnchorPoint: "komb_OR" 500 396 basechar 0
LayerCount: 2
Fore
SplineSet
348 729 m 1
 351 730 357 731 362 731 c 0
 368.4 731 394 730 417 708 c 1
 420 697 l 1
 305 588 l 2
 290 573 282 569 275 569 c 0
 268 569 261 575 261 582 c 0
 261 593.2 264.3 597.2 272.4 610 c 2
 348 729 l 1
60 230 m 0
 60 300 85 364 129 412 c 0
 174 460 240 490 321 490 c 0
 509 490 580 356 580 240 c 0
 580 172 556 101 500 52 c 0
 458 15 398 -10 319 -10 c 0
 144 -10 60 116 60 230 c 0
301 449 m 0
 184.9 449 156 354 156 255 c 0
 156 167 200 31 337 31 c 0
 400 31 484 60 484 203 c 0
 484 367 415 449 301 449 c 0
EndSplineSet
Substitution2: "'smcp' Gemeine nach Kapitaelchen 1" oacute.sc
AlternateSubs2: "LinLibertine-'aalt' Alle Alternativen zeigen 1" oacute.sc
EndChar

StartChar: ocircumflex
Encoding: 244 244 35
Width: 640
VWidth: 999
Flags: HW
HStem: -10 41<256.497 417.406> 449 41<224.832 386.04> 605 157
VStem: 60 96<144.93 336.691> 384 252 484 96<133.429 338.358>
AnchorPoint: "top_akzent" 285 833 basechar 0
AnchorPoint: "komb_OR" 480 396 basechar 0
LayerCount: 2
Fore
SplineSet
347 722 m 1
 376 675 420 622 456 582 c 1
 451 575 442.4 566.9 433 565 c 1
 395 589 360 617 330 648 c 1
 298 616 265 587 226 565 c 1
 217 567 210 573 204 582 c 1
 240 622 286 676 315 722 c 1
 325.7 724.3 336.3 725 347 722 c 1
60 230 m 0
 60 300 85 364 129 412 c 0
 174 460 240 490 321 490 c 0
 509 490 580 356 580 240 c 0
 580 172 556 101 500 52 c 0
 458 15 398 -10 319 -10 c 0
 144 -10 60 116 60 230 c 0
301 449 m 0
 184.9 449 156 354 156 255 c 0
 156 167 200 31 337 31 c 0
 400 31 484 60 484 203 c 0
 484 367 415 449 301 449 c 0
EndSplineSet
Substitution2: "'smcp' Gemeine nach Kapitaelchen 1" ocircumflex.sc
AlternateSubs2: "LinLibertine-'aalt' Alle Alternativen zeigen 1" ocircumflex.sc
EndChar

StartChar: otilde
Encoding: 245 245 36
Width: 640
VWidth: 999
Flags: HW
HStem: -10 41<256.497 417.406> 449 41<224.832 386.04> 589 53<338.461 428.486> 640 55<227.759 320.68>
VStem: 60 96<144.93 336.691> 441 27<663.983 691.365> 484 96<133.429 338.358>
AnchorPoint: "top_akzent" 315 834 basechar 0
AnchorPoint: "komb_OR" 480 396 basechar 0
LayerCount: 2
Fore
SplineSet
394 642 m 0
 416 642 427 652 441 694 c 1
 452 695 462 692 468 688 c 1
 456 628 427 589 381 589 c 0
 359 589 337 605 317 621 c 0
 300.5 634.2 280 640 263 640 c 0
 237 640 227 625 217 592 c 1
 206 590 196 591 190 597 c 1
 204 656 227 695 270 695 c 0
 300 695 323.5 676.9 342 661 c 0
 356.3 648.7 375 642 394 642 c 0
60 230 m 0
 60 300 85 364 129 412 c 0
 174 460 240 490 321 490 c 0
 509 490 580 356 580 240 c 0
 580 172 556 101 500 52 c 0
 458 15 398 -10 319 -10 c 0
 144 -10 60 116 60 230 c 0
301 449 m 0
 184.9 449 156 354 156 255 c 0
 156 167 200 31 337 31 c 0
 400 31 484 60 484 203 c 0
 484 367 415 449 301 449 c 0
EndSplineSet
Substitution2: "'smcp' Gemeine nach Kapitaelchen 1" otilde.sc
AlternateSubs2: "LinLibertine-'aalt' Alle Alternativen zeigen 1" otilde.sc
EndChar

StartChar: odieresis
Encoding: 246 246 37
Width: 640
VWidth: 999
Flags: HW
HStem: -10 41<256.497 417.406> 449 41<224.832 386.04> 597 95<202.016 279.984 381.016 458.984>
VStem: 60 96<144.93 336.691> 194 94<604.394 684.312> 373 94<604.394 684.312> 484 96<133.429 338.358>
AnchorPoint: "top_akzent" 319 834 basechar 0
LayerCount: 2
Fore
SplineSet
194 644 m 0
 194 670 215 692 241 692 c 0
 267 692 288 670 288 644 c 0
 288 618 267 597 241 597 c 0
 215 597 194 618 194 644 c 0
373 644 m 0
 373 670 394 692 420 692 c 0
 446 692 467 670 467 644 c 0
 467 618 446 597 420 597 c 0
 394 597 373 618 373 644 c 0
60 230 m 0
 60 300 85 364 129 412 c 0
 174 460 240 490 321 490 c 0
 509 490 580 356 580 240 c 0
 580 172 556 101 500 52 c 0
 458 15 398 -10 319 -10 c 0
 144 -10 60 116 60 230 c 0
301 449 m 0
 184.9 449 156 354 156 255 c 0
 156 167 200 31 337 31 c 0
 400 31 484 60 484 203 c 0
 484 367 415 449 301 449 c 0
EndSplineSet
Substitution2: "'smcp' Gemeine nach Kapitaelchen 1" odieresis.sc
AlternateSubs2: "LinLibertine-'aalt' Alle Alternativen zeigen 1" odieresis.sc
EndChar

StartChar: divide
Encoding: 247 247 38
Width: 640
VWidth: 487
Flags: HW
HStem: 62.6 112.3<294.222 376.396> 217 49<128 512> 340.6 112.3<294.222 376.396>
VStem: 278.3 114<78.43 159.118 356.43 437.118>
LayerCount: 2
Fore
SplineSet
571 281 m 2
 584 281 590 270 590 260 c 0
 590 248 571 221 554 221 c 2
 70 221 l 2
 58 221 50 230 50 240 c 0
 50 258 67 281 83 281 c 2
 571 281 l 2
278.3 118.8 m 0
 278.3 149 304.3 174.9 335.3 174.9 c 0
 366.3 174.9 392.3 149 392.3 118.8 c 0
 392.3 88.6 366.3 62.6 335.3 62.6 c 0
 304.3 62.6 278.3 88.6 278.3 118.8 c 0
278.3 396.8 m 0
 278.3 427 304.3 452.9 335.3 452.9 c 0
 366.3 452.9 392.3 427 392.3 396.8 c 0
 392.3 366.6 366.3 340.6 335.3 340.6 c 0
 304.3 340.6 278.3 366.6 278.3 396.8 c 0
EndSplineSet
EndChar

StartChar: ugrave
Encoding: 249 249 39
Width: 640
VWidth: 999
Flags: HW
HStem: -10 47<224.343 335.237> 30 27<538.286 595.139> 445 37<36.27 95.5458 363.27 412.242>
VStem: 111.5 87<63.8821 430.032> 428.5 87<95.4194 431.027>
AnchorPoint: "top_akzent" 295 834 basechar 0
LayerCount: 2
Fore
SplineSet
303 729 m 1
 373 603 l 2
 378 593 379 586 379 579 c 0
 379 574 372 568 364 568 c 0
 358 568 351 573 335 588 c 2
 221 697 l 1
 223 708 l 1
 231 714 254 731 288 731 c 0
 293 731 299 730 303 729 c 1
246.5 -10 m 0
 147.5 -10 111.5 57 111.5 126 c 2
 111.5 365 l 2
 111.5 400.2 107.4 419.6 96 430.6 c 0
 86.4 439.9 61.5 443.2 39.5 445 c 1
 33.5 451 33.5 476 39.5 482 c 1
 76.5 481 125.5 480 157.5 480 c 0
 172.5 480 189.5 481 194.5 482 c 0
 199.5 482 202.5 479 202.5 476 c 2
 202.5 476 198.5 399 198.5 369 c 2
 198.5 140 l 2
 198.5 51 248.5 37 278.5 37 c 0
 303.5 37 364 56 422.5 99 c 0
 437.4 109.9 438.5 119 438.5 138 c 2
 438.5 364 l 2
 438.5 400.5 434.5 420.5 422.7 431.6 c 0
 413.1 440.6 393.4 443.7 371.5 445 c 1
 365.5 451 365.5 476 371.5 482 c 1
 408.5 481 446.5 480 478.5 480 c 0
 493.5 480 516.5 481 521.5 482 c 0
 526.5 482 529.5 479 529.5 476 c 2
 529.5 476 525.5 399 525.5 369 c 2
 525.5 130 l 2
 525.5 81 537.5 62 601.5 57 c 1
 607.5 51 607.5 36 601.5 30 c 1
 540.5 23 491.5 8 469.5 -10 c 1
 461.5 -12 458.5 -13 450.5 -10 c 1
 450.5 -10 439.5 14.9 439.5 59 c 0
 439.5 66 432.6 63.9 427.5 60 c 0
 360 9.1 285.5 -10 246.5 -10 c 0
EndSplineSet
Substitution2: "'smcp' Gemeine nach Kapitaelchen 1" ugrave.sc
AlternateSubs2: "LinLibertine-'aalt' Alle Alternativen zeigen 1" ugrave.sc
EndChar

StartChar: uacute
Encoding: 250 250 40
Width: 640
VWidth: 999
Flags: HW
HStem: -10 47<224.343 335.237> 30 27<538.286 595.139> 445 37<36.27 95.5458 363.27 412.242>
VStem: 111.5 87<63.8821 430.032> 428.5 87<95.4194 431.027>
LayerCount: 2
Fore
SplineSet
348 729 m 1
 351 730 357 731 362 731 c 0
 368.4 731 394 730 417 708 c 1
 420 697 l 1
 305 588 l 2
 290 573 282 569 275 569 c 0
 268 569 261 575 261 582 c 0
 261 593.2 264.3 597.2 272.4 610 c 2
 348 729 l 1
246.5 -10 m 0
 147.5 -10 111.5 57 111.5 126 c 2
 111.5 365 l 2
 111.5 400.2 107.4 419.6 96 430.6 c 0
 86.4 439.9 61.5 443.2 39.5 445 c 1
 33.5 451 33.5 476 39.5 482 c 1
 76.5 481 125.5 480 157.5 480 c 0
 172.5 480 189.5 481 194.5 482 c 0
 199.5 482 202.5 479 202.5 476 c 2
 202.5 476 198.5 399 198.5 369 c 2
 198.5 140 l 2
 198.5 51 248.5 37 278.5 37 c 0
 303.5 37 364 56 422.5 99 c 0
 437.4 109.9 438.5 119 438.5 138 c 2
 438.5 364 l 2
 438.5 400.5 434.5 420.5 422.7 431.6 c 0
 413.1 440.6 393.4 443.7 371.5 445 c 1
 365.5 451 365.5 476 371.5 482 c 1
 408.5 481 446.5 480 478.5 480 c 0
 493.5 480 516.5 481 521.5 482 c 0
 526.5 482 529.5 479 529.5 476 c 2
 529.5 476 525.5 399 525.5 369 c 2
 525.5 130 l 2
 525.5 81 537.5 62 601.5 57 c 1
 607.5 51 607.5 36 601.5 30 c 1
 540.5 23 491.5 8 469.5 -10 c 1
 461.5 -12 458.5 -13 450.5 -10 c 1
 450.5 -10 439.5 14.9 439.5 59 c 0
 439.5 66 432.6 63.9 427.5 60 c 0
 360 9.1 285.5 -10 246.5 -10 c 0
EndSplineSet
Substitution2: "'smcp' Gemeine nach Kapitaelchen 1" uacute.sc
AlternateSubs2: "LinLibertine-'aalt' Alle Alternativen zeigen 1" uacute.sc
EndChar

StartChar: ucircumflex
Encoding: 251 251 41
Width: 640
VWidth: 999
Flags: HW
HStem: -10 47<224.343 335.237> 30 27<538.286 595.139> 445 37<36.27 95.5458 363.27 412.242> 605 157
VStem: 111.5 87<63.8821 430.032> 374 252 428.5 87<95.4194 431.027>
AnchorPoint: "top_akzent" 327 834 basechar 0
LayerCount: 2
Fore
SplineSet
337 722 m 1
 366 675 410 622 446 582 c 1
 441 575 432.4 566.9 423 565 c 1
 385 589 350 617 320 648 c 1
 288 616 255 587 216 565 c 1
 207 567 200 573 194 582 c 1
 230 622 276 676 305 722 c 1
 315.7 724.3 326.3 725 337 722 c 1
246.5 -10 m 0
 147.5 -10 111.5 57 111.5 126 c 2
 111.5 365 l 2
 111.5 400.2 107.4 419.6 96 430.6 c 0
 86.4 439.9 61.5 443.2 39.5 445 c 1
 33.5 451 33.5 476 39.5 482 c 1
 76.5 481 125.5 480 157.5 480 c 0
 172.5 480 189.5 481 194.5 482 c 0
 199.5 482 202.5 479 202.5 476 c 2
 202.5 476 198.5 399 198.5 369 c 2
 198.5 140 l 2
 198.5 51 248.5 37 278.5 37 c 0
 303.5 37 364 56 422.5 99 c 0
 437.4 109.9 438.5 119 438.5 138 c 2
 438.5 364 l 2
 438.5 400.5 434.5 420.5 422.7 431.6 c 0
 413.1 440.6 393.4 443.7 371.5 445 c 1
 365.5 451 365.5 476 371.5 482 c 1
 408.5 481 446.5 480 478.5 480 c 0
 493.5 480 516.5 481 521.5 482 c 0
 526.5 482 529.5 479 529.5 476 c 2
 529.5 476 525.5 399 525.5 369 c 2
 525.5 130 l 2
 525.5 81 537.5 62 601.5 57 c 1
 607.5 51 607.5 36 601.5 30 c 1
 540.5 23 491.5 8 469.5 -10 c 1
 461.5 -12 458.5 -13 450.5 -10 c 1
 450.5 -10 439.5 14.9 439.5 59 c 0
 439.5 66 432.6 63.9 427.5 60 c 0
 360 9.1 285.5 -10 246.5 -10 c 0
EndSplineSet
Substitution2: "'smcp' Gemeine nach Kapitaelchen 1" ucircumflex.sc
AlternateSubs2: "LinLibertine-'aalt' Alle Alternativen zeigen 1" ucircumflex.sc
EndChar

StartChar: ebreve
Encoding: 277 277 42
Width: 640
VWidth: 999
Flags: HW
HStem: -10 50<279.924 462.977> 255 41<179 471.361> 450 40<266.142 414.556> 580 57<275.292 407.981>
VStem: 79 95<146.707 249.276> 205 27<692.641 718.111> 448 27<691.798 718.111> 473 100<278 378.705>
AnchorPoint: "ogonek" 361 42 basechar 0
AnchorPoint: "unten_anhang" 242 -2 basechar 0
AnchorPoint: "unten_punkt" 236 -110 basechar 0
AnchorPoint: "top_akzent" 227 795 basechar 0
LayerCount: 2
Fore
SplineSet
232 727 m 1
 243 674 286 637 340 637 c 0
 392 637 438 669 448 727 c 1
 475 715 l 1
 463 629 399 580 340 580 c 0
 270 580 219 630 205 715 c 1
 232 727 l 1
179 296 m 1
 453 300 l 2
 467 300.2 473 316 473 326 c 0
 473 422 393 450 345 450 c 0
 281 450 202 416 179 296 c 1
551 109 m 1
 566 108 571 98 574 87 c 1
 524 29 441 -10 347 -10 c 0
 259 -10 182 16 140 61 c 1
 99 103 78 164 78 226 c 0
 78 395 209 490 347 490 c 0
 517 490 573 378 573 284 c 0
 573 272 563 255 549 255 c 2
 174 255 l 1
 174 189 186 158 211 120 c 1
 252 62 312.8 40 377 40 c 0
 452 40 504 66 551 109 c 1
EndSplineSet
EndChar

StartChar: Edotaccent
Encoding: 278 278 43
Width: 640
VWidth: 999
Flags: HW
HStem: 0 39<48.2466 119.78 224.719 488.897> 323 38<220 380.322> 605 40<48.7036 120.458 225.062 469.552> 701 104<228.542 311.458>
VStem: 127 93<43.5349 323 361 601.5> 218 104<711.542 794.458> 394 33<251.625 306.925 373.446 432.375> 516 33<498.32 539.828> 555 35<122.11 168.353>
AnchorPoint: "top_akzent" 273 970 basechar 0
AnchorPoint: "unten_punkt" 279 -110 basechar 0
AnchorPoint: "unten_anhang" 279 4 basechar 0
AnchorPoint: "top_rechts" 519 732 basechar 0
LayerCount: 2
Fore
SplineSet
218 753 m 0
 218 781 242 805 270 805 c 0
 298 805 322 781 322 753 c 0
 322 725 298 701 270 701 c 0
 242 701 218 725 218 753 c 0
323 343 m 2
 408 343 411 356 414 408 c 1
 420 414 441 414 447 408 c 1
 445.7 380.7 445 358 445 326 c 0
 445 293.2 445 274 447 242 c 1
 441 236 420 236 414 242 c 1
 411 285 408 307 323 307 c 2
 215 307 l 1
 215 80 l 2
 215 54 229 39 251 39 c 2
 444 39 l 2
 520 39 555 94 575 162 c 1
 588 165 600 163 610 157 c 1
 602 109 587 46 573 -2 c 1
 573 -2 493 0 445 0 c 2
 155 0 l 1
 155 0 84 -1 35 -2 c 1
 29 4 29 29 35 35 c 1
 105 38 122 43 122 122 c 2
 122 491 l 2
 122 570 105 575 35 578 c 1
 29 584 29 609 35 615 c 1
 85 614 154 613 154 613 c 1
 494 613 l 2
 518 613 526 614 543 617 c 0
 546 617 547 616 547 614 c 0
 549 606 564 515 569 476 c 1
 559 472 548 469 536 471 c 1
 514 537 498 573 423 573 c 2
 251 573 l 2
 227 573 215 554 215 531 c 2
 215 343 l 1
 323 343 l 2
EndSplineSet
EndChar

StartChar: edotaccent
Encoding: 279 279 44
Width: 640
VWidth: 999
Flags: HW
HStem: -10 50<279.924 462.977> 255 41<179 471.361> 450 40<266.142 414.556> 590 115<289.017 371.153>
VStem: 79 95<146.707 249.276> 274 112<604.714 689.88> 473 100<278 378.705>
AnchorPoint: "top_akzent" 330 795 basechar 0
AnchorPoint: "ogonek" 461 42 basechar 0
AnchorPoint: "unten_anhang" 342 -2 basechar 0
AnchorPoint: "unten_punkt" 336 -110 basechar 0
LayerCount: 2
Fore
SplineSet
274 650 m 0
 274 678 305 705 332 705 c 0
 362 705 386 673 386 645 c 0
 386 621 359 590 328 590 c 0
 301 590 274 620 274 650 c 0
179 296 m 1
 453 300 l 2
 467 300.2 473 316 473 326 c 0
 473 422 393 450 345 450 c 0
 281 450 202 416 179 296 c 1
551 109 m 1
 566 108 571 98 574 87 c 1
 524 29 441 -10 347 -10 c 0
 259 -10 182 16 140 61 c 1
 99 103 78 164 78 226 c 0
 78 395 209 490 347 490 c 0
 517 490 573 378 573 284 c 0
 573 272 563 255 549 255 c 2
 174 255 l 1
 174 189 186 158 211 120 c 1
 252 62 312.8 40 377 40 c 0
 452 40 504 66 551 109 c 1
EndSplineSet
EndChar

StartChar: Eogonek
Encoding: 280 280 45
Width: 640
VWidth: 999
Flags: HW
HStem: -200 38<369.519 452.833> -2 17<441.684 468> 0 39<48.2466 119.78 224.719 488.897> 323 38<220 380.322> 605 40<48.7036 120.458 225.062 469.552>
VStem: 127 93<43.5349 323 361 601.5> 300 62<-155.299 -63.1465> 394 33<251.625 306.925 373.446 432.375> 516 33<498.32 539.828> 555 35<122.11 168.353>
AnchorPoint: "top_akzent" 273 850 basechar 0
AnchorPoint: "unten_punkt" 279 -110 basechar 0
AnchorPoint: "unten_anhang" 279 4 basechar 0
AnchorPoint: "top_rechts" 519 732 basechar 0
LayerCount: 2
Fore
SplineSet
498 -135 m 1
 469 -180 429 -200 388 -200 c 0
 338 -200 300 -180 300 -126 c 0
 300 -84.4 335.8 -26.9 396.4 0 c 1
 155 0 l 1
 155 0 84 -1 35 -2 c 1
 29 4 29 29 35 35 c 1
 105 38 122 43 122 122 c 2
 122 491 l 2
 122 570 105 575 35 578 c 1
 29 584 29 609 35 615 c 1
 85 614 154 613 154 613 c 1
 494 613 l 2
 518 613 526 614 543 617 c 0
 546 617 547 616 547 614 c 0
 549 606 564 515 569 476 c 1
 559 472 548 469 536 471 c 1
 514 537 498 573 423 573 c 2
 251 573 l 2
 227 573 215 554 215 531 c 2
 215 343 l 1
 323 343 l 2
 408 343 411 356 414 408 c 1
 420 414 441 414 447 408 c 1
 445.7 380.7 445 358 445 326 c 0
 445 293.2 445 274 447 242 c 1
 441 236 420 236 414 242 c 1
 411 285 408 307 323 307 c 2
 215 307 l 1
 215 80 l 2
 215 54 229 39 251 39 c 2
 444 39 l 2
 520 39 555 94 575 162 c 1
 588 165 600 163 610 157 c 1
 602 109 587 46 573 -2 c 1
 573 -2 524.7 -0.8 480.6 -0.3 c 1
 482 -2 l 1
 411 -2 362 -69 362 -115 c 0
 362 -141 375 -162 412 -162 c 0
 441 -162 457 -146 479 -124 c 1
 488 -124 494 -128 498 -135 c 1
EndSplineSet
Substitution2: "'c2sc' Versale nach Kapitaelchen 1" eogonek.sc
EndChar

StartChar: eogonek
Encoding: 281 281 46
Width: 640
VWidth: 999
Flags: HW
HStem: -200 38<378.519 461.833> -10 50<279.924 462.977> 255 41<179 471.361> 450 40<266.142 414.556>
VStem: 79 95<146.707 249.276> 309 62<-155.299 -69.1643> 473 100<278 378.705>
AnchorPoint: "unten_punkt" 70 -108 basechar 0
AnchorPoint: "top_akzent" 231 645 basechar 0
LayerCount: 2
Fore
SplineSet
507 -135 m 1
 478 -180 438 -200 397 -200 c 0
 347 -200 309 -180 309 -126 c 0
 309 -84 345 -44.2 396.8 -6.3 c 1
 380.6 -8.7 364 -10 347 -10 c 0
 259 -10 182 16 140 61 c 1
 99 103 78 164 78 226 c 0
 78 395 209 490 347 490 c 0
 517 490 573 378 573 284 c 0
 573 272 563 255 549 255 c 2
 174 255 l 1
 174 189 186 158 211 120 c 1
 252 62 312.8 40 377 40 c 0
 452 40 504 66 551 109 c 1
 566 108 571 98 574 87 c 1
 546.2 54.8 508.3 28.5 464 11.4 c 1
 400.3 -41.5 371 -71.4 371 -115 c 0
 371 -141 384 -162 421 -162 c 0
 450 -162 466 -146 488 -124 c 1
 497 -124 503 -128 507 -135 c 1
179 296 m 1
 453 300 l 2
 467 300.2 473 316 473 326 c 0
 473 422 393 450 345 450 c 0
 281 450 202 416 179 296 c 1
EndSplineSet
Substitution2: "'smcp' Gemeine nach Kapitaelchen 1" eogonek.sc
AlternateSubs2: "LinLibertine-'aalt' Alle Alternativen zeigen 1" eogonek.sc
EndChar

StartChar: Ecaron
Encoding: 282 282 47
Width: 640
VWidth: 999
Flags: HW
HStem: 0 39<48.2466 119.78 224.719 488.897> 323 38<220 380.322> 605 40<48.7036 120.458 225.062 469.552> 697 115
VStem: 127 93<43.5349 323 361 601.5> 207 244 394 33<251.625 306.925 373.446 432.375> 516 33<498.32 539.828> 555 35<122.11 168.353>
LayerCount: 2
Fore
SplineSet
323 343 m 2
 408 343 411 356 414 408 c 1
 420 414 441 414 447 408 c 1
 445.7 380.7 445 358 445 326 c 0
 445 293.2 445 274 447 242 c 1
 441 236 420 236 414 242 c 1
 411 285 408 307 323 307 c 2
 215 307 l 1
 215 80 l 2
 215 54 229 39 251 39 c 2
 444 39 l 2
 520 39 555 94 575 162 c 1
 588 165 600 163 610 157 c 1
 602 109 587 46 573 -2 c 1
 573 -2 493 0 445 0 c 2
 155 0 l 1
 155 0 84 -1 35 -2 c 1
 29 4 29 29 35 35 c 1
 105 38 122 43 122 122 c 2
 122 491 l 2
 122 570 105 575 35 578 c 1
 29 584 29 609 35 615 c 1
 85 614 154 613 154 613 c 1
 494 613 l 2
 518 613 526 614 543 617 c 0
 546 617 547 616 547 614 c 0
 549 606 564 515 569 476 c 1
 559 472 548 469 536 471 c 1
 514 537 498 573 423 573 c 2
 251 573 l 2
 227 573 215 554 215 531 c 2
 215 343 l 1
 323 343 l 2
308 697 m 1
 278 734 243 764 207 792 c 1
 223 812 l 1
 262 795 296 776 329 751 c 1
 366 777 398 796 436 812 c 1
 451 792 l 1
 413 763 381 731 351 697 c 1
 308 697 l 1
EndSplineSet
Substitution2: "'c2sc' Versale nach Kapitaelchen 1" ecaron.sc
EndChar

StartChar: ecaron
Encoding: 283 283 48
Width: 640
VWidth: 999
Flags: HW
HStem: -10 50<279.924 462.977> 255 41<179 471.361> 450 40<266.142 414.556>
VStem: 79 95<146.707 249.276> 473 100<278 378.705>
LayerCount: 2
Fore
SplineSet
315 584 m 1
 286 631 249 676 214 714 c 1
 234 727 l 1
 273 698 306 673 340 637 c 1
 377 675 411 700 448 727 c 1
 467 714 l 1
 432 675 394 630 365 584 c 1
 315 584 l 1
179 296 m 1
 453 300 l 2
 467 300.2 473 316 473 326 c 0
 473 422 393 450 345 450 c 0
 281 450 202 416 179 296 c 1
551 109 m 1
 566 108 571 98 574 87 c 1
 524 29 441 -10 347 -10 c 0
 259 -10 182 16 140 61 c 1
 99 103 78 164 78 226 c 0
 78 395 209 490 347 490 c 0
 517 490 573 378 573 284 c 0
 573 272 563 255 549 255 c 2
 174 255 l 1
 174 189 186 158 211 120 c 1
 252 62 312.8 40 377 40 c 0
 452 40 504 66 551 109 c 1
EndSplineSet
Substitution2: "'smcp' Gemeine nach Kapitaelchen 1" ecaron.sc
AlternateSubs2: "LinLibertine-'aalt' Alle Alternativen zeigen 1" ecaron.sc
EndChar

StartChar: Gcircumflex
Encoding: 284 284 49
Width: 640
VWidth: 999
Flags: HW
HStem: -10 37<284.556 457.265> 251 37<399.308 464.271 575.598 620.692> 621 37<269.119 436.04>
VStem: 35 97<201.486 441.997> 243 243 472 94<63.4212 242.114> 530 35<459.455 511.556>
LayerCount: 2
Fore
SplineSet
359 625 m 0
 469 625 492 596 546 596 c 1
 552 528 557 480 565 440 c 1
 555 434 542 433 530 434 c 1
 507 516 477 590 347 590 c 0
 231 590 132 499 132 311 c 0
 132 156 203 28 366 28 c 0
 415 28 445 35 472 53 c 1
 472 193 l 2
 472 231 431 234 382 238 c 1
 377 244 377 268 382 274 c 1
 424 273 489 272 524 272 c 0
 560 272 591 273 618 274 c 1
 623 268 623 244 618 238 c 1
 592 235 566 226 566 193 c 2
 566 86 l 2
 566 76 571 69 581 60 c 1
 530 16 451 -10 345 -10 c 0
 155 -10 35 112 35 292 c 0
 35 538 197 625 359 625 c 0
373 808 m 1
 403 772 440 738 476 711 c 1
 473.2 701.9 469.1 693.8 460 690 c 1
 421 708 387 726 354 751 c 1
 317 724 285 707 247 690 c 1
 238 696 235 702 233 711 c 1
 270 739 303 774 334 808 c 1
 348 816.4 357.6 815.7 373 808 c 1
EndSplineSet
EndChar

StartChar: gcircumflex
Encoding: 285 285 50
Width: 640
VWidth: 999
Flags: HW
HStem: -237 37<195.546 392.005> -16 64<178.237 328.601> -12 68<231.008 465.547> 153 37<225.717 356.611> 453 37<212.644 346.592> 466 50<453.95 546.607> 605 157
VStem: 57 77<-155.932 -66.9185> 86 91<245.448 400.08> 105 59<63.7669 168.039> 344 252 395 89<241.523 405.9> 511 64<-125.597 -49.4068>
LayerCount: 2
Fore
SplineSet
307 722 m 1
 336 675 380 622 416 582 c 1
 411 575 402.4 566.9 393 565 c 1
 355 589 320 617 290 648 c 1
 258 616 225 587 186 565 c 1
 177 567 170 573 164 582 c 1
 200 622 246 676 275 722 c 1
 285.7 724.3 296.3 725 307 722 c 1
402 312 m 0
 402 405 364 453 283 453 c 0
 213 453 184 416 184 338 c 0
 184 267 204 190 298 190 c 0
 348 190 402 208 402 312 c 0
183 -10 m 1
 151 -49 141 -69 141 -103 c 0
 141 -171 225 -200 288 -200 c 0
 393 -200 518 -162 518 -90 c 0
 518 -64 506 -52 461 -27 c 0
 427 -9 374 -12 315 -12 c 0
 298 -12 267 -16 230 -16 c 0
 215 -16 195 -13 183 -10 c 1
541 433 m 0
 529 433 514 444 510 453 c 1
 503 463 495 466 487 466 c 0
 473 466 451 450 443 439 c 1
 475 406 491 375 491 323 c 0
 491 214 400 153 292 153 c 0
 249 153 213 160 186 176 c 1
 173 157 171 133 171 111 c 0
 171 63 210 48 244 48 c 0
 250 48 262 49 280 50 c 0
 308 53 337 56 358 56 c 0
 401 56 484 55 529 19 c 0
 563 -8 582 -32 582 -64 c 0
 582 -172 413 -237 254 -237 c 0
 164 -237 64 -210 64 -123 c 0
 64 -80 103 -38 163 -2 c 1
 134 12 112 44 112 84 c 0
 112 122 125 169 156 196 c 1
 125 226 93 261 93 321 c 0
 93 424 184 490 293 490 c 0
 369 490 406 468 419 459 c 1
 448 497 502 516 531 516 c 0
 561 516 582 498 582 475 c 0
 582 453 562 433 541 433 c 0
EndSplineSet
EndChar

StartChar: Gbreve
Encoding: 286 286 51
Width: 640
VWidth: 999
Flags: HW
HStem: -10 37<284.556 457.265> 251 37<399.308 464.271 575.598 620.692> 621 37<269.119 436.04> 693 52<292.738 450.488> 786 20<236 268 476.5 508>
VStem: 35 97<201.486 441.997> 236 28<781.047 806> 472 94<63.4212 242.114> 480 28<780.76 806> 530 35<459.455 511.556>
LayerCount: 2
Fore
SplineSet
359 625 m 0
 469 625 492 596 546 596 c 1
 552 528 557 480 565 440 c 1
 555 434 542 433 530 434 c 1
 507 516 477 590 347 590 c 0
 231 590 132 499 132 311 c 0
 132 156 203 28 366 28 c 0
 415 28 445 35 472 53 c 1
 472 193 l 2
 472 231 431 234 382 238 c 1
 377 244 377 268 382 274 c 1
 424 273 489 272 524 272 c 0
 560 272 591 273 618 274 c 1
 623 268 623 244 618 238 c 1
 592 235 566 226 566 193 c 2
 566 86 l 2
 566 76 571 69 581 60 c 1
 530 16 451 -10 345 -10 c 0
 155 -10 35 112 35 292 c 0
 35 538 197 625 359 625 c 0
488 806 m 1
 482 735 418 693 352 693 c 0
 279 693 221 736 216 806 c 1
 244 806 l 1
 252 767 299 745 352 745 c 0
 401 745 453 767 460 806 c 1
 488 806 l 1
EndSplineSet
Substitution2: "'c2sc' Versale nach Kapitaelchen 1" gbreve.sc
EndChar

StartChar: gbreve
Encoding: 287 287 52
Width: 640
VWidth: 999
Flags: HW
HStem: -237 37<195.546 392.005> -16 64<178.237 328.601> -12 68<231.008 465.547> 153 37<225.717 356.611> 453 37<212.644 346.592> 466 50<453.95 546.607> 580 57<215.292 347.981>
VStem: 57 77<-155.932 -66.9185> 86 91<245.448 400.08> 105 59<63.7669 168.039> 145 27<692.641 718.111> 388 27<691.798 718.111> 395 89<241.523 405.9> 511 64<-125.597 -49.4068>
LayerCount: 2
Fore
SplineSet
172 727 m 1
 183 674 226 637 280 637 c 0
 332 637 378 669 388 727 c 1
 415 715 l 1
 403 629 339 580 280 580 c 0
 210 580 159 630 145 715 c 1
 172 727 l 1
402 312 m 0
 402 405 364 453 283 453 c 0
 213 453 184 416 184 338 c 0
 184 267 204 190 298 190 c 0
 348 190 402 208 402 312 c 0
183 -10 m 1
 151 -49 141 -69 141 -103 c 0
 141 -171 225 -200 288 -200 c 0
 393 -200 518 -162 518 -90 c 0
 518 -64 506 -52 461 -27 c 0
 427 -9 374 -12 315 -12 c 0
 298 -12 267 -16 230 -16 c 0
 215 -16 195 -13 183 -10 c 1
541 433 m 0
 529 433 514 444 510 453 c 1
 503 463 495 466 487 466 c 0
 473 466 451 450 443 439 c 1
 475 406 491 375 491 323 c 0
 491 214 400 153 292 153 c 0
 249 153 213 160 186 176 c 1
 173 157 171 133 171 111 c 0
 171 63 210 48 244 48 c 0
 250 48 262 49 280 50 c 0
 308 53 337 56 358 56 c 0
 401 56 484 55 529 19 c 0
 563 -8 582 -32 582 -64 c 0
 582 -172 413 -237 254 -237 c 0
 164 -237 64 -210 64 -123 c 0
 64 -80 103 -38 163 -2 c 1
 134 12 112 44 112 84 c 0
 112 122 125 169 156 196 c 1
 125 226 93 261 93 321 c 0
 93 424 184 490 293 490 c 0
 369 490 406 468 419 459 c 1
 448 497 502 516 531 516 c 0
 561 516 582 498 582 475 c 0
 582 453 562 433 541 433 c 0
EndSplineSet
Substitution2: "'smcp' Gemeine nach Kapitaelchen 1" gbreve.sc
AlternateSubs2: "LinLibertine-'aalt' Alle Alternativen zeigen 1" gbreve.sc
EndChar

StartChar: Gdotaccent
Encoding: 288 288 53
Width: 640
VWidth: 999
Flags: HW
HStem: -10 37<284.556 457.265> 251 37<399.308 464.271 575.598 620.692> 621 37<269.119 436.04> 711 104<314.542 397.458>
VStem: 35 97<201.486 441.997> 304 104<721.542 804.458> 472 94<63.4212 242.114> 530 35<459.455 511.556>
LayerCount: 2
Fore
SplineSet
304 763 m 0
 304 791 328 815 356 815 c 0
 384 815 408 791 408 763 c 0
 408 735 384 711 356 711 c 0
 328 711 304 735 304 763 c 0
359 625 m 0
 469 625 492 596 546 596 c 1
 552 528 557 480 565 440 c 1
 555 434 542 433 530 434 c 1
 507 516 477 590 347 590 c 0
 231 590 132 499 132 311 c 0
 132 156 203 28 366 28 c 0
 415 28 445 35 472 53 c 1
 472 193 l 2
 472 231 431 234 382 238 c 1
 377 244 377 268 382 274 c 1
 424 273 489 272 524 272 c 0
 560 272 591 273 618 274 c 1
 623 268 623 244 618 238 c 1
 592 235 566 226 566 193 c 2
 566 86 l 2
 566 76 571 69 581 60 c 1
 530 16 451 -10 345 -10 c 0
 155 -10 35 112 35 292 c 0
 35 538 197 625 359 625 c 0
EndSplineSet
EndChar

StartChar: gdotaccent
Encoding: 289 289 54
Width: 640
VWidth: 999
Flags: HW
HStem: -237 37<195.546 392.005> -16 64<178.237 328.601> -12 68<231.008 465.547> 153 37<225.717 356.611> 453 37<212.644 346.592> 466 50<453.95 546.607> 590 115<249.017 331.153>
VStem: 57 77<-155.932 -66.9185> 86 91<245.448 400.08> 105 59<63.7669 168.039> 234 112<604.714 689.88> 395 89<241.523 405.9> 511 64<-125.597 -49.4068>
LayerCount: 2
Fore
SplineSet
234 650 m 0
 234 678 265 705 292 705 c 0
 322 705 346 673 346 645 c 0
 346 621 319 590 288 590 c 0
 261 590 234 620 234 650 c 0
402 312 m 0
 402 405 364 453 283 453 c 0
 213 453 184 416 184 338 c 0
 184 267 204 190 298 190 c 0
 348 190 402 208 402 312 c 0
183 -10 m 1
 151 -49 141 -69 141 -103 c 0
 141 -171 225 -200 288 -200 c 0
 393 -200 518 -162 518 -90 c 0
 518 -64 506 -52 461 -27 c 0
 427 -9 374 -12 315 -12 c 0
 298 -12 267 -16 230 -16 c 0
 215 -16 195 -13 183 -10 c 1
541 433 m 0
 529 433 514 444 510 453 c 1
 503 463 495 466 487 466 c 0
 473 466 451 450 443 439 c 1
 475 406 491 375 491 323 c 0
 491 214 400 153 292 153 c 0
 249 153 213 160 186 176 c 1
 173 157 171 133 171 111 c 0
 171 63 210 48 244 48 c 0
 250 48 262 49 280 50 c 0
 308 53 337 56 358 56 c 0
 401 56 484 55 529 19 c 0
 563 -8 582 -32 582 -64 c 0
 582 -172 413 -237 254 -237 c 0
 164 -237 64 -210 64 -123 c 0
 64 -80 103 -38 163 -2 c 1
 134 12 112 44 112 84 c 0
 112 122 125 169 156 196 c 1
 125 226 93 261 93 321 c 0
 93 424 184 490 293 490 c 0
 369 490 406 468 419 459 c 1
 448 497 502 516 531 516 c 0
 561 516 582 498 582 475 c 0
 582 453 562 433 541 433 c 0
EndSplineSet
EndChar

StartChar: Gcommaaccent
Encoding: 290 290 55
Width: 640
VWidth: 999
Flags: HW
HStem: -226 24<326.315 356.976> -123 82<331.324 396.34> -10 37<284.556 457.265> 251 37<399.308 464.271 575.598 620.692> 621 37<269.119 436.04>
VStem: 35 97<201.486 441.997> 398 39<-177.408 -99.958> 472 94<63.4212 242.114> 530 35<459.455 511.556>
LayerCount: 2
Fore
SplineSet
359 625 m 0
 469 625 492 596 546 596 c 1
 552 528 557 480 565 440 c 1
 555 434 542 433 530 434 c 1
 507 516 477 590 347 590 c 0
 231 590 132 499 132 311 c 0
 132 156 203 28 366 28 c 0
 415 28 445 35 472 53 c 1
 472 193 l 2
 472 231 431 234 382 238 c 1
 377 244 377 268 382 274 c 1
 424 273 489 272 524 272 c 0
 560 272 591 273 618 274 c 1
 623 268 623 244 618 238 c 1
 592 235 566 226 566 193 c 2
 566 86 l 2
 566 76 571 69 581 60 c 1
 530 16 451 -10 345 -10 c 0
 155 -10 35 112 35 292 c 0
 35 538 197 625 359 625 c 0
375 -41 m 0
 413 -41 437 -75 437 -127 c 0
 437 -187 388 -217 331 -226 c 1
 325 -220 323 -211 323 -202 c 1
 372 -191 398 -167 398 -149 c 0
 398 -129 385 -125 367 -123 c 1
 350 -120 325 -111 325 -84 c 0
 325 -60 346 -41 375 -41 c 0
EndSplineSet
EndChar

StartChar: gcommaaccent
Encoding: 291 291 56
Width: 640
VWidth: 999
Flags: HW
HStem: -237 37<195.546 392.005> -16 64<178.237 328.601> -12 68<231.008 465.547> 153 37<225.717 356.611> 453 37<212.644 346.592> 466 50<453.95 546.607> 562 82<260.44 332.661> 724 20<306.927 335.524>
VStem: 57 77<-155.932 -66.9185> 86 91<245.448 400.08> 105 59<63.7669 168.039> 226 34<617 692.371> 395 89<241.523 405.9> 511 64<-125.597 -49.4068>
LayerCount: 2
Fore
SplineSet
402 312 m 0
 402 405 364 453 283 453 c 0
 213 453 184 416 184 338 c 0
 184 267 204 190 298 190 c 0
 348 190 402 208 402 312 c 0
183 -10 m 1
 151 -49 141 -69 141 -103 c 0
 141 -171 225 -200 288 -200 c 0
 393 -200 518 -162 518 -90 c 0
 518 -64 506 -52 461 -27 c 0
 427 -9 374 -12 315 -12 c 0
 298 -12 267 -16 230 -16 c 0
 215 -16 195 -13 183 -10 c 1
541 433 m 0
 529 433 514 444 510 453 c 1
 503 463 495 466 487 466 c 0
 473 466 451 450 443 439 c 1
 475 406 491 375 491 323 c 0
 491 214 400 153 292 153 c 0
 249 153 213 160 186 176 c 1
 173 157 171 133 171 111 c 0
 171 63 210 48 244 48 c 0
 250 48 262 49 280 50 c 0
 308 53 337 56 358 56 c 0
 401 56 484 55 529 19 c 0
 563 -8 582 -32 582 -64 c 0
 582 -172 413 -237 254 -237 c 0
 164 -237 64 -210 64 -123 c 0
 64 -80 103 -38 163 -2 c 1
 134 12 112 44 112 84 c 0
 112 122 125 169 156 196 c 1
 125 226 93 261 93 321 c 0
 93 424 184 490 293 490 c 0
 369 490 406 468 419 459 c 1
 448 497 502 516 531 516 c 0
 561 516 582 498 582 475 c 0
 582 453 562 433 541 433 c 0
287 562 m 0
 248 562 225 599 225 635 c 0
 225 659 232 681 248 701 c 0
 264.9 722.1 293 739 331 744 c 1
 335 740 336 731 336 724 c 1
 279 712 259 680 259 657 c 0
 259 637.4 263.8 644 288 644 c 0
 328 644 338 620 338 603 c 0
 338 587 322 562 287 562 c 0
EndSplineSet
EndChar

StartChar: Hcircumflex
Encoding: 292 292 57
Width: 640
VWidth: 999
Flags: HW
HStem: -2 37<15.77 73.3887 184.195 256.23 383.77 455.805 566.24 624.23> 321 42<172 468> 610 37<15.77 78.9854 182.336 256.23 383.77 457.664 564.839 624.23>
VStem: 82 90<44.8314 321 363 601.702> 198 243 468 90<45.1717 321 363 601.369>
LayerCount: 2
Fore
SplineSet
338 806 m 1
 368 770 405 736 441 709 c 1
 438.2 699.9 434.1 691.8 425 688 c 1
 386 706 352 724 319 749 c 1
 282 722 250 705 212 688 c 1
 203 694 200 700 198 709 c 1
 235 737 268 772 299 806 c 1
 313 814.4 322.6 813.7 338 806 c 1
548 122 m 2
 548 43 551 38 621 35 c 1
 627 29 627 4 621 -2 c 1
 577 -1 531 0 502 0 c 0
 472 0 428 -1 387 -2 c 1
 381 4 381 29 387 35 c 1
 454 38 458 43 458 122 c 2
 458 305 l 1
 182 305 l 1
 182 122 l 2
 182 43 185 38 253 35 c 1
 259 29 259 4 253 -2 c 1
 211 -1 167 0 139 0 c 0
 108 0 62 -1 19 -2 c 1
 13 4 13 29 19 35 c 1
 90 39 91.8 43 92 122 c 2
 93 495 l 2
 93.2 570 92 575 20 578 c 1
 14 584 14 609 20 615 c 1
 63 614 107 613 139 613 c 0
 165 613 211 614 254 615 c 1
 260 609 260 584 254 578 c 1
 186 575 183 570 183 495 c 2
 182 345 l 1
 458 345 l 1
 458 495 l 2
 458 571 457 575 387 578 c 1
 381 584 381 609 387 615 c 1
 431 614 477 613 501 613 c 0
 525 613 578 614 621 615 c 1
 627 609 627 584 621 578 c 1
 551 574 548 569 548 495 c 2
 548 122 l 2
EndSplineSet
EndChar

StartChar: hcircumflex
Encoding: 293 293 58
Width: 640
VWidth: 999
Flags: HW
HStem: -2 37<31.0005 103.121 209.593 264 381.308 436.863 547.234 612.692> 434 56<317.632 424.174> 641 30<26.0654 97.676> 678 20<179.5 196.5>
VStem: 114 87<43.6131 362.493 389 631.836> 446 87<46.6228 412.453>
LayerCount: 2
Fore
SplineSet
389.3 733.9 m 1
 415.4 684.6 455 628.9 487.4 586.9 c 1
 482.9 579.6 473.1 571.1 464.7 569.1 c 1
 430.5 594.3 401 621.7 374 654.2 c 1
 345.2 620.6 317.5 592.2 282.4 569.1 c 1
 274.3 571.2 266 577.4 260.6 586.9 c 1
 293 628.9 334.4 685.6 360.5 733.9 c 1
 370.1 736.3 379.7 737.1 389.3 733.9 c 1
201 316.9 m 2
 201 122 l 2
 201 40 210 39 260.8 35 c 1
 266.8 29 266.8 4 260.8 -2 c 1
 230.7 -1 197 0 158 0 c 0
 115 0 73.3 -1 34.2 -2 c 1
 28.2 4 28.2 29 34.2 35 c 1
 101 37 114 39 114 122 c 2
 114 559 l 2
 114 634 107 639 36 641 c 1
 30 647 28 663 30 671 c 1
 70 674 167 688 192 698 c 1
 201 698 205 695 205 688 c 2
 205 688 201.3 648 201 583 c 2
 200.2 400 l 2
 200.2 386 206.6 389.2 210 393 c 0
 271 461 347 490 419 490 c 0
 454 490 489.2 478 506 456 c 0
 529.3 425.5 533 377 533 322 c 2
 533 122 l 2
 533 42 551 40 610 35 c 1
 615 29 615 4 610 -2 c 1
 567 -1 522 0 490 0 c 0
 456 0 419.3 -1 384 -2 c 1
 379 4 379 29 384 35 c 1
 436 40 446 41 446 122 c 2
 446 321 l 2
 446 351 444 378.2 434 398 c 0
 422.4 420.9 401.4 434 381 434 c 0
 320 434 256 396.3 218 359 c 0
 210 350.3 201 338 201 316.9 c 2
EndSplineSet
EndChar

StartChar: Hbar
Encoding: 294 294 59
Width: 640
VWidth: 999
Flags: HW
HStem: -2 37<15.77 83.6971 189.616 256.23 383.77 450.047 555.802 624.23> 305 40<182 458> 486 33<1 636> 578 37<16.77 85.9533 190.616 257.23 383.77 451.058 556.569 624.23>
VStem: 92 90<42.351 305 345 570.835> 458 90<41.7273 305 345 570.459>
LayerCount: 2
Fore
SplineSet
548 122 m 2
 548 43 551 38 621 35 c 1
 627 29 627 4 621 -2 c 1
 577 -1 531 0 502 0 c 0
 472 0 428 -1 387 -2 c 1
 381 4 381 29 387 35 c 1
 454 38 458 43 458 122 c 2
 458 305 l 1
 182 305 l 1
 182 122 l 2
 182 43 185 38 253 35 c 1
 259 29 259 4 253 -2 c 1
 211 -1 167 0 139 0 c 0
 108 0 62 -1 19 -2 c 1
 13 4 13 29 19 35 c 1
 90 39 91.8 43 92 122 c 2
 93 486 l 1
 1 486 l 1
 1 519 l 1
 92.9 519 l 1
 91.9 571.2 83.4 575.4 20 578 c 1
 14 584 14 609 20 615 c 1
 63 614 107 613 139 613 c 0
 165 613 211 614 254 615 c 1
 260 609 260 584 254 578 c 1
 194.1 575.4 184.6 571.2 183.2 519 c 1
 457.8 519 l 1
 456.8 571.9 448.7 575.4 387 578 c 1
 381 584 381 609 387 615 c 1
 431 614 477 613 501 613 c 0
 525 613 578 614 621 615 c 1
 627 609 627 584 621 578 c 1
 559.5 574.5 549.7 570.2 548.2 519 c 1
 636 519 l 1
 636 486 l 1
 548 486 l 1
 548 122 l 2
458 486 m 1
 182.9 486 l 1
 182 345 l 1
 458 345 l 1
 458 486 l 1
EndSplineSet
EndChar

StartChar: hbar
Encoding: 295 295 60
Width: 640
VWidth: 999
Flags: HW
HStem: -2 37<31.0005 103.121 209.593 264 381.308 436.863 547.234 612.692> 434 56<317.632 424.174> 526 50<10.8907 287.59> 641 30<26.0654 97.676> 678 20<179.5 196.5>
VStem: 114 87<43.6131 362.493 389 631.836> 446 87<46.6228 412.453>
LayerCount: 2
Fore
SplineSet
201 316.9 m 2
 201 122 l 2
 201 40 210 39 260.8 35 c 1
 266.8 29 266.8 4 260.8 -2 c 1
 230.7 -1 197 0 158 0 c 0
 115 0 73.3 -1 34.2 -2 c 1
 28.2 4 28.2 29 34.2 35 c 1
 101 37 114 39 114 122 c 2
 114 526 l 1
 22 526 l 2
 13 526 9 537 9 544 c 0
 9 556 20 576 31 576 c 2
 113.8 576 l 1
 112.4 634.8 101.2 639.2 36 641 c 1
 30 647 28 663 30 671 c 1
 70 674 167 688 192 698 c 1
 201 698 205 695 205 688 c 2
 205 688 201.3 648 201 583 c 2
 201 576 l 1
 276 576 l 2
 286 576 290 565 290 559 c 0
 290 547 279 526 266 526 c 2
 200.8 526 l 1
 200.2 400 l 2
 200.2 386 206.6 389.2 210 393 c 0
 271 461 347 490 419 490 c 0
 454 490 489.2 478 506 456 c 0
 529.3 425.5 533 377 533 322 c 2
 533 122 l 2
 533 42 551 40 610 35 c 1
 615 29 615 4 610 -2 c 1
 567 -1 522 0 490 0 c 0
 456 0 419.3 -1 384 -2 c 1
 379 4 379 29 384 35 c 1
 436 40 446 41 446 122 c 2
 446 321 l 2
 446 351 444 378.2 434 398 c 0
 422.4 420.9 401.4 434 381 434 c 0
 320 434 256 396.3 218 359 c 0
 210 350.3 201 338 201 316.9 c 2
EndSplineSet
EndChar

StartChar: Itilde
Encoding: 296 296 61
Width: 640
VWidth: 999
Flags: HW
HStem: -2 37<134.77 261.369 393.106 520.23> 610 37<134.77 261.544 393.281 520.23> 699 53<323.461 413.486> 750 55<212.759 305.68>
VStem: 281 93<51.4731 593.345> 426 27<773.983 801.365>
LayerCount: 2
Fore
SplineSet
379 752 m 0
 401 752 412 762 426 804 c 1
 437 805 447 802 453 798 c 1
 441 738 412 699 366 699 c 0
 344 699 322 715 302 731 c 0
 285.5 744.2 265 750 248 750 c 0
 222 750 212 735 202 702 c 1
 191 700 181 701 175 707 c 1
 189 766 212 805 255 805 c 0
 285 805 308.5 786.9 327 771 c 0
 341.3 758.7 360 752 379 752 c 0
374 122 m 2
 374 45 381 39 527 35 c 1
 533 29 533 4 527 -2 c 1
 477 -1 405.6 0 328 0 c 0
 250 0 177 -1 128 -2 c 1
 122 4 122 29 128 35 c 1
 276 39 281 44 281 122 c 2
 281 491 l 2
 281 568 275 573 128 578 c 1
 122 584 122 610 128 616 c 1
 178 615 283 613 327 613 c 0
 373.5 613 478 615 527 616 c 1
 533 610 533 584 527 578 c 1
 379 574 374 568 374 491 c 2
 374 122 l 2
EndSplineSet
EndChar

StartChar: itilde
Encoding: 297 297 62
Width: 640
VWidth: 999
Flags: HW
HStem: -2 37<95.77 264.608 407.599 567.23> 430 33<139.695 282.188> 589 53<338.461 428.486> 640 55<227.759 320.68>
VStem: 293 87<57.5216 420.403> 441 27<663.983 691.365>
AnchorPoint: "unten_anhang" 142 -2 basechar 0
AnchorPoint: "unten_punkt" 136 -110 basechar 0
AnchorPoint: "top_akzent" 139 795 basechar 0
LayerCount: 2
Fore
SplineSet
394 642 m 0
 416 642 427 652 441 694 c 1
 452 695 462 692 468 688 c 1
 456 628 427 589 381 589 c 0
 359 589 337 605 317 621 c 0
 300.5 634.2 280 640 263 640 c 0
 237 640 227 625 217 592 c 1
 206 590 196 591 190 597 c 1
 204 656 227 695 270 695 c 0
 300 695 323.5 676.9 342 661 c 0
 356.3 648.7 375 642 394 642 c 0
380 134 m 2
 380 86 383 67 398 57 c 0
 409 49 510 37 564 35 c 1
 570 29 570 4 564 -2 c 1
 521 -1 380 0 338 0 c 0
 293 0 141 -1 99 -2 c 1
 93 4 93 29 99 35 c 1
 148 37 264 49 275 57 c 0
 289 68 293 87 293 134 c 2
 293 364 l 2
 293 390 291.5 403 282 415 c 0
 273.2 426.1 237.5 428 142 430 c 1
 138 438 137 454.5 140 463 c 1
 183.8 465.8 268.6 473.7 314.2 481.9 c 0
 341 486.7 368.8 493 380 493 c 0
 386.8 493 394 486.5 394 480 c 0
 394 456.5 380 439.8 380 372 c 2
 380 134 l 2
EndSplineSet
EndChar

StartChar: Imacron
Encoding: 298 298 63
Width: 640
VWidth: 999
Flags: HW
HStem: -2 37<134.77 261.369 393.106 520.23> 610 37<134.77 261.544 393.281 520.23>
VStem: 281 93<51.4731 593.345>
LayerCount: 2
Fore
SplineSet
374 122 m 2
 374 45 381 39 527 35 c 1
 533 29 533 4 527 -2 c 1
 477 -1 405.6 0 328 0 c 0
 250 0 177 -1 128 -2 c 1
 122 4 122 29 128 35 c 1
 276 39 281 44 281 122 c 2
 281 491 l 2
 281 568 275 573 128 578 c 1
 122 584 122 610 128 616 c 1
 178 615 283 613 327 613 c 0
 373.5 613 478 615 527 616 c 1
 533 610 533 584 527 578 c 1
 379 574 374 568 374 491 c 2
 374 122 l 2
EndSplineSet
EndChar

StartChar: imacron
Encoding: 299 299 64
Width: 640
VWidth: 999
Flags: HW
HStem: -2 37<95.77 264.608 407.599 567.23> 430 33<139.695 282.188> 586 50<190.891 447.59>
VStem: 189 261<586.239 636> 293 87<57.5216 420.403>
LayerCount: 2
Fore
SplineSet
426 586 m 2
 202 586 l 2
 193 586 189 597 189 604 c 0
 189 616 200 636 211 636 c 2
 436 636 l 2
 446 636 450 625 450 619 c 0
 450 607 439 586 426 586 c 2
380 134 m 2
 380 86 383 67 398 57 c 0
 409 49 510 37 564 35 c 1
 570 29 570 4 564 -2 c 1
 521 -1 380 0 338 0 c 0
 293 0 141 -1 99 -2 c 1
 93 4 93 29 99 35 c 1
 148 37 264 49 275 57 c 0
 289 68 293 87 293 134 c 2
 293 364 l 2
 293 390 291.5 403 282 415 c 0
 273.2 426.1 237.5 428 142 430 c 1
 138 438 137 454.5 140 463 c 1
 183.8 465.8 268.6 473.7 314.2 481.9 c 0
 341 486.7 368.8 493 380 493 c 0
 386.8 493 394 486.5 394 480 c 0
 394 456.5 380 439.8 380 372 c 2
 380 134 l 2
EndSplineSet
EndChar

StartChar: Ibreve
Encoding: 300 300 65
Width: 640
VWidth: 999
Flags: HW
HStem: -2 37<134.77 261.369 393.106 520.23> 610 37<134.77 261.544 393.281 520.23> 692 52<249.738 407.488> 785 20<193 225 433.5 465>
VStem: 193 28<780.047 805> 281 93<51.4731 593.345> 437 28<779.76 805>
LayerCount: 2
Fore
SplineSet
374 122 m 2
 374 45 381 39 527 35 c 1
 533 29 533 4 527 -2 c 1
 477 -1 405.6 0 328 0 c 0
 250 0 177 -1 128 -2 c 1
 122 4 122 29 128 35 c 1
 276 39 281 44 281 122 c 2
 281 491 l 2
 281 568 275 573 128 578 c 1
 122 584 122 610 128 616 c 1
 178 615 283 613 327 613 c 0
 373.5 613 478 615 527 616 c 1
 533 610 533 584 527 578 c 1
 379 574 374 568 374 491 c 2
 374 122 l 2
465 805 m 1
 459 734 395 692 329 692 c 0
 256 692 198 735 193 805 c 1
 221 805 l 1
 229 766 276 744 329 744 c 0
 378 744 430 766 437 805 c 1
 465 805 l 1
EndSplineSet
EndChar

StartChar: ibreve
Encoding: 301 301 66
Width: 640
VWidth: 999
Flags: HW
HStem: -2 37<95.77 264.608 407.599 567.23> 430 33<139.695 282.188> 580 57<255.292 387.981>
VStem: 185 27<692.641 718.111> 293 87<57.5216 420.403> 428 27<691.798 718.111>
LayerCount: 2
Fore
SplineSet
212 727 m 1
 223 674 266 637 320 637 c 0
 372 637 418 669 428 727 c 1
 455 715 l 1
 443 629 379 580 320 580 c 0
 250 580 199 630 185 715 c 1
 212 727 l 1
380 134 m 2
 380 86 383 67 398 57 c 0
 409 49 510 37 564 35 c 1
 570 29 570 4 564 -2 c 1
 521 -1 380 0 338 0 c 0
 293 0 141 -1 99 -2 c 1
 93 4 93 29 99 35 c 1
 148 37 264 49 275 57 c 0
 289 68 293 87 293 134 c 2
 293 364 l 2
 293 390 291.5 403 282 415 c 0
 273.2 426.1 237.5 428 142 430 c 1
 138 438 137 454.5 140 463 c 1
 183.8 465.8 268.6 473.7 314.2 481.9 c 0
 341 486.7 368.8 493 380 493 c 0
 386.8 493 394 486.5 394 480 c 0
 394 456.5 380 439.8 380 372 c 2
 380 134 l 2
EndSplineSet
EndChar

StartChar: Iogonek
Encoding: 302 302 67
Width: 640
VWidth: 999
Flags: HW
HStem: -200 38<142.519 225.833> -2 17<214.684 241> -2 37<134.77 261.369 393.106 520.23> 610 37<134.77 261.544 393.281 520.23>
VStem: 73 62<-155.299 -63.1465> 281 93<51.4731 593.345>
AnchorPoint: "top_akzent" 326 850 basechar 0
LayerCount: 2
Fore
SplineSet
441 -135 m 1
 412 -180 372 -200 331 -200 c 0
 281 -200 243 -180 243 -126 c 0
 243 -84.4 278.8 -26.9 339.4 -0 c 1
 335.6 0 331.8 0 328 0 c 0
 250 0 177 -1 128 -2 c 1
 122 4 122 29 128 35 c 1
 276 39 281 44 281 122 c 2
 281 491 l 2
 281 568 275 573 128 578 c 1
 122 584 122 610 128 616 c 1
 178 615 283 613 327 613 c 0
 373.5 613 478 615 527 616 c 1
 533 610 533 584 527 578 c 1
 379 574 374 568 374 491 c 2
 374 122 l 2
 374 45 381 39 527 35 c 1
 533 29 533 4 527 -2 c 1
 498.6 -1.4 463.2 -0.9 423.7 -0.5 c 1
 425 -2 l 1
 354 -2 305 -69 305 -115 c 0
 305 -141 318 -162 355 -162 c 0
 384 -162 400 -146 422 -124 c 1
 431 -124 437 -128 441 -135 c 1
EndSplineSet
EndChar

StartChar: iogonek
Encoding: 303 303 68
Width: 640
VWidth: 999
Flags: HW
HStem: -200 38<130.519 213.833> -2 17<202.684 229> -2 37<95.77 264.608 95.77 264.608 407.599 567.23 407.599 567.23> 430 33<139.695 282.188 139.695 282.188> 590 115<289.017 371.153 289.017 371.153>
VStem: 61 62<-155.299 -63.1465> 274 112<604.714 689.88 604.714 689.88> 293 87<57.5216 420.403 57.5216 420.403>
AnchorPoint: "top_akzent" 332 825 basechar 0
LayerCount: 2
Fore
SplineSet
419 -135 m 1
 390 -180 350 -200 309 -200 c 0
 259 -200 221 -180 221 -126 c 0
 221 -84.5 256.8 -26.9 317.3 -0 c 1
 257.7 -0.2 135.9 -1.1 99 -2 c 1
 93 4 93 29 99 35 c 1
 148 37 264 49 275 57 c 0
 289 68 293 87 293 134 c 2
 293 364 l 2
 293 390 291.5 403 282 415 c 0
 273.2 426.1 237.5 428 142 430 c 1
 138 438 137 454.5 140 463 c 1
 183.8 465.8 268.6 473.7 314.2 481.9 c 0
 341 486.7 368.8 493 380 493 c 0
 386.8 493 394 486.5 394 480 c 0
 394 456.5 380 439.8 380 372 c 2
 380 134 l 2
 380 86 383 67 398 57 c 0
 409 49 510 37 564 35 c 1
 570 29 570 4 564 -2 c 1
 534.6 -1.3 459.6 -0.7 401.6 -0.3 c 1
 403 -2 l 1
 332 -2 283 -69 283 -115 c 0
 283 -141 296 -162 333 -162 c 0
 362 -162 378 -146 400 -124 c 1
 409 -124 415 -128 419 -135 c 1
274 650 m 0
 274 678 305 705 332 705 c 0
 362 705 386 673 386 645 c 0
 386 621 359 590 328 590 c 0
 301 590 274 620 274 650 c 0
EndSplineSet
EndChar

StartChar: Idotaccent
Encoding: 304 304 69
Width: 640
VWidth: 999
Flags: HW
HStem: -2 37<134.77 261.369 393.106 520.23> 610 37<134.77 261.544 393.281 520.23> 701 104<284.542 367.458>
VStem: 274 104<711.542 794.458> 281 93<51.4731 593.345>
LayerCount: 2
Fore
SplineSet
274 753 m 0
 274 781 298 805 326 805 c 0
 354 805 378 781 378 753 c 0
 378 725 354 701 326 701 c 0
 298 701 274 725 274 753 c 0
374 122 m 2
 374 45 381 39 527 35 c 1
 533 29 533 4 527 -2 c 1
 477 -1 405.6 0 328 0 c 0
 250 0 177 -1 128 -2 c 1
 122 4 122 29 128 35 c 1
 276 39 281 44 281 122 c 2
 281 491 l 2
 281 568 275 573 128 578 c 1
 122 584 122 610 128 616 c 1
 178 615 283 613 327 613 c 0
 373.5 613 478 615 527 616 c 1
 533 610 533 584 527 578 c 1
 379 574 374 568 374 491 c 2
 374 122 l 2
EndSplineSet
Substitution2: "'c2sc' Versale nach Kapitaelchen 1" idotaccent.sc
EndChar

StartChar: uni1E00
Encoding: 7680 7680 70
Width: 640
VWidth: 999
Flags: HW
HStem: -2 37<3.77002 62.66 147.371 217.23 386.77 464.829 576.631 628.23> 241 42<220.394 396> 638 20<345.5 360.254>
DStem2: 92.9834 106 145 83 0.347283 0.93776<-33.7773 172.442 217.729 411.687> 290 638 300 555 0.347283 0.93776<-526.496 -404.391 -354.396 -74.3613> 353 658 302 555 0.340946 -0.940083<79.4403 367.192 411.789 606.599>
LayerCount: 2
Fore
SplineSet
243 269 m 2
 396 269 l 1
 302 527 l 1
 300 527 l 1
 218 282 l 2
 215 272 221 269 243 269 c 2
145 79 m 2
 132 40.3 176 37 214 35 c 1
 220 29 220 4 214 -2 c 1
 177 -1 135 0 96 0 c 0
 69.3 0 35 -1 7 -2 c 1
 1 4 1 29 7 35 c 1
 51 38 70 43 93 101 c 2
 290 606 l 1
 303 606 338 616 353 625 c 1
 559 86 l 2
 577 40 586 38 625 35 c 1
 631 29 631 4 625 -2 c 1
 595.3 -1 562 0 521 0 c 0
 482 0 427 -1 390 -2 c 1
 384 4 384 29 390 35 c 1
 438 38 481 44 470 72 c 2
 411 229 l 1
 225 229 l 2
 201 229 195 227 190 213 c 2
 145 79 l 2
EndSplineSet
LCarets2: 1 0 
EndChar

StartChar: uni1E01
Encoding: 7681 7681 71
Width: 640
VWidth: 999
Flags: HW
HStem: -10 45<189.939 332.477> -10 56<458.5 577.484> 450 40<215.232 370.699>
VStem: 64 99<61.1687 171.07> 103 94<333.221 414.639> 414 80<116 250> 416 85<286.05 402.415>
DStem2: 276 264 294 227 0.985981 0.166858<-78.9702 133.609>
LayerCount: 2
Fore
SplineSet
414 250 m 1
 294 227 l 2
 209.2 210.8 163 168 163 112 c 0
 163 78 188 35 255 35 c 0
 292 35 353 63 387 85 c 0
 397 92 406.2 100.9 407 116 c 2
 414 250 l 1
407 55 m 1
 404 55 l 1
 376 36 l 1
 317 -1 286 -10 225 -10 c 0
 133 -10 64 22 64 107 c 0
 64 181 133.7 239.9 276 264 c 2
 406 286 l 2
 409 287 416 292 416 300 c 0
 416 422 361 450 307 450 c 0
 258 450 197 438 197 403 c 0
 197 391 198 384 199 381 c 0
 201 377 203 368 203 360 c 0
 203 346 179 328 148 328 c 0
 122 328 103 340 103 367 c 0
 103 427 212 490 317 490 c 0
 411 490 510.8 459.5 501 302 c 1
 494 141 l 2
 491.8 91 505 46 555 46 c 0
 582 46 586 64 594 64 c 0
 600 64 611 53 611 45 c 0
 611 33.6 569 -10 493 -10 c 0
 424 -10 412 21 407 55 c 1
EndSplineSet
LCarets2: 1 0 
EndChar

StartChar: uni1E02
Encoding: 7682 7682 72
Width: 640
VWidth: 999
Flags: HW
HStem: -2 37<39.77 112.478 229.133 428.358> 332 34<215 390.547> 610 37<39.77 110.712 223.12 385.973>
VStem: 122 93<47.1335 332 366 600.258> 441 81<427.388 564.488> 488 93<91.4676 254.77>
LayerCount: 2
Fore
SplineSet
215 536 m 2
 215 348 l 1
 309 348 l 2
 392 348 441 376 441 457 c 0
 441 554 378 578 322 578 c 0
 235 578 215 567 215 536 c 2
215 315 m 1
 215 95 l 2
 215 39 248 35 318 35 c 0
 470 35 488 88 488 157 c 0
 488 243 441 315 304 315 c 2
 215 315 l 1
172 613 m 0
 215 613 282 616 317 616 c 0
 503 616 522 532 522 468 c 0
 522 416 477 368 427 344 c 1
 427 342 l 1
 514 318 581 266 581 175 c 0
 581 93 538 -2 339 -2 c 0
 250 -2 216 0 173 0 c 0
 122.3 0 92 -1 43 -2 c 1
 37 4 37 29 43 35 c 1
 113 38 122 39 122 118 c 2
 122 491 l 2
 122 570 113 575 43 578 c 1
 37 584 37 609 43 615 c 1
 81.7 614 121.7 613 172 613 c 0
EndSplineSet
LCarets2: 1 0 
EndChar

StartChar: uni1E03
Encoding: 7683 7683 73
Width: 640
VWidth: 999
Flags: HW
HStem: -10 40<223.677 398.994> 444 46<251.057 394.057> 641 30<15.0654 86.676> 678 20<168.5 185.5>
VStem: 103 87<55.3001 396.665 439.742 632.339> 483 96<152.727 342.666>
LayerCount: 2
Fore
SplineSet
224 406 m 0
 208.4 395 190 382 190 359 c 2
 190 71 l 1
 210 46 283 30 321 30 c 0
 438 30 483 124 483 251 c 0
 483 359 404 444 329 444 c 0
 281 444 255 427.8 224 406 c 0
206 440 m 0
 246 470.8 289 490 353 490 c 0
 460 490 579 407 579 271 c 0
 579 94 454 -10 329 -10 c 0
 286 -10 216.1 -0.299999 185.3 18 c 0
 160.1 33 154.3 32.8 135 12 c 0
 122 -2 110.6 -10 101.3 -16 c 1
 91.3 -15.5 85 -8 80 0 c 1
 95.5 20.5 103 45.5 103 101 c 2
 103 559 l 2
 103 637 90 638 19 641 c 1
 13 647 11 663 13 671 c 1
 53 674 156 688 181 698 c 1
 190 698 194 695 194 688 c 2
 194 688 190 647 190 583 c 2
 190 456 l 2
 190 436 198.7 434.4 206 440 c 0
EndSplineSet
LCarets2: 1 0 
EndChar

StartChar: uni1E04
Encoding: 7684 7684 74
Width: 640
VWidth: 999
Flags: HW
HStem: -2 37<39.77 112.478 229.133 428.358> 332 34<215 390.547> 610 37<39.77 110.712 223.12 385.973>
VStem: 122 93<47.1335 332 366 600.258> 441 81<427.388 564.488> 488 93<91.4676 254.77>
LayerCount: 2
Fore
SplineSet
215 536 m 2
 215 348 l 1
 309 348 l 2
 392 348 441 376 441 457 c 0
 441 554 378 578 322 578 c 0
 235 578 215 567 215 536 c 2
215 315 m 1
 215 95 l 2
 215 39 248 35 318 35 c 0
 470 35 488 88 488 157 c 0
 488 243 441 315 304 315 c 2
 215 315 l 1
172 613 m 0
 215 613 282 616 317 616 c 0
 503 616 522 532 522 468 c 0
 522 416 477 368 427 344 c 1
 427 342 l 1
 514 318 581 266 581 175 c 0
 581 93 538 -2 339 -2 c 0
 250 -2 216 0 173 0 c 0
 122.3 0 92 -1 43 -2 c 1
 37 4 37 29 43 35 c 1
 113 38 122 39 122 118 c 2
 122 491 l 2
 122 570 113 575 43 578 c 1
 37 584 37 609 43 615 c 1
 81.7 614 121.7 613 172 613 c 0
EndSplineSet
LCarets2: 1 0 
EndChar

StartChar: uni1E05
Encoding: 7685 7685 75
Width: 640
VWidth: 999
Flags: HW
HStem: -10 40<223.677 398.994> 444 46<251.057 394.057> 641 30<15.0654 86.676> 678 20<168.5 185.5>
VStem: 103 87<55.3001 396.665 439.742 632.339> 483 96<152.727 342.666>
LayerCount: 2
Fore
SplineSet
224 406 m 0
 208.4 395 190 382 190 359 c 2
 190 71 l 1
 210 46 283 30 321 30 c 0
 438 30 483 124 483 251 c 0
 483 359 404 444 329 444 c 0
 281 444 255 427.8 224 406 c 0
206 440 m 0
 246 470.8 289 490 353 490 c 0
 460 490 579 407 579 271 c 0
 579 94 454 -10 329 -10 c 0
 286 -10 216.1 -0.299999 185.3 18 c 0
 160.1 33 154.3 32.8 135 12 c 0
 122 -2 110.6 -10 101.3 -16 c 1
 91.3 -15.5 85 -8 80 0 c 1
 95.5 20.5 103 45.5 103 101 c 2
 103 559 l 2
 103 637 90 638 19 641 c 1
 13 647 11 663 13 671 c 1
 53 674 156 688 181 698 c 1
 190 698 194 695 194 688 c 2
 194 688 190 647 190 583 c 2
 190 456 l 2
 190 436 198.7 434.4 206 440 c 0
EndSplineSet
LCarets2: 1 0 
EndChar

StartChar: uni1E06
Encoding: 7686 7686 76
Width: 640
VWidth: 999
Flags: HW
HStem: -131 44<137.058 374.638> -2 37<39.77 112.478 229.133 428.358> 332 34<215 390.547> 610 37<39.77 110.712 223.12 385.973>
VStem: 122 93<47.1335 332 366 600.258> 136 240<-130.948 -87> 441 81<427.388 564.488> 488 93<91.4676 254.77>
LayerCount: 2
Fore
SplineSet
215 536 m 2
 215 348 l 1
 309 348 l 2
 392 348 441 376 441 457 c 0
 441 554 378 578 322 578 c 0
 235 578 215 567 215 536 c 2
215 315 m 1
 215 95 l 2
 215 39 248 35 318 35 c 0
 470 35 488 88 488 157 c 0
 488 243 441 315 304 315 c 2
 215 315 l 1
172 613 m 0
 215 613 282 616 317 616 c 0
 503 616 522 532 522 468 c 0
 522 416 477 368 427 344 c 1
 427 342 l 1
 514 318 581 266 581 175 c 0
 581 93 538 -2 339 -2 c 0
 250 -2 216 0 173 0 c 0
 122.3 0 92 -1 43 -2 c 1
 37 4 37 29 43 35 c 1
 113 38 122 39 122 118 c 2
 122 491 l 2
 122 570 113 575 43 578 c 1
 37 584 37 609 43 615 c 1
 81.7 614 121.7 613 172 613 c 0
353 -131 m 2
 148 -131 l 2
 140 -131 136 -123 136 -116 c 0
 136 -104 146 -87 158 -87 c 2
 363 -87 l 2
 372 -87 376 -94 376 -101 c 0
 376 -113 366 -131 353 -131 c 2
EndSplineSet
LCarets2: 1 0 
EndChar

StartChar: uni1E07
Encoding: 7687 7687 77
Width: 640
VWidth: 999
Flags: HW
HStem: -131 44<127.058 364.638> -10 40<223.677 398.994> 444 46<251.057 394.057> 641 30<15.0654 86.676> 678 20<168.5 185.5>
VStem: 103 87<55.3001 396.665 439.742 632.339> 126 240<-130.948 -87> 483 96<152.727 342.666>
LayerCount: 2
Fore
SplineSet
224 406 m 0
 208.4 395 190 382 190 359 c 2
 190 71 l 1
 210 46 283 30 321 30 c 0
 438 30 483 124 483 251 c 0
 483 359 404 444 329 444 c 0
 281 444 255 427.8 224 406 c 0
206 440 m 0
 246 470.8 289 490 353 490 c 0
 460 490 579 407 579 271 c 0
 579 94 454 -10 329 -10 c 0
 286 -10 216.1 -0.299999 185.3 18 c 0
 160.1 33 154.3 32.8 135 12 c 0
 122 -2 110.6 -10 101.3 -16 c 1
 91.3 -15.5 85 -8 80 0 c 1
 95.5 20.5 103 45.5 103 101 c 2
 103 559 l 2
 103 637 90 638 19 641 c 1
 13 647 11 663 13 671 c 1
 53 674 156 688 181 698 c 1
 190 698 194 695 194 688 c 2
 194 688 190 647 190 583 c 2
 190 456 l 2
 190 436 198.7 434.4 206 440 c 0
343 -131 m 2
 138 -131 l 2
 130 -131 126 -123 126 -116 c 0
 126 -104 136 -87 148 -87 c 2
 353 -87 l 2
 362 -87 366 -94 366 -101 c 0
 366 -113 356 -131 343 -131 c 2
EndSplineSet
LCarets2: 1 0 
EndChar

StartChar: uni1E08
Encoding: 7688 7688 78
Width: 640
VWidth: 999
Flags: HW
HStem: -200 29<268.047 368.231> -96 32<343.31 373.355> -20 20<325.667 368> -10 43<279.982 467.685> 618 40<274.824 442.405>
VStem: 42 97<197.961 433.284> 378 62<-165.259 -97.4563> 540 32<454.535 500.162>
DStem2: 294 -96 343 -67 0.384615 0.923077<45.6154 104>
LayerCount: 2
Fore
SplineSet
345 -96 m 0
 326 -96 316 -97 300 -102 c 1
 294 -96 l 1
 330.1 -9.3 l 1
 144.5 1.2 35 134.6 35 290 c 0
 35 470 175 625 362 625 c 0
 473 625 525 587 571 582 c 1
 579 530 587 484 591 435 c 1
 581 429 570 426 559 430 c 1
 536 512 476 587 352 587 c 0
 239 587 132 484 132 308 c 0
 132 169 217 31 353 31 c 0
 437 31 512 62 576 136 c 1
 586 136 599 126 603 117 c 1
 544.4 35.3 448.9 -6.6 364.3 -9.8 c 1
 343 -67 l 1
 351 -65 360 -64 369 -64 c 0
 409 -64 440 -88 440 -126 c 0
 440 -169 394 -200 333 -200 c 0
 301 -200 284 -194 259 -183 c 1
 259 -171 262 -164 269 -157 c 1
 296 -167 307 -171 327 -171 c 0
 357 -171 378 -157 378 -131 c 0
 378 -110 368 -96 345 -96 c 0
EndSplineSet
LCarets2: 1 0 
EndChar

StartChar: uni1E09
Encoding: 7689 7689 79
Width: 640
VWidth: 999
Flags: HW
HStem: -200 29<218.047 318.231> -96 32<293.31 323.355> -20 20<275.667 318> -10 54<268.844 449.688> 449 41<248.269 415.863>
VStem: 76 91<150.633 340.64> 328 62<-165.259 -97.4563> 471 97<323.536 403.626>
DStem2: 244 -96 293 -67 0.384615 0.923077<45.6154 104>
LayerCount: 2
Fore
SplineSet
579 108 m 1
 489 6 405 -10 334 -10 c 0
 327.4 -10 320.9 -9.8 314.5 -9.5 c 1
 293 -67 l 1
 301 -65 310 -64 319 -64 c 0
 359 -64 390 -88 390 -126 c 0
 390 -169 344 -200 283 -200 c 0
 251 -200 234 -194 209 -183 c 1
 209 -171 212 -164 219 -157 c 1
 246 -167 257 -171 277 -171 c 0
 307 -171 328 -157 328 -131 c 0
 328 -110 318 -96 295 -96 c 0
 276 -96 266 -97 250 -102 c 1
 244 -96 l 1
 281.5 -6.1 l 1
 149.4 14.4 76 113.1 76 233 c 0
 76 382 194 490 335 490 c 0
 408.4 490 482.9 466 525 431 c 0
 547.7 412.1 560 388.4 560 367 c 0
 560 329.4 543 310 513 310 c 0
 489 310 467.1 328.1 463 358 c 0
 456 409 399 449 329 449 c 0
 227 449 167 374 167 257 c 0
 167 136 247 44 359 44 c 0
 410 44 487 68 550 133 c 1
 561 132 575 118 579 108 c 1
86 692 m 1
 89 693 95 694 100 694 c 0
 106.4 694 132 693 155 671 c 1
 158 660 l 1
 43 551 l 2
 28 536 20 532 13 532 c 0
 6 532 -1 538 -1 545 c 0
 -1 556.2 2.3 560.2 10.4 573 c 2
 86 692 l 1
EndSplineSet
LCarets2: 1 0 
EndChar

StartChar: uni1E0A
Encoding: 7690 7690 80
Width: 640
VWidth: 999
Flags: HW
HStem: -2 37<35.77 99.1189 211.714 390.37> 610 37<35.77 99.1189 213.923 372.377>
VStem: 109 93<44.366 599.597> 494 97<172.006 459.741>
LayerCount: 2
Fore
SplineSet
182 85 m 2
 182 55 209 35 291 35 c 0
 409 35 500 78 500 270 c 0
 500 458 469 578 271 578 c 0
 230 578 182 563 182 530 c 2
 182 85 l 2
140 613 m 0
 176 613 247 616 302 616 c 0
 478 616 597 513 597 293 c 0
 597 59 435 -2 317 -2 c 0
 231 -2 175 0 141 0 c 0
 93.4 0 65 -1 19 -2 c 1
 13 4 13 29 19 35 c 1
 79 35 89 43 89 122 c 2
 89 491 l 2
 89 570 79 578 19 578 c 1
 13 584 13 609 19 615 c 1
 65 614 92.8 613 140 613 c 0
EndSplineSet
LCarets2: 1 0 
EndChar

StartChar: uni1E0B
Encoding: 7691 7691 81
Width: 640
VWidth: 999
Flags: HW
HStem: -11 52<234.965 357.657> 30 27<556.261 615.639> 449 40<223.849 396.438> 641 30<354.065 425.676> 678 20<507.5 524.5>
VStem: 60 90<141.693 338.359> 442 87<91.7838 412.399 471.001 631.19>
LayerCount: 2
Fore
SplineSet
442 138 m 2
 442 350 l 2
 442 385 439 392 423 410 c 0
 401 436 348 449 306 449 c 0
 283 449 221 446 184 394 c 1
 166 371 150 326 150 246 c 0
 150 107 237 41 301 41 c 0
 331 41 383 59 424 95 c 0
 440 109 442 117 442 138 c 2
430 56 m 0
 375 11 316 -11 270 -11 c 0
 143 -11 60 89 60 226 c 0
 60 309 90 375 141 423 c 1
 189 465 240 489 318 489 c 0
 357 489 428 471 432 471 c 0
 440 471 442 473 442 481 c 2
 442 559 l 2
 442 633.1 430 638.1 358 641 c 1
 352 647 350 663 352 671 c 1
 392 674 495 688 520 698 c 1
 529 698 533 695 533 688 c 2
 533 688 529 648 529 583 c 2
 529 130 l 2
 529 81 537 66.1 612 57 c 1
 618 51 618 36 612 30 c 1
 537 24.1 495 8 473 -10 c 1
 465 -12 462 -13 454 -10 c 1
 454 -10 443 28 443 55 c 0
 443 63 435 60 430 56 c 0
EndSplineSet
LCarets2: 1 0 
EndChar

StartChar: uni1E0C
Encoding: 7692 7692 82
Width: 640
VWidth: 999
Flags: HW
HStem: -2 37<35.77 99.1189 211.714 390.37> 610 37<35.77 99.1189 213.923 372.377>
VStem: 109 93<44.366 599.597> 494 97<172.006 459.741>
LayerCount: 2
Fore
SplineSet
182 85 m 2
 182 55 209 35 291 35 c 0
 409 35 500 78 500 270 c 0
 500 458 469 578 271 578 c 0
 230 578 182 563 182 530 c 2
 182 85 l 2
140 613 m 0
 176 613 247 616 302 616 c 0
 478 616 597 513 597 293 c 0
 597 59 435 -2 317 -2 c 0
 231 -2 175 0 141 0 c 0
 93.4 0 65 -1 19 -2 c 1
 13 4 13 29 19 35 c 1
 79 35 89 43 89 122 c 2
 89 491 l 2
 89 570 79 578 19 578 c 1
 13 584 13 609 19 615 c 1
 65 614 92.8 613 140 613 c 0
EndSplineSet
LCarets2: 1 0 
EndChar

StartChar: uni1E0D
Encoding: 7693 7693 83
Width: 640
VWidth: 999
Flags: HW
HStem: -11 52<234.965 357.657> 30 27<556.261 615.639> 449 40<223.849 396.438> 641 30<354.065 425.676> 678 20<507.5 524.5>
VStem: 60 90<141.693 338.359> 442 87<91.7838 412.399 471.001 631.19>
LayerCount: 2
Fore
SplineSet
442 138 m 2
 442 350 l 2
 442 385 439 392 423 410 c 0
 401 436 348 449 306 449 c 0
 283 449 221 446 184 394 c 1
 166 371 150 326 150 246 c 0
 150 107 237 41 301 41 c 0
 331 41 383 59 424 95 c 0
 440 109 442 117 442 138 c 2
430 56 m 0
 375 11 316 -11 270 -11 c 0
 143 -11 60 89 60 226 c 0
 60 309 90 375 141 423 c 1
 189 465 240 489 318 489 c 0
 357 489 428 471 432 471 c 0
 440 471 442 473 442 481 c 2
 442 559 l 2
 442 633.1 430 638.1 358 641 c 1
 352 647 350 663 352 671 c 1
 392 674 495 688 520 698 c 1
 529 698 533 695 533 688 c 2
 533 688 529 648 529 583 c 2
 529 130 l 2
 529 81 537 66.1 612 57 c 1
 618 51 618 36 612 30 c 1
 537 24.1 495 8 473 -10 c 1
 465 -12 462 -13 454 -10 c 1
 454 -10 443 28 443 55 c 0
 443 63 435 60 430 56 c 0
EndSplineSet
LCarets2: 1 0 
EndChar

StartChar: uni1E0E
Encoding: 7694 7694 84
Width: 640
VWidth: 999
Flags: HW
HStem: -131 44<164.058 401.638> -2 37<35.77 99.1189 211.714 390.37> 610 37<35.77 99.1189 213.923 372.377>
VStem: 109 93<44.366 599.597> 163 240<-130.948 -87> 494 97<172.006 459.741>
LayerCount: 2
Fore
SplineSet
182 85 m 2
 182 55 209 35 291 35 c 0
 409 35 500 78 500 270 c 0
 500 458 469 578 271 578 c 0
 230 578 182 563 182 530 c 2
 182 85 l 2
140 613 m 0
 176 613 247 616 302 616 c 0
 478 616 597 513 597 293 c 0
 597 59 435 -2 317 -2 c 0
 231 -2 175 0 141 0 c 0
 93.4 0 65 -1 19 -2 c 1
 13 4 13 29 19 35 c 1
 79 35 89 43 89 122 c 2
 89 491 l 2
 89 570 79 578 19 578 c 1
 13 584 13 609 19 615 c 1
 65 614 92.8 613 140 613 c 0
380 -131 m 2
 175 -131 l 2
 167 -131 163 -123 163 -116 c 0
 163 -104 173 -87 185 -87 c 2
 390 -87 l 2
 399 -87 403 -94 403 -101 c 0
 403 -113 393 -131 380 -131 c 2
EndSplineSet
LCarets2: 1 0 
EndChar

StartChar: uni1E0F
Encoding: 7695 7695 85
Width: 640
VWidth: 999
Flags: HW
HStem: -131 44<115.058 352.638> -11 52<234.965 357.657> 30 27<556.261 615.639> 449 40<223.849 396.438> 641 30<354.065 425.676> 678 20<507.5 524.5>
VStem: 60 90<141.693 338.359> 114 240<-130.948 -87> 442 87<91.7838 412.399 471.001 631.19>
LayerCount: 2
Fore
SplineSet
442 138 m 2
 442 350 l 2
 442 385 439 392 423 410 c 0
 401 436 348 449 306 449 c 0
 283 449 221 446 184 394 c 1
 166 371 150 326 150 246 c 0
 150 107 237 41 301 41 c 0
 331 41 383 59 424 95 c 0
 440 109 442 117 442 138 c 2
430 56 m 0
 375 11 316 -11 270 -11 c 0
 143 -11 60 89 60 226 c 0
 60 309 90 375 141 423 c 1
 189 465 240 489 318 489 c 0
 357 489 428 471 432 471 c 0
 440 471 442 473 442 481 c 2
 442 559 l 2
 442 633.1 430 638.1 358 641 c 1
 352 647 350 663 352 671 c 1
 392 674 495 688 520 698 c 1
 529 698 533 695 533 688 c 2
 533 688 529 648 529 583 c 2
 529 130 l 2
 529 81 537 66.1 612 57 c 1
 618 51 618 36 612 30 c 1
 537 24.1 495 8 473 -10 c 1
 465 -12 462 -13 454 -10 c 1
 454 -10 443 28 443 55 c 0
 443 63 435 60 430 56 c 0
331 -131 m 2
 126 -131 l 2
 118 -131 114 -123 114 -116 c 0
 114 -104 124 -87 136 -87 c 2
 341 -87 l 2
 350 -87 354 -94 354 -101 c 0
 354 -113 344 -131 331 -131 c 2
EndSplineSet
LCarets2: 1 0 
EndChar

StartChar: uni1E10
Encoding: 7696 7696 86
Width: 640
VWidth: 999
Flags: HW
HStem: -200 29<-51.953 48.231> -96 32<23.31 53.355> -20 20<5.66699 48> -2 37<35.77 99.1189 211.714 390.37> 610 37<35.77 99.1189 213.923 372.377>
VStem: 58 62<-165.259 -97.4563> 109 93<44.366 599.597> 494 97<172.006 459.741>
DStem2: -26 -96 23 -67 0.384615 0.923077<45.6154 104>
LayerCount: 2
Fore
SplineSet
182 85 m 2
 182 55 209 35 291 35 c 0
 409 35 500 78 500 270 c 0
 500 458 469 578 271 578 c 0
 230 578 182 563 182 530 c 2
 182 85 l 2
140 613 m 0
 176 613 247 616 302 616 c 0
 478 616 597 513 597 293 c 0
 597 59 435 -2 317 -2 c 0
 231 -2 175 0 141 0 c 0
 104 0 78.6 -0.6 47.5 -1.3 c 1
 23 -67 l 1
 31 -65 40 -64 49 -64 c 0
 89 -64 120 -88 120 -126 c 0
 120 -169 74 -200 13 -200 c 0
 -19 -200 -36 -194 -61 -183 c 1
 -61 -171 -58 -164 -51 -157 c 1
 -24 -167 -13 -171 7 -171 c 0
 37 -171 58 -157 58 -131 c 0
 58 -110 48 -96 25 -96 c 0
 6 -96 -4 -97 -20 -102 c 1
 -26 -96 l 1
 14 0 l 1
 17.6 0 l 1
 13.1 8.3 13.5 29.5 19 35 c 1
 79 35 89 43 89 122 c 2
 89 491 l 2
 89 570 79 578 19 578 c 1
 13 584 13 609 19 615 c 1
 65 614 92.8 613 140 613 c 0
EndSplineSet
LCarets2: 1 0 
EndChar

StartChar: uni1E11
Encoding: 7697 7697 87
Width: 640
VWidth: 999
Flags: HW
HStem: -200 29<-43.953 56.231> -96 32<31.31 61.355> -20 20<13.667 56> -11 52<234.965 357.657> 30 27<556.261 615.639> 449 40<223.849 396.438> 641 30<354.065 425.676> 678 20<507.5 524.5>
VStem: 60 90<141.693 338.359> 66 62<-165.259 -97.4563> 442 87<91.7838 412.399 471.001 631.19>
DStem2: -18 -96 31 -67 0.384615 0.923077<45.6154 104>
LayerCount: 2
Fore
SplineSet
442 138 m 2
 442 350 l 2
 442 385 439 392 423 410 c 0
 401 436 348 449 306 449 c 0
 283 449 221 446 184 394 c 1
 166 371 150 326 150 246 c 0
 150 107 237 41 301 41 c 0
 331 41 383 59 424 95 c 0
 440 109 442 117 442 138 c 2
430 56 m 0
 375 11 316 -11 270 -11 c 0
 143 -11 60 89 60 226 c 0
 60 309 90 375 141 423 c 1
 189 465 240 489 318 489 c 0
 357 489 428 471 432 471 c 0
 440 471 442 473 442 481 c 2
 442 559 l 2
 442 633.1 430 638.1 358 641 c 1
 352 647 350 663 352 671 c 1
 392 674 495 688 520 698 c 1
 529 698 533 695 533 688 c 2
 533 688 529 648 529 583 c 2
 529 130 l 2
 529 81 537 66.1 612 57 c 1
 618 51 618 36 612 30 c 1
 537 24.1 495 8 473 -10 c 1
 465 -12 462 -13 454 -10 c 1
 454 -10 443 28 443 55 c 0
 443 63 435 60 430 56 c 0
33 -96 m 0
 14 -96 4 -97 -12 -102 c 1
 -18 -96 l 1
 22 0 l 1
 56 0 l 1
 31 -67 l 1
 39 -65 48 -64 57 -64 c 0
 97 -64 128 -88 128 -126 c 0
 128 -169 82 -200 21 -200 c 0
 -11 -200 -28 -194 -53 -183 c 1
 -53 -171 -50 -164 -43 -157 c 1
 -16 -167 -5 -171 15 -171 c 0
 45 -171 66 -157 66 -131 c 0
 66 -110 56 -96 33 -96 c 0
EndSplineSet
LCarets2: 1 0 
EndChar

StartChar: uni1E12
Encoding: 7698 7698 88
Width: 640
VWidth: 999
Flags: HW
HStem: -2 37<35.77 99.1189 211.714 390.37> 610 37<35.77 99.1189 213.923 372.377>
VStem: 109 93<44.366 599.597> 494 97<172.006 459.741>
LayerCount: 2
Fore
SplineSet
182 85 m 2
 182 55 209 35 291 35 c 0
 409 35 500 78 500 270 c 0
 500 458 469 578 271 578 c 0
 230 578 182 563 182 530 c 2
 182 85 l 2
140 613 m 0
 176 613 247 616 302 616 c 0
 478 616 597 513 597 293 c 0
 597 59 435 -2 317 -2 c 0
 231 -2 175 0 141 0 c 0
 93.4 0 65 -1 19 -2 c 1
 13 4 13 29 19 35 c 1
 79 35 89 43 89 122 c 2
 89 491 l 2
 89 570 79 578 19 578 c 1
 13 584 13 609 19 615 c 1
 65 614 92.8 613 140 613 c 0
EndSplineSet
LCarets2: 1 0 
EndChar

StartChar: uni1E13
Encoding: 7699 7699 89
Width: 640
VWidth: 999
Flags: HW
HStem: -11 52<234.965 357.657> 30 27<556.261 615.639> 449 40<223.849 396.438> 641 30<354.065 425.676> 678 20<507.5 524.5>
VStem: 60 90<141.693 338.359> 442 87<91.7838 412.399 471.001 631.19>
LayerCount: 2
Fore
SplineSet
442 138 m 2
 442 350 l 2
 442 385 439 392 423 410 c 0
 401 436 348 449 306 449 c 0
 283 449 221 446 184 394 c 1
 166 371 150 326 150 246 c 0
 150 107 237 41 301 41 c 0
 331 41 383 59 424 95 c 0
 440 109 442 117 442 138 c 2
430 56 m 0
 375 11 316 -11 270 -11 c 0
 143 -11 60 89 60 226 c 0
 60 309 90 375 141 423 c 1
 189 465 240 489 318 489 c 0
 357 489 428 471 432 471 c 0
 440 471 442 473 442 481 c 2
 442 559 l 2
 442 633.1 430 638.1 358 641 c 1
 352 647 350 663 352 671 c 1
 392 674 495 688 520 698 c 1
 529 698 533 695 533 688 c 2
 533 688 529 648 529 583 c 2
 529 130 l 2
 529 81 537 66.1 612 57 c 1
 618 51 618 36 612 30 c 1
 537 24.1 495 8 473 -10 c 1
 465 -12 462 -13 454 -10 c 1
 454 -10 443 28 443 55 c 0
 443 63 435 60 430 56 c 0
EndSplineSet
LCarets2: 1 0 
EndChar

StartChar: uni1E14
Encoding: 7700 7700 90
Width: 640
VWidth: 999
Flags: HW
HStem: 0 39<48.2466 119.78 224.719 488.897> 323 38<220 380.322> 605 40<48.7036 120.458 225.062 469.552> 725.5 105.6
VStem: -37.6 163.2 127 93<43.5349 323 361 601.5> 394 33<251.625 306.925 373.446 432.375> 516 33<498.32 539.828> 555 35<122.11 168.353>
LayerCount: 2
Fore
SplineSet
20.9 831.1 m 1
 114.1 757.2 l 2
 122.6 750.2 125.6 744.9 125.6 738.7 c 0
 125.6 731.7 120.3 725.5 114.1 725.5 c 0
 107.9 725.5 97.2 728.1 81 736 c 2
 -37.6 791.5 l 1
 -23.5 807.1 -5.4 820.9 20.9 831.1 c 1
323 343 m 2
 408 343 411 356 414 408 c 1
 420 414 441 414 447 408 c 1
 445.7 380.7 445 358 445 326 c 0
 445 293.2 445 274 447 242 c 1
 441 236 420 236 414 242 c 1
 411 285 408 307 323 307 c 2
 215 307 l 1
 215 80 l 2
 215 54 229 39 251 39 c 2
 444 39 l 2
 520 39 555 94 575 162 c 1
 588 165 600 163 610 157 c 1
 602 109 587 46 573 -2 c 1
 573 -2 493 0 445 0 c 2
 155 0 l 1
 155 0 84 -1 35 -2 c 1
 29 4 29 29 35 35 c 1
 105 38 122 43 122 122 c 2
 122 491 l 2
 122 570 105 575 35 578 c 1
 29 584 29 609 35 615 c 1
 85 614 154 613 154 613 c 1
 494 613 l 2
 518 613 526 614 543 617 c 0
 546 617 547 616 547 614 c 0
 549 606 564 515 569 476 c 1
 559 472 548 469 536 471 c 1
 514 537 498 573 423 573 c 2
 251 573 l 2
 227 573 215 554 215 531 c 2
 215 343 l 1
 323 343 l 2
EndSplineSet
LCarets2: 1 0 
EndChar

StartChar: uni1E15
Encoding: 7701 7701 91
Width: 640
VWidth: 999
Flags: HW
HStem: -10 50<279.924 462.977> 255 41<179 471.361> 450 40<266.142 414.556> 586 50<190.891 447.59>
VStem: 79 95<146.707 249.276> 189 261<586.239 636> 473 100<278 378.705>
LayerCount: 2
Fore
SplineSet
426 586 m 2
 202 586 l 2
 193 586 189 597 189 604 c 0
 189 616 200 636 211 636 c 2
 436 636 l 2
 446 636 450 625 450 619 c 0
 450 607 439 586 426 586 c 2
179 296 m 1
 453 300 l 2
 467 300.2 473 316 473 326 c 0
 473 422 393 450 345 450 c 0
 281 450 202 416 179 296 c 1
551 109 m 1
 566 108 571 98 574 87 c 1
 524 29 441 -10 347 -10 c 0
 259 -10 182 16 140 61 c 1
 99 103 78 164 78 226 c 0
 78 395 209 490 347 490 c 0
 517 490 573 378 573 284 c 0
 573 272 563 255 549 255 c 2
 174 255 l 1
 174 189 186 158 211 120 c 1
 252 62 312.8 40 377 40 c 0
 452 40 504 66 551 109 c 1
67.4 784.1 m 1
 123.4 670.7 l 2
 127.4 661.7 128.2 655.4 128.2 649.1 c 0
 128.2 644.6 122.6 639.2 116.2 639.2 c 0
 111.4 639.2 105.8 643.7 93 657.2 c 2
 1.8 755.3 l 1
 3.4 765.2 l 1
 9.8 770.6 28.2 785.9 55.4 785.9 c 0
 59.4 785.9 64.2 785 67.4 784.1 c 1
EndSplineSet
EndChar

StartChar: uni1E16
Encoding: 7702 7702 92
Width: 640
VWidth: 999
Flags: HW
HStem: 0 39<48.2466 119.78 224.719 488.897> 323 38<220 380.322> 605 40<48.7036 120.458 225.062 469.552> 724.5 107.4
VStem: 127 93<43.5349 323 361 601.5> 394 33<251.625 306.925 373.446 432.375> 428.1 154.8 516 33<498.32 539.828> 555 35<122.11 168.353>
LayerCount: 2
Fore
SplineSet
535.1 831.9 m 1
 557.2 820.2 573.1 804.9 582.9 786.1 c 1
 472 735 l 2
 455.8 727.1 446.5 724.5 439.6 724.5 c 0
 432.7 724.5 428.1 730.7 428.1 737.7 c 0
 428.1 743.9 429.6 748.3 439.6 756.2 c 2
 535.1 831.9 l 1
323 343 m 2
 408 343 411 356 414 408 c 1
 420 414 441 414 447 408 c 1
 445.7 380.7 445 358 445 326 c 0
 445 293.2 445 274 447 242 c 1
 441 236 420 236 414 242 c 1
 411 285 408 307 323 307 c 2
 215 307 l 1
 215 80 l 2
 215 54 229 39 251 39 c 2
 444 39 l 2
 520 39 555 94 575 162 c 1
 588 165 600 163 610 157 c 1
 602 109 587 46 573 -2 c 1
 573 -2 493 0 445 0 c 2
 155 0 l 1
 155 0 84 -1 35 -2 c 1
 29 4 29 29 35 35 c 1
 105 38 122 43 122 122 c 2
 122 491 l 2
 122 570 105 575 35 578 c 1
 29 584 29 609 35 615 c 1
 85 614 154 613 154 613 c 1
 494 613 l 2
 518 613 526 614 543 617 c 0
 546 617 547 616 547 614 c 0
 549 606 564 515 569 476 c 1
 559 472 548 469 536 471 c 1
 514 537 498 573 423 573 c 2
 251 573 l 2
 227 573 215 554 215 531 c 2
 215 343 l 1
 323 343 l 2
EndSplineSet
LCarets2: 1 0 
EndChar

StartChar: uni1E17
Encoding: 7703 7703 93
Width: 640
VWidth: 999
Flags: HW
HStem: -10 50<279.924 462.977> 255 41<179 471.361> 450 40<266.142 414.556> 586 50<190.891 447.59>
VStem: 79 95<146.707 249.276> 189 261<586.239 636> 473 100<278 378.705>
LayerCount: 2
Fore
SplineSet
426 586 m 2
 202 586 l 2
 193 586 189 597 189 604 c 0
 189 616 200 636 211 636 c 2
 436 636 l 2
 446 636 450 625 450 619 c 0
 450 607 439 586 426 586 c 2
179 296 m 1
 453 300 l 2
 467 300.2 473 316 473 326 c 0
 473 422 393 450 345 450 c 0
 281 450 202 416 179 296 c 1
551 109 m 1
 566 108 571 98 574 87 c 1
 524 29 441 -10 347 -10 c 0
 259 -10 182 16 140 61 c 1
 99 103 78 164 78 226 c 0
 78 395 209 490 347 490 c 0
 517 490 573 378 573 284 c 0
 573 272 563 255 549 255 c 2
 174 255 l 1
 174 189 186 158 211 120 c 1
 252 62 312.8 40 377 40 c 0
 452 40 504 66 551 109 c 1
152.4 778.1 m 1
 154.8 779 159.6 779.9 163.6 779.9 c 0
 168.7 779.9 189.2 779 207.6 759.2 c 1
 210 749.3 l 1
 118 651.2 l 2
 106 637.7 99.6 634.1 94 634.1 c 0
 88.4 634.1 82.8 639.5 82.8 645.8 c 0
 82.8 655.9 85.5 659.5 92 671 c 2
 152.4 778.1 l 1
EndSplineSet
EndChar

StartChar: uni1E18
Encoding: 7704 7704 94
Width: 640
VWidth: 999
Flags: HW
HStem: 0 39<48.2466 119.78 224.719 488.897> 323 38<220 380.322> 605 40<48.7036 120.458 225.062 469.552>
VStem: 127 93<43.5349 323 361 601.5> 394 33<251.625 306.925 373.446 432.375> 516 33<498.32 539.828> 555 35<122.11 168.353>
LayerCount: 2
Fore
SplineSet
323 343 m 2
 408 343 411 356 414 408 c 1
 420 414 441 414 447 408 c 1
 445.7 380.7 445 358 445 326 c 0
 445 293.2 445 274 447 242 c 1
 441 236 420 236 414 242 c 1
 411 285 408 307 323 307 c 2
 215 307 l 1
 215 80 l 2
 215 54 229 39 251 39 c 2
 444 39 l 2
 520 39 555 94 575 162 c 1
 588 165 600 163 610 157 c 1
 602 109 587 46 573 -2 c 1
 573 -2 493 0 445 0 c 2
 155 0 l 1
 155 0 84 -1 35 -2 c 1
 29 4 29 29 35 35 c 1
 105 38 122 43 122 122 c 2
 122 491 l 2
 122 570 105 575 35 578 c 1
 29 584 29 609 35 615 c 1
 85 614 154 613 154 613 c 1
 494 613 l 2
 518 613 526 614 543 617 c 0
 546 617 547 616 547 614 c 0
 549 606 564 515 569 476 c 1
 559 472 548 469 536 471 c 1
 514 537 498 573 423 573 c 2
 251 573 l 2
 227 573 215 554 215 531 c 2
 215 343 l 1
 323 343 l 2
EndSplineSet
LCarets2: 1 0 
EndChar

StartChar: uni1E19
Encoding: 7705 7705 95
Width: 640
VWidth: 999
Flags: HW
HStem: -10 50<279.924 462.977> 255 41<179 471.361> 450 40<266.142 414.556>
VStem: 79 95<146.707 249.276> 473 100<278 378.705>
LayerCount: 2
Fore
SplineSet
179 296 m 1
 453 300 l 2
 467 300.2 473 316 473 326 c 0
 473 422 393 450 345 450 c 0
 281 450 202 416 179 296 c 1
551 109 m 1
 566 108 571 98 574 87 c 1
 524 29 441 -10 347 -10 c 0
 259 -10 182 16 140 61 c 1
 99 103 78 164 78 226 c 0
 78 395 209 490 347 490 c 0
 517 490 573 378 573 284 c 0
 573 272 563 255 549 255 c 2
 174 255 l 1
 174 189 186 158 211 120 c 1
 252 62 312.8 40 377 40 c 0
 452 40 504 66 551 109 c 1
EndSplineSet
LCarets2: 1 0 
EndChar

StartChar: uni1E1A
Encoding: 7706 7706 96
Width: 640
VWidth: 999
Flags: HW
HStem: 0 39<48.2466 119.78 224.719 488.897> 323 38<220 380.322> 605 40<48.7036 120.458 225.062 469.552>
VStem: 127 93<43.5349 323 361 601.5> 394 33<251.625 306.925 373.446 432.375> 516 33<498.32 539.828> 555 35<122.11 168.353>
LayerCount: 2
Fore
SplineSet
323 343 m 2
 408 343 411 356 414 408 c 1
 420 414 441 414 447 408 c 1
 445.7 380.7 445 358 445 326 c 0
 445 293.2 445 274 447 242 c 1
 441 236 420 236 414 242 c 1
 411 285 408 307 323 307 c 2
 215 307 l 1
 215 80 l 2
 215 54 229 39 251 39 c 2
 444 39 l 2
 520 39 555 94 575 162 c 1
 588 165 600 163 610 157 c 1
 602 109 587 46 573 -2 c 1
 573 -2 493 0 445 0 c 2
 155 0 l 1
 155 0 84 -1 35 -2 c 1
 29 4 29 29 35 35 c 1
 105 38 122 43 122 122 c 2
 122 491 l 2
 122 570 105 575 35 578 c 1
 29 584 29 609 35 615 c 1
 85 614 154 613 154 613 c 1
 494 613 l 2
 518 613 526 614 543 617 c 0
 546 617 547 616 547 614 c 0
 549 606 564 515 569 476 c 1
 559 472 548 469 536 471 c 1
 514 537 498 573 423 573 c 2
 251 573 l 2
 227 573 215 554 215 531 c 2
 215 343 l 1
 323 343 l 2
EndSplineSet
LCarets2: 1 0 
EndChar

StartChar: uni1E1B
Encoding: 7707 7707 97
Width: 640
VWidth: 999
Flags: HW
HStem: -10 50<279.924 462.977> 255 41<179 471.361> 450 40<266.142 414.556>
VStem: 79 95<146.707 249.276> 473 100<278 378.705>
LayerCount: 2
Fore
SplineSet
179 296 m 1
 453 300 l 2
 467 300.2 473 316 473 326 c 0
 473 422 393 450 345 450 c 0
 281 450 202 416 179 296 c 1
551 109 m 1
 566 108 571 98 574 87 c 1
 524 29 441 -10 347 -10 c 0
 259 -10 182 16 140 61 c 1
 99 103 78 164 78 226 c 0
 78 395 209 490 347 490 c 0
 517 490 573 378 573 284 c 0
 573 272 563 255 549 255 c 2
 174 255 l 1
 174 189 186 158 211 120 c 1
 252 62 312.8 40 377 40 c 0
 452 40 504 66 551 109 c 1
EndSplineSet
LCarets2: 1 0 
EndChar

StartChar: uni1E1C
Encoding: 7708 7708 98
Width: 640
VWidth: 999
Flags: HW
HStem: 692 52<190.738 348.488> 785 20<134 166 374.5 406>
VStem: 134 28<780.047 805> 378 28<779.76 805>
LayerCount: 2
Fore
SplineSet
406 805 m 1
 400 734 336 692 270 692 c 0
 197 692 139 735 134 805 c 1
 162 805 l 1
 170 766 217 744 270 744 c 0
 319 744 371 766 378 805 c 1
 406 805 l 1
EndSplineSet
EndChar

StartChar: uni1E1E
Encoding: 7710 7710 100
Width: 640
VWidth: 999
Flags: HW
HStem: -2 37<58.77 128.618 246.71 352.23> 313 38<232 401.959> 605 40<60.7036 132.458 233.978 487.313>
VStem: 139 93<47.4685 313 351 601.629> 416 33<241.625 296.925 364.375 422.375> 546 31<498.84 534.346>
LayerCount: 2
Fore
SplineSet
375 297 m 2
 272 297 l 1
 272 122 l 2
 272 81 277 59 291 48 c 0
 304 38 356 36 389 35 c 1
 395 29 395 4 389 -2 c 1
 341.3 -1 292 0 230 0 c 0
 164.5 0 111 -1 62 -2 c 1
 56 4 56 29 62 35 c 1
 132 38 179 43 179 122 c 2
 179 510 l 2
 179 568 162 572 62 578 c 1
 56 584 56 609 62 615 c 1
 112 614 219 613 219 613 c 1
 534 613 l 2
 559 613 563 614 581 617 c 0
 583 617 585 616 585 614 c 0
 586 607 607 469 612 430 c 1
 604 427 592 425 580 425 c 1
 558 491 529 573 423 573 c 2
 338 573 l 2
 290 573 272 568 272 512 c 2
 272 333 l 1
 375 333 l 2
 458 333 453 346 456 398 c 1
 462 404 483 404 489 398 c 1
 487 371 487 348 487 316 c 0
 487 283.6 487 258 489 233 c 1
 483 227 462 227 456 233 c 1
 453 276 459 297 375 297 c 2
EndSplineSet
LCarets2: 1 0 
EndChar

StartChar: uni1E1F
Encoding: 7711 7711 101
Width: 640
VWidth: 999
Flags: HW
HStem: -2 37<65.77 185.478 310.655 492.23> 416 44<79 203 290 467> 660 38<340.139 468.894>
VStem: 203 87<49.4754 416 460 595.875>
LayerCount: 2
Fore
SplineSet
290 126 m 2
 290 78 293 59 310 49 c 0
 322 42 383 39 489 35 c 1
 495 29 495 4 489 -2 c 1
 446 -1 341.4 0 247 0 c 0
 177.6 0 111 -1 69 -2 c 1
 63 4 63 29 69 35 c 1
 145 37 176 41 186 49 c 0
 200 59 203 78 203 126 c 2
 203 396 l 1
 95 396 l 2
 91 396 89 397 89 402 c 2
 89 420 l 2
 89 428 95 440 113 440 c 2
 203 440 l 1
 203 493 l 2
 203 658 329 698 419 698 c 0
 467 698 515 685.4 554 660 c 0
 574 647 588 621 588 601 c 0
 588 571 563 556 544 556 c 0
 521 556 502.5 562.8 494 584 c 0
 473 636 451 660 409 660 c 0
 376 660 290 637 290 510 c 2
 290 440 l 1
 489 440 l 2
 494 440 497 438 497 434 c 2
 497 409 l 2
 497 400 482 396 473 396 c 2
 290 396 l 1
 290 126 l 2
EndSplineSet
LCarets2: 1 0 
EndChar

StartChar: uni1E20
Encoding: 7712 7712 102
Width: 640
VWidth: 999
Flags: HW
HStem: -10 37<284.556 457.265> 251 37<399.308 464.271 575.598 620.692> 621 37<269.119 436.04>
VStem: 35 97<201.486 441.997> 472 94<63.4212 242.114> 530 35<459.455 511.556>
LayerCount: 2
Fore
SplineSet
359 625 m 0
 469 625 492 596 546 596 c 1
 552 528 557 480 565 440 c 1
 555 434 542 433 530 434 c 1
 507 516 477 590 347 590 c 0
 231 590 132 499 132 311 c 0
 132 156 203 28 366 28 c 0
 415 28 445 35 472 53 c 1
 472 193 l 2
 472 231 431 234 382 238 c 1
 377 244 377 268 382 274 c 1
 424 273 489 272 524 272 c 0
 560 272 591 273 618 274 c 1
 623 268 623 244 618 238 c 1
 592 235 566 226 566 193 c 2
 566 86 l 2
 566 76 571 69 581 60 c 1
 530 16 451 -10 345 -10 c 0
 155 -10 35 112 35 292 c 0
 35 538 197 625 359 625 c 0
EndSplineSet
LCarets2: 1 0 
EndChar

StartChar: uni1E21
Encoding: 7713 7713 103
Width: 640
VWidth: 999
Flags: HW
HStem: -237 37<195.546 392.005> -16 64<178.237 328.601> -12 68<231.008 465.547> 153 37<225.717 356.611> 453 37<212.644 346.592> 466 50<453.95 546.607>
VStem: 57 77<-155.932 -66.9185> 86 91<245.448 400.08> 105 59<63.7669 168.039> 395 89<241.523 405.9> 511 64<-125.597 -49.4068>
LayerCount: 2
Fore
SplineSet
402 312 m 0
 402 405 364 453 283 453 c 0
 213 453 184 416 184 338 c 0
 184 267 204 190 298 190 c 0
 348 190 402 208 402 312 c 0
183 -10 m 1
 151 -49 141 -69 141 -103 c 0
 141 -171 225 -200 288 -200 c 0
 393 -200 518 -162 518 -90 c 0
 518 -64 506 -52 461 -27 c 0
 427 -9 374 -12 315 -12 c 0
 298 -12 267 -16 230 -16 c 0
 215 -16 195 -13 183 -10 c 1
541 433 m 0
 529 433 514 444 510 453 c 1
 503 463 495 466 487 466 c 0
 473 466 451 450 443 439 c 1
 475 406 491 375 491 323 c 0
 491 214 400 153 292 153 c 0
 249 153 213 160 186 176 c 1
 173 157 171 133 171 111 c 0
 171 63 210 48 244 48 c 0
 250 48 262 49 280 50 c 0
 308 53 337 56 358 56 c 0
 401 56 484 55 529 19 c 0
 563 -8 582 -32 582 -64 c 0
 582 -172 413 -237 254 -237 c 0
 164 -237 64 -210 64 -123 c 0
 64 -80 103 -38 163 -2 c 1
 134 12 112 44 112 84 c 0
 112 122 125 169 156 196 c 1
 125 226 93 261 93 321 c 0
 93 424 184 490 293 490 c 0
 369 490 406 468 419 459 c 1
 448 497 502 516 531 516 c 0
 561 516 582 498 582 475 c 0
 582 453 562 433 541 433 c 0
EndSplineSet
LCarets2: 1 0 
EndChar

StartChar: uni1E22
Encoding: 7714 7714 104
Width: 640
VWidth: 999
Flags: HW
HStem: -2 37<15.77 73.3887 184.195 256.23 383.77 455.805 566.24 624.23> 321 42<172 468> 610 37<15.77 78.9854 182.336 256.23 383.77 457.664 564.839 624.23>
VStem: 82 90<44.8314 321 363 601.702> 468 90<45.1717 321 363 601.369>
LayerCount: 2
Fore
SplineSet
548 122 m 2
 548 43 551 38 621 35 c 1
 627 29 627 4 621 -2 c 1
 577 -1 531 0 502 0 c 0
 472 0 428 -1 387 -2 c 1
 381 4 381 29 387 35 c 1
 454 38 458 43 458 122 c 2
 458 305 l 1
 182 305 l 1
 182 122 l 2
 182 43 185 38 253 35 c 1
 259 29 259 4 253 -2 c 1
 211 -1 167 0 139 0 c 0
 108 0 62 -1 19 -2 c 1
 13 4 13 29 19 35 c 1
 90 39 91.8 43 92 122 c 2
 93 495 l 2
 93.2 570 92 575 20 578 c 1
 14 584 14 609 20 615 c 1
 63 614 107 613 139 613 c 0
 165 613 211 614 254 615 c 1
 260 609 260 584 254 578 c 1
 186 575 183 570 183 495 c 2
 182 345 l 1
 458 345 l 1
 458 495 l 2
 458 571 457 575 387 578 c 1
 381 584 381 609 387 615 c 1
 431 614 477 613 501 613 c 0
 525 613 578 614 621 615 c 1
 627 609 627 584 621 578 c 1
 551 574 548 569 548 495 c 2
 548 122 l 2
EndSplineSet
LCarets2: 1 0 
EndChar

StartChar: uni1E23
Encoding: 7715 7715 105
Width: 640
VWidth: 999
Flags: HW
HStem: -2 37<31.0005 103.121 209.593 264 381.308 436.863 547.234 612.692> 434 56<317.632 424.174> 641 30<26.0654 97.676> 678 20<179.5 196.5>
VStem: 114 87<43.6131 362.493 389 631.836> 446 87<46.6228 412.453>
LayerCount: 2
Fore
SplineSet
201 316.9 m 2
 201 122 l 2
 201 40 210 39 260.8 35 c 1
 266.8 29 266.8 4 260.8 -2 c 1
 230.7 -1 197 0 158 0 c 0
 115 0 73.3 -1 34.2 -2 c 1
 28.2 4 28.2 29 34.2 35 c 1
 101 37 114 39 114 122 c 2
 114 559 l 2
 114 634 107 639 36 641 c 1
 30 647 28 663 30 671 c 1
 70 674 167 688 192 698 c 1
 201 698 205 695 205 688 c 2
 205 688 201.3 648 201 583 c 2
 200.2 400 l 2
 200.2 386 206.6 389.2 210 393 c 0
 271 461 347 490 419 490 c 0
 454 490 489.2 478 506 456 c 0
 529.3 425.5 533 377 533 322 c 2
 533 122 l 2
 533 42 551 40 610 35 c 1
 615 29 615 4 610 -2 c 1
 567 -1 522 0 490 0 c 0
 456 0 419.3 -1 384 -2 c 1
 379 4 379 29 384 35 c 1
 436 40 446 41 446 122 c 2
 446 321 l 2
 446 351 444 378.2 434 398 c 0
 422.4 420.9 401.4 434 381 434 c 0
 320 434 256 396.3 218 359 c 0
 210 350.3 201 338 201 316.9 c 2
EndSplineSet
LCarets2: 1 0 
EndChar

StartChar: uni1E24
Encoding: 7716 7716 106
Width: 640
VWidth: 999
Flags: HW
HStem: -2 37<15.77 73.3887 184.195 256.23 383.77 455.805 566.24 624.23> 321 42<172 468> 610 37<15.77 78.9854 182.336 256.23 383.77 457.664 564.839 624.23>
VStem: 82 90<44.8314 321 363 601.702> 468 90<45.1717 321 363 601.369>
LayerCount: 2
Fore
SplineSet
548 122 m 2
 548 43 551 38 621 35 c 1
 627 29 627 4 621 -2 c 1
 577 -1 531 0 502 0 c 0
 472 0 428 -1 387 -2 c 1
 381 4 381 29 387 35 c 1
 454 38 458 43 458 122 c 2
 458 305 l 1
 182 305 l 1
 182 122 l 2
 182 43 185 38 253 35 c 1
 259 29 259 4 253 -2 c 1
 211 -1 167 0 139 0 c 0
 108 0 62 -1 19 -2 c 1
 13 4 13 29 19 35 c 1
 90 39 91.8 43 92 122 c 2
 93 495 l 2
 93.2 570 92 575 20 578 c 1
 14 584 14 609 20 615 c 1
 63 614 107 613 139 613 c 0
 165 613 211 614 254 615 c 1
 260 609 260 584 254 578 c 1
 186 575 183 570 183 495 c 2
 182 345 l 1
 458 345 l 1
 458 495 l 2
 458 571 457 575 387 578 c 1
 381 584 381 609 387 615 c 1
 431 614 477 613 501 613 c 0
 525 613 578 614 621 615 c 1
 627 609 627 584 621 578 c 1
 551 574 548 569 548 495 c 2
 548 122 l 2
EndSplineSet
LCarets2: 1 0 
EndChar

StartChar: uni1E25
Encoding: 7717 7717 107
Width: 640
VWidth: 999
Flags: HW
HStem: -2 37<31.0005 103.121 209.593 264 381.308 436.863 547.234 612.692> 434 56<317.632 424.174> 641 30<26.0654 97.676> 678 20<179.5 196.5>
VStem: 114 87<43.6131 362.493 389 631.836> 446 87<46.6228 412.453>
LayerCount: 2
Fore
SplineSet
201 316.9 m 2
 201 122 l 2
 201 40 210 39 260.8 35 c 1
 266.8 29 266.8 4 260.8 -2 c 1
 230.7 -1 197 0 158 0 c 0
 115 0 73.3 -1 34.2 -2 c 1
 28.2 4 28.2 29 34.2 35 c 1
 101 37 114 39 114 122 c 2
 114 559 l 2
 114 634 107 639 36 641 c 1
 30 647 28 663 30 671 c 1
 70 674 167 688 192 698 c 1
 201 698 205 695 205 688 c 2
 205 688 201.3 648 201 583 c 2
 200.2 400 l 2
 200.2 386 206.6 389.2 210 393 c 0
 271 461 347 490 419 490 c 0
 454 490 489.2 478 506 456 c 0
 529.3 425.5 533 377 533 322 c 2
 533 122 l 2
 533 42 551 40 610 35 c 1
 615 29 615 4 610 -2 c 1
 567 -1 522 0 490 0 c 0
 456 0 419.3 -1 384 -2 c 1
 379 4 379 29 384 35 c 1
 436 40 446 41 446 122 c 2
 446 321 l 2
 446 351 444 378.2 434 398 c 0
 422.4 420.9 401.4 434 381 434 c 0
 320 434 256 396.3 218 359 c 0
 210 350.3 201 338 201 316.9 c 2
EndSplineSet
LCarets2: 1 0 
EndChar

StartChar: uni1E26
Encoding: 7718 7718 108
Width: 640
VWidth: 999
Flags: HW
HStem: -2 37<15.77 73.3887 184.195 256.23 383.77 455.805 566.24 624.23> 321 42<172 468> 610 37<15.77 78.9854 182.336 256.23 383.77 457.664 564.839 624.23> 709 96<134.332 213.668 323.332 402.668>
VStem: 82 90<44.8314 321 363 601.702> 126 96<717.332 796.668> 315 96<717.332 796.668> 468 90<45.1717 321 363 601.369>
LayerCount: 2
Fore
SplineSet
315 757 m 0
 315 783 337 805 363 805 c 0
 389 805 411 783 411 757 c 0
 411 731 389 709 363 709 c 0
 337 709 315 731 315 757 c 0
126 757 m 0
 126 783 148 805 174 805 c 0
 200 805 222 783 222 757 c 0
 222 731 200 709 174 709 c 0
 148 709 126 731 126 757 c 0
548 122 m 2
 548 43 551 38 621 35 c 1
 627 29 627 4 621 -2 c 1
 577 -1 531 0 502 0 c 0
 472 0 428 -1 387 -2 c 1
 381 4 381 29 387 35 c 1
 454 38 458 43 458 122 c 2
 458 305 l 1
 182 305 l 1
 182 122 l 2
 182 43 185 38 253 35 c 1
 259 29 259 4 253 -2 c 1
 211 -1 167 0 139 0 c 0
 108 0 62 -1 19 -2 c 1
 13 4 13 29 19 35 c 1
 90 39 91.8 43 92 122 c 2
 93 495 l 2
 93.2 570 92 575 20 578 c 1
 14 584 14 609 20 615 c 1
 63 614 107 613 139 613 c 0
 165 613 211 614 254 615 c 1
 260 609 260 584 254 578 c 1
 186 575 183 570 183 495 c 2
 182 345 l 1
 458 345 l 1
 458 495 l 2
 458 571 457 575 387 578 c 1
 381 584 381 609 387 615 c 1
 431 614 477 613 501 613 c 0
 525 613 578 614 621 615 c 1
 627 609 627 584 621 578 c 1
 551 574 548 569 548 495 c 2
 548 122 l 2
EndSplineSet
LCarets2: 1 0 
EndChar

StartChar: uni1E27
Encoding: 7719 7719 109
Width: 640
VWidth: 999
Flags: HW
HStem: -2 37<31.0005 103.121 209.593 264 381.308 436.863 547.234 612.692> 434 56<317.632 424.174> 527 91<335.053 410.947 472.053 548.653> 641 30<26.0654 97.676> 678 20<179.5 196.5>
VStem: 114 87<43.6131 362.493 389 631.836> 328 90<533.481 611.246> 446 87<46.6228 412.453> 465 91<534.053 610.653>
LayerCount: 2
Fore
SplineSet
465 572 m 0
 465 597 485 618 510 618 c 0
 535 618 556 597 556 572 c 0
 556 547 535 527 510 527 c 0
 485 527 465 547 465 572 c 0
328 572 m 0
 328 597 348 618 373 618 c 0
 398 618 418 597 418 572 c 0
 418 547 398 527 373 527 c 0
 348 527 328 547 328 572 c 0
201 316.9 m 2
 201 122 l 2
 201 40 210 39 260.8 35 c 1
 266.8 29 266.8 4 260.8 -2 c 1
 230.7 -1 197 0 158 0 c 0
 115 0 73.3 -1 34.2 -2 c 1
 28.2 4 28.2 29 34.2 35 c 1
 101 37 114 39 114 122 c 2
 114 559 l 2
 114 634 107 639 36 641 c 1
 30 647 28 663 30 671 c 1
 70 674 167 688 192 698 c 1
 201 698 205 695 205 688 c 2
 205 688 201.3 648 201 583 c 2
 200.2 400 l 2
 200.2 386 206.6 389.2 210 393 c 0
 271 461 347 490 419 490 c 0
 454 490 489.2 478 506 456 c 0
 529.3 425.5 533 377 533 322 c 2
 533 122 l 2
 533 42 551 40 610 35 c 1
 615 29 615 4 610 -2 c 1
 567 -1 522 0 490 0 c 0
 456 0 419.3 -1 384 -2 c 1
 379 4 379 29 384 35 c 1
 436 40 446 41 446 122 c 2
 446 321 l 2
 446 351 444 378.2 434 398 c 0
 422.4 420.9 401.4 434 381 434 c 0
 320 434 256 396.3 218 359 c 0
 210 350.3 201 338 201 316.9 c 2
EndSplineSet
LCarets2: 1 0 
EndChar

StartChar: uni1E28
Encoding: 7720 7720 110
Width: 640
VWidth: 999
Flags: HW
HStem: -200 29<-91.953 8.23099> -96 32<-16.69 13.355> -20 20<-34.333 8> -2 37<15.77 73.3887 184.195 256.23 383.77 455.805 566.24 624.23> 321 42<172 468> 610 37<15.77 78.9854 182.336 256.23 383.77 457.664 564.839 624.23>
VStem: 18 62<-165.259 -97.4563> 82 90<44.8314 321 363 601.702> 468 90<45.1717 321 363 601.369>
DStem2: -66 -96 -17 -67 0.384615 0.923077<45.6154 104>
LayerCount: 2
Fore
SplineSet
-15 -96 m 0
 -34 -96 -44 -97 -60 -102 c 1
 -66 -96 l 1
 -26 0 l 1
 8 0 l 1
 -17 -67 l 1
 -9 -65 0 -64 9 -64 c 0
 49 -64 80 -88 80 -126 c 0
 80 -169 34 -200 -27 -200 c 0
 -59 -200 -76 -194 -101 -183 c 1
 -101 -171 -98 -164 -91 -157 c 1
 -64 -167 -53 -171 -33 -171 c 0
 -3 -171 18 -157 18 -131 c 0
 18 -110 8 -96 -15 -96 c 0
548 122 m 2
 548 43 551 38 621 35 c 1
 627 29 627 4 621 -2 c 1
 577 -1 531 0 502 0 c 0
 472 0 428 -1 387 -2 c 1
 381 4 381 29 387 35 c 1
 454 38 458 43 458 122 c 2
 458 305 l 1
 182 305 l 1
 182 122 l 2
 182 43 185 38 253 35 c 1
 259 29 259 4 253 -2 c 1
 211 -1 167 0 139 0 c 0
 108 0 62 -1 19 -2 c 1
 13 4 13 29 19 35 c 1
 90 39 91.8 43 92 122 c 2
 93 495 l 2
 93.2 570 92 575 20 578 c 1
 14 584 14 609 20 615 c 1
 63 614 107 613 139 613 c 0
 165 613 211 614 254 615 c 1
 260 609 260 584 254 578 c 1
 186 575 183 570 183 495 c 2
 182 345 l 1
 458 345 l 1
 458 495 l 2
 458 571 457 575 387 578 c 1
 381 584 381 609 387 615 c 1
 431 614 477 613 501 613 c 0
 525 613 578 614 621 615 c 1
 627 609 627 584 621 578 c 1
 551 574 548 569 548 495 c 2
 548 122 l 2
EndSplineSet
LCarets2: 1 0 
EndChar

StartChar: uni1E29
Encoding: 7721 7721 111
Width: 640
VWidth: 999
Flags: HW
HStem: -200 29<-118.953 -18.769> -96 32<-43.69 -13.645> -20 20<-61.333 -19> -2 37<31.0005 103.121 209.593 264 381.308 436.863 547.234 612.692> 434 56<317.632 424.174> 641 30<26.0654 97.676> 678 20<179.5 196.5>
VStem: -9 62<-165.259 -97.4563> 114 87<43.6131 362.493 389 631.836> 446 87<46.6228 412.453>
DStem2: -93 -96 -44 -67 0.384615 0.923077<45.6154 104>
LayerCount: 2
Fore
SplineSet
201 316.9 m 2
 201 122 l 2
 201 40 210 39 260.8 35 c 1
 266.8 29 266.8 4 260.8 -2 c 1
 230.7 -1 197 0 158 0 c 0
 115 0 73.3 -1 34.2 -2 c 1
 28.2 4 28.2 29 34.2 35 c 1
 101 37 114 39 114 122 c 2
 114 559 l 2
 114 634 107 639 36 641 c 1
 30 647 28 663 30 671 c 1
 70 674 167 688 192 698 c 1
 201 698 205 695 205 688 c 2
 205 688 201.3 648 201 583 c 2
 200.2 400 l 2
 200.2 386 206.6 389.2 210 393 c 0
 271 461 347 490 419 490 c 0
 454 490 489.2 478 506 456 c 0
 529.3 425.5 533 377 533 322 c 2
 533 122 l 2
 533 42 551 40 610 35 c 1
 615 29 615 4 610 -2 c 1
 567 -1 522 0 490 0 c 0
 456 0 419.3 -1 384 -2 c 1
 379 4 379 29 384 35 c 1
 436 40 446 41 446 122 c 2
 446 321 l 2
 446 351 444 378.2 434 398 c 0
 422.4 420.9 401.4 434 381 434 c 0
 320 434 256 396.3 218 359 c 0
 210 350.3 201 338 201 316.9 c 2
-42 -96 m 0
 -61 -96 -71 -97 -87 -102 c 1
 -93 -96 l 1
 -53 0 l 1
 -19 0 l 1
 -44 -67 l 1
 -36 -65 -27 -64 -18 -64 c 0
 22 -64 53 -88 53 -126 c 0
 53 -169 7 -200 -54 -200 c 0
 -86 -200 -103 -194 -128 -183 c 1
 -128 -171 -125 -164 -118 -157 c 1
 -91 -167 -80 -171 -60 -171 c 0
 -30 -171 -9 -157 -9 -131 c 0
 -9 -110 -19 -96 -42 -96 c 0
EndSplineSet
LCarets2: 1 0 
EndChar

StartChar: uni1E2A
Encoding: 7722 7722 112
Width: 640
VWidth: 999
Flags: HW
HStem: -2 37<15.77 73.3887 184.195 256.23 383.77 455.805 566.24 624.23> 321 42<172 468> 610 37<15.77 78.9854 182.336 256.23 383.77 457.664 564.839 624.23>
VStem: 82 90<44.8314 321 363 601.702> 468 90<45.1717 321 363 601.369>
LayerCount: 2
Fore
SplineSet
548 122 m 2
 548 43 551 38 621 35 c 1
 627 29 627 4 621 -2 c 1
 577 -1 531 0 502 0 c 0
 472 0 428 -1 387 -2 c 1
 381 4 381 29 387 35 c 1
 454 38 458 43 458 122 c 2
 458 305 l 1
 182 305 l 1
 182 122 l 2
 182 43 185 38 253 35 c 1
 259 29 259 4 253 -2 c 1
 211 -1 167 0 139 0 c 0
 108 0 62 -1 19 -2 c 1
 13 4 13 29 19 35 c 1
 90 39 91.8 43 92 122 c 2
 93 495 l 2
 93.2 570 92 575 20 578 c 1
 14 584 14 609 20 615 c 1
 63 614 107 613 139 613 c 0
 165 613 211 614 254 615 c 1
 260 609 260 584 254 578 c 1
 186 575 183 570 183 495 c 2
 182 345 l 1
 458 345 l 1
 458 495 l 2
 458 571 457 575 387 578 c 1
 381 584 381 609 387 615 c 1
 431 614 477 613 501 613 c 0
 525 613 578 614 621 615 c 1
 627 609 627 584 621 578 c 1
 551 574 548 569 548 495 c 2
 548 122 l 2
EndSplineSet
LCarets2: 1 0 
EndChar

StartChar: uni1E2B
Encoding: 7723 7723 113
Width: 640
VWidth: 999
Flags: HW
HStem: -2 37<31.0005 103.121 209.593 264 381.308 436.863 547.234 612.692> 434 56<317.632 424.174> 641 30<26.0654 97.676> 678 20<179.5 196.5>
VStem: 114 87<43.6131 362.493 389 631.836> 446 87<46.6228 412.453>
LayerCount: 2
Fore
SplineSet
201 316.9 m 2
 201 122 l 2
 201 40 210 39 260.8 35 c 1
 266.8 29 266.8 4 260.8 -2 c 1
 230.7 -1 197 0 158 0 c 0
 115 0 73.3 -1 34.2 -2 c 1
 28.2 4 28.2 29 34.2 35 c 1
 101 37 114 39 114 122 c 2
 114 559 l 2
 114 634 107 639 36 641 c 1
 30 647 28 663 30 671 c 1
 70 674 167 688 192 698 c 1
 201 698 205 695 205 688 c 2
 205 688 201.3 648 201 583 c 2
 200.2 400 l 2
 200.2 386 206.6 389.2 210 393 c 0
 271 461 347 490 419 490 c 0
 454 490 489.2 478 506 456 c 0
 529.3 425.5 533 377 533 322 c 2
 533 122 l 2
 533 42 551 40 610 35 c 1
 615 29 615 4 610 -2 c 1
 567 -1 522 0 490 0 c 0
 456 0 419.3 -1 384 -2 c 1
 379 4 379 29 384 35 c 1
 436 40 446 41 446 122 c 2
 446 321 l 2
 446 351 444 378.2 434 398 c 0
 422.4 420.9 401.4 434 381 434 c 0
 320 434 256 396.3 218 359 c 0
 210 350.3 201 338 201 316.9 c 2
EndSplineSet
LCarets2: 1 0 
EndChar

StartChar: uni1E2C
Encoding: 7724 7724 114
Width: 640
VWidth: 999
Flags: HW
HStem: -2 37<134.77 261.369 393.106 520.23> 610 37<134.77 261.544 393.281 520.23>
VStem: 281 93<51.4731 593.345>
LayerCount: 2
Fore
SplineSet
374 122 m 2
 374 45 381 39 527 35 c 1
 533 29 533 4 527 -2 c 1
 477 -1 405.6 0 328 0 c 0
 250 0 177 -1 128 -2 c 1
 122 4 122 29 128 35 c 1
 276 39 281 44 281 122 c 2
 281 491 l 2
 281 568 275 573 128 578 c 1
 122 584 122 610 128 616 c 1
 178 615 283 613 327 613 c 0
 373.5 613 478 615 527 616 c 1
 533 610 533 584 527 578 c 1
 379 574 374 568 374 491 c 2
 374 122 l 2
EndSplineSet
LCarets2: 1 0 
EndChar

StartChar: uni1E2D
Encoding: 7725 7725 115
Width: 640
VWidth: 999
Flags: HW
HStem: -2 37<95.77 264.608 95.77 264.608 407.599 567.23 407.599 567.23> 430 33<139.695 282.188 139.695 282.188> 590 115<289.017 371.153 289.017 371.153>
VStem: 274 112<604.714 689.88 604.714 689.88> 293 87<57.5216 420.403 57.5216 420.403>
LayerCount: 2
Fore
SplineSet
274 650 m 0
 274 678 305 705 332 705 c 0
 362 705 386 673 386 645 c 0
 386 621 359 590 328 590 c 0
 301 590 274 620 274 650 c 0
380 134 m 2
 380 86 383 67 398 57 c 0
 409 49 510 37 564 35 c 1
 570 29 570 4 564 -2 c 1
 521 -1 380 0 338 0 c 0
 293 0 141 -1 99 -2 c 1
 93 4 93 29 99 35 c 1
 148 37 264 49 275 57 c 0
 289 68 293 87 293 134 c 2
 293 364 l 2
 293 390 291.5 403 282 415 c 0
 273.2 426.1 237.5 428 142 430 c 1
 138 438 137 454.5 140 463 c 1
 183.8 465.8 268.6 473.7 314.2 481.9 c 0
 341 486.7 368.8 493 380 493 c 0
 386.8 493 394 486.5 394 480 c 0
 394 456.5 380 439.8 380 372 c 2
 380 134 l 2
EndSplineSet
LCarets2: 1 0 
EndChar

StartChar: uni1E2E
Encoding: 7726 7726 116
Width: 640
VWidth: 999
Flags: HW
HStem: -2 37<134.77 261.369 393.106 520.23> 610 37<134.77 261.544 393.281 520.23> 709 96<174.332 253.668 363.332 442.668> 782.5 107.4
VStem: 164.1 154.8 166 96<717.332 796.668> 281 93<51.4731 593.345> 355 96<717.332 796.668>
LayerCount: 2
Fore
SplineSet
374 122 m 2
 374 45 381 39 527 35 c 1
 533 29 533 4 527 -2 c 1
 477 -1 405.6 0 328 0 c 0
 250 0 177 -1 128 -2 c 1
 122 4 122 29 128 35 c 1
 276 39 281 44 281 122 c 2
 281 491 l 2
 281 568 275 573 128 578 c 1
 122 584 122 610 128 616 c 1
 178 615 283 613 327 613 c 0
 373.5 613 478 615 527 616 c 1
 533 610 533 584 527 578 c 1
 379 574 374 568 374 491 c 2
 374 122 l 2
355 757 m 0
 355 783 377 805 403 805 c 0
 429 805 451 783 451 757 c 0
 451 731 429 709 403 709 c 0
 377 709 355 731 355 757 c 0
271.1 889.9 m 1
 293.2 878.2 309.1 862.9 318.9 844.1 c 1
 228.7 802.6 l 1
 247.8 796.2 262 777.9 262 757 c 0
 262 731 240 709 214 709 c 0
 188 709 166 731 166 757 c 0
 166 766.3 168.9 775.1 173.7 782.6 c 1
 167.9 783.6 164.1 789.3 164.1 795.7 c 0
 164.1 801.9 165.6 806.3 175.6 814.2 c 2
 271.1 889.9 l 1
EndSplineSet
LCarets2: 1 0 
EndChar

StartChar: uni1E2F
Encoding: 7727 7727 117
Width: 640
VWidth: 999
Flags: HW
HStem: -2 37<95.77 264.608 407.599 567.23> 430 33<139.695 282.188> 597 95<212.016 289.984 391.016 468.984>
VStem: 204 94<604.394 684.312> 293 87<57.5216 420.403> 383 94<604.394 684.312>
LayerCount: 2
Fore
SplineSet
204 644 m 0
 204 670 225 692 251 692 c 0
 277 692 298 670 298 644 c 0
 298 618 277 597 251 597 c 0
 225 597 204 618 204 644 c 0
383 644 m 0
 383 670 404 692 430 692 c 0
 456 692 477 670 477 644 c 0
 477 618 456 597 430 597 c 0
 404 597 383 618 383 644 c 0
380 134 m 2
 380 86 383 67 398 57 c 0
 409 49 510 37 564 35 c 1
 570 29 570 4 564 -2 c 1
 521 -1 380 0 338 0 c 0
 293 0 141 -1 99 -2 c 1
 93 4 93 29 99 35 c 1
 148 37 264 49 275 57 c 0
 289 68 293 87 293 134 c 2
 293 364 l 2
 293 390 291.5 403 282 415 c 0
 273.2 426.1 237.5 428 142 430 c 1
 138 438 137 454.5 140 463 c 1
 183.8 465.8 268.6 473.7 314.2 481.9 c 0
 341 486.7 368.8 493 380 493 c 0
 386.8 493 394 486.5 394 480 c 0
 394 456.5 380 439.8 380 372 c 2
 380 134 l 2
99.2 758.5 m 1
 101.5 759.4 106 760.3 109.9 760.3 c 0
 114.8 760.3 134.6 759.4 152.3 740 c 1
 154.6 730.4 l 1
 66 634.4 l 2
 54.5 621.2 48.4 617.7 43 617.7 c 0
 37.6 617.7 32.2 623 32.2 629.2 c 0
 32.2 639.1 34.7 642.5 41 653.8 c 2
 99.2 758.5 l 1
EndSplineSet
LCarets2: 1 0 
EndChar

StartChar: uni1E30
Encoding: 7728 7728 118
Width: 640
VWidth: 999
Flags: HW
HStem: -2 37<35.77 99.1423 211.382 281.23 567.286 620.23> 314 29<201 251.96> 610 37<35.77 97.3913 215.914 291.23 403.77 461.743 549.061 608.23> 697 122
VStem: 108 93<43.666 597.619> 270 201
DStem2: 285 384 367 407 0.676873 0.7361<12.9166 274.026> 345 333 289 271 0.617287 -0.786738<-27.3958 328.227>
LayerCount: 2
Fore
SplineSet
201 122 m 2
 201 43 208 38 278 35 c 1
 284 29 284 4 278 -2 c 1
 234 -1 188 0 159 0 c 0
 132 0 84 -1 39 -2 c 1
 33 4 33 29 39 35 c 1
 103 39 108 43 108 122 c 2
 108 491 l 2
 108 570 98 574 39 578 c 1
 33 584 33 609 39 615 c 1
 83 614 130 613 158 613 c 0
 189 613 239 614 288 615 c 1
 294 609 294 584 288 578 c 1
 218 575 201 570 201 491 c 2
 201 326 l 1
 239 328 263 342 285 365 c 2
 445 530 l 2
 484.1 570.3 445 575 407 578 c 1
 401 584 401 609 407 615 c 1
 447 614 489 613 515 613 c 0
 539 613 573 614 605 615 c 1
 611 609 611 584 605 578 c 1
 563 576 555 573 509 526 c 1
 367 387 l 2
 333 354 332 347 332 340 c 0
 332 332 337 325 345 316 c 2
 549 69 l 2
 575 38 582 37 617 35 c 1
 623 29 623 4 617 -2 c 1
 582 -1 544 0 526 0 c 0
 514 0 492 -1 472 -2 c 0
 468 -2 467 1 467 4 c 0
 465 19 450 44 431 69 c 2
 289 257 l 2
 264 291 245 298 201 298 c 1
 201 122 l 2
409 819 m 1
 437.6 805.7 458.3 788.3 471 767 c 1
 327 709 l 2
 306 700 294 697 285 697 c 0
 276 697 270 704 270 712 c 0
 270 719 272 724 285 733 c 2
 409 819 l 1
EndSplineSet
LCarets2: 1 0 
EndChar

StartChar: uni1E31
Encoding: 7729 7729 119
Width: 640
VWidth: 999
Flags: HW
HStem: -2 37<50.77 107.565 219.378 263.23 525.126 592.589> 234 28<208 250.934> 445 37<344.411 386.965 480.126 561.589> 641 30<33.0654 107.462> 678 20<186.5 203.5>
VStem: 121 87<45.5645 632.031>
DStem2: 346 267 298 192 0.622111 -0.782929<-19.6303 262.778>
LayerCount: 2
Fore
SplineSet
167 692 m 1
 170 693 176 694 181 694 c 0
 182 694 183.5 694 185.3 693.9 c 0
 191 695.3 195.7 696.7 199 698 c 1
 208 698 212 695 212 688 c 2
 212 688 211.9 687.7 211.9 687.2 c 0
 219.6 683.8 228 678.7 236 671 c 1
 239 660 l 1
 208.8 631.3 l 1
 208.3 617.4 208 601.2 208 583 c 2
 208 262 l 1
 229 264 259 277 285 296 c 0
 314 317 348 356 374 388 c 0
 384 401 410 441 348 445 c 1
 341 452 341 475 348 482 c 1
 389 481 411 479 453 479 c 0
 493 479 517 481 558 482 c 1
 565 475 565 452 558 445 c 1
 513 441 470.8 431.2 437 396 c 2
 342 297 l 2
 338 293 338 290 338 286 c 0
 338 280 342 272 346 267 c 2
 493 82 l 2
 523 45 551 39 589 35 c 1
 596 28 596 5 589 -2 c 1
 556 -1 524 0 489 0 c 0
 456 0 452 -1 430 -2 c 0
 427 -2 427 0 426 3 c 0
 422 20 412 38 379 82 c 2
 298 192 l 2
 285 210 269 221 252 228 c 0
 241 232 231 233 208 234 c 1
 208 132 l 2
 208 49 219 39 260 35 c 1
 266 29 266 4 260 -2 c 1
 217 -1 204.5 0 169 0 c 0
 124.1 0 96 -1 54 -2 c 1
 48 4 48 29 54 35 c 1
 110 39 121 49 121 132 c 2
 121 548.1 l 1
 107.9 535.5 100.5 532 94 532 c 0
 87 532 80 538 80 545 c 0
 80 556.2 83.3 560.2 91.4 573 c 2
 116.1 611.9 l 1
 107.9 637.4 87 638.9 37 641 c 1
 31 647 29 663 31 671 c 1
 60.4 673.2 123.9 681.4 165.4 689.5 c 1
 167 692 l 1
EndSplineSet
LCarets2: 1 0 
EndChar

StartChar: uni1E32
Encoding: 7730 7730 120
Width: 640
VWidth: 999
Flags: HW
HStem: -2 37<35.77 99.1423 211.382 281.23 567.286 620.23> 314 29<201 251.96> 610 37<35.77 97.3913 215.914 291.23 403.77 461.743 549.061 608.23>
VStem: 108 93<43.666 597.619>
DStem2: 285 384 367 407 0.676873 0.7361<12.9166 274.026> 345 333 289 271 0.617287 -0.786738<-27.3958 328.227>
LayerCount: 2
Fore
SplineSet
201 122 m 2
 201 43 208 38 278 35 c 1
 284 29 284 4 278 -2 c 1
 234 -1 188 0 159 0 c 0
 132 0 84 -1 39 -2 c 1
 33 4 33 29 39 35 c 1
 103 39 108 43 108 122 c 2
 108 491 l 2
 108 570 98 574 39 578 c 1
 33 584 33 609 39 615 c 1
 83 614 130 613 158 613 c 0
 189 613 239 614 288 615 c 1
 294 609 294 584 288 578 c 1
 218 575 201 570 201 491 c 2
 201 326 l 1
 239 328 263 342 285 365 c 2
 445 530 l 2
 484.1 570.3 445 575 407 578 c 1
 401 584 401 609 407 615 c 1
 447 614 489 613 515 613 c 0
 539 613 573 614 605 615 c 1
 611 609 611 584 605 578 c 1
 563 576 555 573 509 526 c 1
 367 387 l 2
 333 354 332 347 332 340 c 0
 332 332 337 325 345 316 c 2
 549 69 l 2
 575 38 582 37 617 35 c 1
 623 29 623 4 617 -2 c 1
 582 -1 544 0 526 0 c 0
 514 0 492 -1 472 -2 c 0
 468 -2 467 1 467 4 c 0
 465 19 450 44 431 69 c 2
 289 257 l 2
 264 291 245 298 201 298 c 1
 201 122 l 2
EndSplineSet
LCarets2: 1 0 
EndChar

StartChar: uni1E33
Encoding: 7731 7731 121
Width: 640
VWidth: 999
Flags: HW
HStem: -2 37<50.77 107.565 219.378 263.23 525.126 592.589> 234 28<208 250.934> 445 37<344.411 386.965 480.126 561.589> 641 30<33.0654 107.462> 678 20<186.5 203.5>
VStem: 121 87<45.5645 632.031>
DStem2: 346 267 298 192 0.622111 -0.782929<-19.6303 262.778>
LayerCount: 2
Fore
SplineSet
121 132 m 2
 121 559 l 2
 121 636 110 638 37 641 c 1
 31 647 29 663 31 671 c 1
 71 674 174 688 199 698 c 1
 208 698 212 695 212 688 c 2
 212 688 208 648 208 583 c 2
 208 262 l 1
 229 264 259 277 285 296 c 0
 314 317 348 356 374 388 c 0
 384 401 410 441 348 445 c 1
 341 452 341 475 348 482 c 1
 389 481 411 479 453 479 c 0
 493 479 517 481 558 482 c 1
 565 475 565 452 558 445 c 1
 513 441 470.8 431.2 437 396 c 2
 342 297 l 2
 338 293 338 290 338 286 c 0
 338 280 342 272 346 267 c 2
 493 82 l 2
 523 45 551 39 589 35 c 1
 596 28 596 5 589 -2 c 1
 556 -1 524 0 489 0 c 0
 456 0 452 -1 430 -2 c 0
 427 -2 427 0 426 3 c 0
 422 20 412 38 379 82 c 2
 298 192 l 2
 285 210 269 221 252 228 c 0
 241 232 231 233 208 234 c 1
 208 132 l 2
 208 49 219 39 260 35 c 1
 266 29 266 4 260 -2 c 1
 217 -1 204.5 0 169 0 c 0
 124.1 0 96 -1 54 -2 c 1
 48 4 48 29 54 35 c 1
 110 39 121 49 121 132 c 2
EndSplineSet
LCarets2: 1 0 
EndChar

StartChar: uni1E34
Encoding: 7732 7732 122
Width: 640
VWidth: 999
Flags: HW
HStem: -131 44<220.058 457.638> -2 37<35.77 99.1423 211.382 281.23 567.286 620.23> 314 29<201 251.96> 610 37<35.77 97.3913 215.914 291.23 403.77 461.743 549.061 608.23>
VStem: 108 93<43.666 597.619> 219 240<-130.948 -87>
DStem2: 285 384 367 407 0.676873 0.7361<12.9166 274.026> 345 333 289 271 0.617287 -0.786738<-27.3958 328.227>
LayerCount: 2
Fore
SplineSet
201 122 m 2
 201 43 208 38 278 35 c 1
 284 29 284 4 278 -2 c 1
 234 -1 188 0 159 0 c 0
 132 0 84 -1 39 -2 c 1
 33 4 33 29 39 35 c 1
 103 39 108 43 108 122 c 2
 108 491 l 2
 108 570 98 574 39 578 c 1
 33 584 33 609 39 615 c 1
 83 614 130 613 158 613 c 0
 189 613 239 614 288 615 c 1
 294 609 294 584 288 578 c 1
 218 575 201 570 201 491 c 2
 201 326 l 1
 239 328 263 342 285 365 c 2
 445 530 l 2
 484.1 570.3 445 575 407 578 c 1
 401 584 401 609 407 615 c 1
 447 614 489 613 515 613 c 0
 539 613 573 614 605 615 c 1
 611 609 611 584 605 578 c 1
 563 576 555 573 509 526 c 1
 367 387 l 2
 333 354 332 347 332 340 c 0
 332 332 337 325 345 316 c 2
 549 69 l 2
 575 38 582 37 617 35 c 1
 623 29 623 4 617 -2 c 1
 582 -1 544 0 526 0 c 0
 514 0 492 -1 472 -2 c 0
 468 -2 467 1 467 4 c 0
 465 19 450 44 431 69 c 2
 289 257 l 2
 264 291 245 298 201 298 c 1
 201 122 l 2
436 -131 m 2
 231 -131 l 2
 223 -131 219 -123 219 -116 c 0
 219 -104 229 -87 241 -87 c 2
 446 -87 l 2
 455 -87 459 -94 459 -101 c 0
 459 -113 449 -131 436 -131 c 2
EndSplineSet
LCarets2: 1 0 
EndChar

StartChar: uni1E35
Encoding: 7733 7733 123
Width: 640
VWidth: 999
Flags: HW
HStem: -131 44<144.058 381.638> -2 37<50.77 107.565 219.378 263.23 525.126 592.589> 234 28<208 250.934> 445 37<344.411 386.965 480.126 561.589> 641 30<33.0654 107.462> 678 20<186.5 203.5>
VStem: 121 87<45.5645 632.031> 143 240<-130.948 -87>
DStem2: 346 267 298 192 0.622111 -0.782929<-19.6303 262.778>
LayerCount: 2
Fore
SplineSet
121 132 m 2
 121 559 l 2
 121 636 110 638 37 641 c 1
 31 647 29 663 31 671 c 1
 71 674 174 688 199 698 c 1
 208 698 212 695 212 688 c 2
 212 688 208 648 208 583 c 2
 208 262 l 1
 229 264 259 277 285 296 c 0
 314 317 348 356 374 388 c 0
 384 401 410 441 348 445 c 1
 341 452 341 475 348 482 c 1
 389 481 411 479 453 479 c 0
 493 479 517 481 558 482 c 1
 565 475 565 452 558 445 c 1
 513 441 470.8 431.2 437 396 c 2
 342 297 l 2
 338 293 338 290 338 286 c 0
 338 280 342 272 346 267 c 2
 493 82 l 2
 523 45 551 39 589 35 c 1
 596 28 596 5 589 -2 c 1
 556 -1 524 0 489 0 c 0
 456 0 452 -1 430 -2 c 0
 427 -2 427 0 426 3 c 0
 422 20 412 38 379 82 c 2
 298 192 l 2
 285 210 269 221 252 228 c 0
 241 232 231 233 208 234 c 1
 208 132 l 2
 208 49 219 39 260 35 c 1
 266 29 266 4 260 -2 c 1
 217 -1 204.5 0 169 0 c 0
 124.1 0 96 -1 54 -2 c 1
 48 4 48 29 54 35 c 1
 110 39 121 49 121 132 c 2
360 -131 m 2
 155 -131 l 2
 147 -131 143 -123 143 -116 c 0
 143 -104 153 -87 165 -87 c 2
 370 -87 l 2
 379 -87 383 -94 383 -101 c 0
 383 -113 373 -131 360 -131 c 2
EndSplineSet
LCarets2: 1 0 
EndChar

StartChar: uni1E36
Encoding: 7734 7734 124
Width: 640
VWidth: 999
Flags: HW
HStem: -2 37<63.77 139.086> 0 51<253.097 492.1> 610 37<63.77 139.086 261.914 337.23>
VStem: 154 93<56.9045 597.619> 555 35<164.248 239.566>
LayerCount: 2
Fore
SplineSet
197 0 m 1
 197 0 116 -1 67 -2 c 1
 61 4 61 29 67 35 c 1
 137 38 154 43 154 122 c 2
 154 491 l 2
 154 570 137 575 67 578 c 1
 61 584 61 609 67 615 c 1
 108 614 149.3 613 202 613 c 0
 253.5 613 294 614 334 615 c 1
 340 609 340 584 334 578 c 1
 264 575 247 570 247 491 c 2
 247 96 l 2
 247 67 265 50 294 50 c 2
 414 50 l 2
 507 50 527 90 555 229 c 1
 567 231 580 229 590 225 c 1
 587 172 574 46 564 -2 c 1
 564 -2 472 0 445 0 c 2
 197 0 l 1
EndSplineSet
LCarets2: 1 0 
EndChar

StartChar: uni1E37
Encoding: 7735 7735 125
Width: 640
VWidth: 999
Flags: HW
HStem: -2 37<87.27 268.39 393.604 564.73> 623 33<128.75 236.655> 678 20<352 369>
VStem: 286.5 87<52.5213 611.726>
LayerCount: 2
Fore
SplineSet
286.5 129 m 2
 286.5 538 l 2
 286.5 579.7 283.4 609.9 273 618.5 c 0
 250.3 637.3 213 638 172.5 638 c 1
 166.5 644 166.5 663 168.5 671 c 1
 208.5 674 327.5 688 364.5 698 c 1
 373.5 698 377.5 695 377.5 688 c 2
 377.5 688 373.5 648 373.5 583 c 2
 373.5 129 l 2
 373.5 80 377 62 393 52 c 0
 404 45 536.5 36.2 561.5 35 c 1
 567.5 29 567.5 4 561.5 -2 c 1
 518.5 -1 420.6 0 330.5 0 c 0
 236.9 0 132.5 -1 90.5 -2 c 1
 84.5 4 84.5 29 90.5 35 c 1
 116.7 36.3 258 44 269 52 c 0
 283 63 286.5 81.7 286.5 129 c 2
EndSplineSet
LCarets2: 1 0 
EndChar

StartChar: uni1E38
Encoding: 7736 7736 126
Width: 640
VWidth: 999
Flags: HW
HStem: -2 37<63.77 139.086> 0 51<253.097 492.1> 610 37<63.77 139.086 261.914 337.23>
VStem: 154 93<56.9045 597.619> 555 35<164.248 239.566>
LayerCount: 2
Fore
SplineSet
197 0 m 1
 197 0 116 -1 67 -2 c 1
 61 4 61 29 67 35 c 1
 137 38 154 43 154 122 c 2
 154 491 l 2
 154 570 137 575 67 578 c 1
 61 584 61 609 67 615 c 1
 108 614 149.3 613 202 613 c 0
 253.5 613 294 614 334 615 c 1
 340 609 340 584 334 578 c 1
 264 575 247 570 247 491 c 2
 247 96 l 2
 247 67 265 50 294 50 c 2
 414 50 l 2
 507 50 527 90 555 229 c 1
 567 231 580 229 590 225 c 1
 587 172 574 46 564 -2 c 1
 564 -2 472 0 445 0 c 2
 197 0 l 1
EndSplineSet
LCarets2: 1 0 
EndChar

StartChar: uni1E39
Encoding: 7737 7737 127
Width: 640
VWidth: 999
Flags: HW
HStem: -2 37<87.27 268.39 393.604 564.73> 623 33<128.75 236.655> 678 20<352 369>
VStem: 286.5 87<52.5213 611.726>
LayerCount: 2
Fore
SplineSet
286.5 129 m 2
 286.5 538 l 2
 286.5 579.7 283.4 609.9 273 618.5 c 0
 250.3 637.3 213 638 172.5 638 c 1
 166.5 644 166.5 663 168.5 671 c 1
 208.5 674 327.5 688 364.5 698 c 1
 373.5 698 377.5 695 377.5 688 c 2
 377.5 688 373.5 648 373.5 583 c 2
 373.5 129 l 2
 373.5 80 377 62 393 52 c 0
 404 45 536.5 36.2 561.5 35 c 1
 567.5 29 567.5 4 561.5 -2 c 1
 518.5 -1 420.6 0 330.5 0 c 0
 236.9 0 132.5 -1 90.5 -2 c 1
 84.5 4 84.5 29 90.5 35 c 1
 116.7 36.3 258 44 269 52 c 0
 283 63 286.5 81.7 286.5 129 c 2
EndSplineSet
LCarets2: 1 0 
EndChar

StartChar: uni1E3A
Encoding: 7738 7738 128
Width: 640
VWidth: 999
Flags: HW
HStem: -131 44<152.058 389.638> -2 37<63.77 139.086> 0 51<253.097 492.1> 610 37<63.77 139.086 261.914 337.23>
VStem: 151 240<-130.948 -87> 154 93<56.9045 597.619> 555 35<164.248 239.566>
LayerCount: 2
Fore
SplineSet
197 0 m 1
 197 0 116 -1 67 -2 c 1
 61 4 61 29 67 35 c 1
 137 38 154 43 154 122 c 2
 154 491 l 2
 154 570 137 575 67 578 c 1
 61 584 61 609 67 615 c 1
 108 614 149.3 613 202 613 c 0
 253.5 613 294 614 334 615 c 1
 340 609 340 584 334 578 c 1
 264 575 247 570 247 491 c 2
 247 96 l 2
 247 67 265 50 294 50 c 2
 414 50 l 2
 507 50 527 90 555 229 c 1
 567 231 580 229 590 225 c 1
 587 172 574 46 564 -2 c 1
 564 -2 472 0 445 0 c 2
 197 0 l 1
368 -131 m 2
 163 -131 l 2
 155 -131 151 -123 151 -116 c 0
 151 -104 161 -87 173 -87 c 2
 378 -87 l 2
 387 -87 391 -94 391 -101 c 0
 391 -113 381 -131 368 -131 c 2
EndSplineSet
LCarets2: 1 0 
EndChar

StartChar: uni1E3B
Encoding: 7739 7739 129
Width: 640
VWidth: 999
Flags: HW
HStem: -131 44<141.558 379.138> -2 37<87.27 268.39 393.604 564.73> 623 33<128.75 236.655> 678 20<352 369>
VStem: 140.5 240<-130.948 -87> 286.5 87<52.5213 611.726>
LayerCount: 2
Fore
SplineSet
357.5 -131 m 2
 152.5 -131 l 2
 144.5 -131 140.5 -123 140.5 -116 c 0
 140.5 -104 150.5 -87 162.5 -87 c 2
 367.5 -87 l 2
 376.5 -87 380.5 -94 380.5 -101 c 0
 380.5 -113 370.5 -131 357.5 -131 c 2
286.5 129 m 2
 286.5 538 l 2
 286.5 579.7 283.4 609.9 273 618.5 c 0
 250.3 637.3 213 638 172.5 638 c 1
 166.5 644 166.5 663 168.5 671 c 1
 208.5 674 327.5 688 364.5 698 c 1
 373.5 698 377.5 695 377.5 688 c 2
 377.5 688 373.5 648 373.5 583 c 2
 373.5 129 l 2
 373.5 80 377 62 393 52 c 0
 404 45 536.5 36.2 561.5 35 c 1
 567.5 29 567.5 4 561.5 -2 c 1
 518.5 -1 420.6 0 330.5 0 c 0
 236.9 0 132.5 -1 90.5 -2 c 1
 84.5 4 84.5 29 90.5 35 c 1
 116.7 36.3 258 44 269 52 c 0
 283 63 286.5 81.7 286.5 129 c 2
EndSplineSet
LCarets2: 1 0 
EndChar

StartChar: uni1E3C
Encoding: 7740 7740 130
Width: 640
VWidth: 999
Flags: HW
HStem: -2 37<63.77 139.086> 0 51<253.097 492.1> 610 37<63.77 139.086 261.914 337.23>
VStem: 154 93<56.9045 597.619> 555 35<164.248 239.566>
LayerCount: 2
Fore
SplineSet
197 0 m 1
 197 0 116 -1 67 -2 c 1
 61 4 61 29 67 35 c 1
 137 38 154 43 154 122 c 2
 154 491 l 2
 154 570 137 575 67 578 c 1
 61 584 61 609 67 615 c 1
 108 614 149.3 613 202 613 c 0
 253.5 613 294 614 334 615 c 1
 340 609 340 584 334 578 c 1
 264 575 247 570 247 491 c 2
 247 96 l 2
 247 67 265 50 294 50 c 2
 414 50 l 2
 507 50 527 90 555 229 c 1
 567 231 580 229 590 225 c 1
 587 172 574 46 564 -2 c 1
 564 -2 472 0 445 0 c 2
 197 0 l 1
EndSplineSet
LCarets2: 1 0 
EndChar

StartChar: uni1E3D
Encoding: 7741 7741 131
Width: 640
VWidth: 999
Flags: HW
HStem: -2 37<87.27 268.39 393.604 564.73> 623 33<128.75 236.655> 678 20<352 369>
VStem: 286.5 87<52.5213 611.726>
LayerCount: 2
Fore
SplineSet
286.5 129 m 2
 286.5 538 l 2
 286.5 579.7 283.4 609.9 273 618.5 c 0
 250.3 637.3 213 638 172.5 638 c 1
 166.5 644 166.5 663 168.5 671 c 1
 208.5 674 327.5 688 364.5 698 c 1
 373.5 698 377.5 695 377.5 688 c 2
 377.5 688 373.5 648 373.5 583 c 2
 373.5 129 l 2
 373.5 80 377 62 393 52 c 0
 404 45 536.5 36.2 561.5 35 c 1
 567.5 29 567.5 4 561.5 -2 c 1
 518.5 -1 420.6 0 330.5 0 c 0
 236.9 0 132.5 -1 90.5 -2 c 1
 84.5 4 84.5 29 90.5 35 c 1
 116.7 36.3 258 44 269 52 c 0
 283 63 286.5 81.7 286.5 129 c 2
EndSplineSet
LCarets2: 1 0 
EndChar

StartChar: uni1E3E
Encoding: 7742 7742 132
Width: 640
VWidth: 999
Flags: HW
HStem: -2 37<5.77002 59.8991 135.015 192.23 412.77 474.66 574.311 635.23> 610 37<28.77 95.062 563.276 612.23> 697 122
VStem: 83.9 39.1<58.3672 303.141> 100 39<355.633 534> 325 201 479 78.3<165.488 544> 484.7 80.3<43.7055 501.512>
DStem2: 199 645 146 534 0.312825 -0.949811<88.8492 367.972> 472 645 474 544 0.360872 0.932615<-375.27 -93.4724>
LayerCount: 2
Fore
SplineSet
485 116 m 2
 479 517 l 1
 474 517 l 1
 308 109 l 2
 305 101 302 99 296 99 c 0
 290 99 287 102 284 109 c 2
 146 507 l 1
 139 507 l 1
 123 123 l 2
 120 42 122 38 194 35 c 1
 200 29 200 4 194 -2 c 1
 164 -1 119 0 95 0 c 0
 71 0 39 -1 9 -2 c 1
 3 4 3 29 9 35 c 1
 77 38 81 42 84 121 c 2
 100 506 l 2
 102.7 570 101 574 32 578 c 1
 26 584 26 609 32 615 c 1
 199 613 l 1
 315 292 l 2
 324 269 327 268 337 293 c 2
 472 613 l 1
 609 615 l 1
 615 609 615 584 609 578 c 1
 557 575 555.8 570 557 513 c 2
 565 121 l 2
 566.6 42 570 38 632 35 c 1
 638 29 638 4 632 -2 c 1
 599 -1 553 0 523 0 c 0
 493 0 452 -1 411 -2 c 1
 405 4 405 29 411 35 c 1
 481 40 486 44 485 116 c 2
464 819 m 1
 492.6 805.7 513.3 788.3 526 767 c 1
 382 709 l 2
 361 700 349 697 340 697 c 0
 331 697 325 704 325 712 c 0
 325 719 327 724 340 733 c 2
 464 819 l 1
EndSplineSet
LCarets2: 1 0 
EndChar

StartChar: uni1E3F
Encoding: 7743 7743 133
Width: 640
VWidth: 999
Flags: HW
HStem: -2 37<1.77002 61.2404 592.25 637.692> 435 55<211.337 275.567 421.965 489.587> 436 28<6.40149 57.4566>
VStem: 68 82<39.9792 385.149 425.467 428.353> 286 82<0 372.412> 504 82<40.2499 423.481>
CounterMasks: 1 1c
LayerCount: 2
Fore
SplineSet
150 132 m 2
 150 47.1 151.2 15 152 -2 c 1
 139.3 -1 122.3 0 111 0 c 0
 101 0 76.7 -1 66 -2 c 1
 67.5 12 68 43 68 132 c 2
 68 368 l 2
 68 426 62 431 8 436 c 1
 6 442 4 458 6 464 c 1
 75 473 102 482 130 493 c 1
 138 493 139.9 489.6 142 485 c 0
 146.7 474.7 150 459 150 419 c 0
 150 409.3 152.7 409.6 159 419 c 0
 194.8 471.8 230 490 268 490 c 0
 320 490 348.5 468.5 359 428.4 c 0
 361.6 418.5 365.3 420.8 371 428 c 0
 415.2 483.9 449.7 490 484 490 c 0
 572 490 586 419.8 586 331 c 2
 586 152 l 2
 586 41.7 586.3 38.3 635 35 c 1
 640 29 640 4 635 -2 c 1
 592 -1 589 0 548 0 c 0
 540.3 0 523 -1 512 -2 c 1
 505.7 13.3 504 44 504 152 c 2
 504 346 l 2
 504 413 486 435 448 435 c 0
 426.6 435 403 430.5 368 383 c 1
 368 132 l 2
 368 47.1 369.2 15 370 -2 c 1
 357.3 -1 340.3 0 329 0 c 0
 319 0 294.7 -1 284 -2 c 1
 285.5 12 286 43 286 132 c 2
 286 344 l 2
 286 411 274 435 236 435 c 0
 220 435 196 434.3 167 389 c 0
 160.6 379 150 358 150 337 c 2
 150 132 l 2
265 692 m 1
 268 693 274 694 279 694 c 0
 285.4 694 311 693 334 671 c 1
 337 660 l 1
 222 551 l 2
 207 536 199 532 192 532 c 0
 185 532 178 538 178 545 c 0
 178 556.2 181.3 560.2 189.4 573 c 2
 265 692 l 1
EndSplineSet
LCarets2: 1 0 
EndChar

StartChar: uni1E40
Encoding: 7744 7744 134
Width: 640
VWidth: 999
Flags: HW
HStem: -2 37<5.77002 59.8991 135.015 192.23 412.77 474.66 574.311 635.23> 610 37<28.77 95.062 563.276 612.23>
VStem: 83.9 39.1<58.3672 303.141> 100 39<355.633 534> 479 78.3<165.488 544> 484.7 80.3<43.7055 501.512>
DStem2: 199 645 146 534 0.312825 -0.949811<88.8492 367.972> 472 645 474 544 0.360872 0.932615<-375.27 -93.4724>
LayerCount: 2
Fore
SplineSet
485 116 m 2
 479 517 l 1
 474 517 l 1
 308 109 l 2
 305 101 302 99 296 99 c 0
 290 99 287 102 284 109 c 2
 146 507 l 1
 139 507 l 1
 123 123 l 2
 120 42 122 38 194 35 c 1
 200 29 200 4 194 -2 c 1
 164 -1 119 0 95 0 c 0
 71 0 39 -1 9 -2 c 1
 3 4 3 29 9 35 c 1
 77 38 81 42 84 121 c 2
 100 506 l 2
 102.7 570 101 574 32 578 c 1
 26 584 26 609 32 615 c 1
 199 613 l 1
 315 292 l 2
 324 269 327 268 337 293 c 2
 472 613 l 1
 609 615 l 1
 615 609 615 584 609 578 c 1
 557 575 555.8 570 557 513 c 2
 565 121 l 2
 566.6 42 570 38 632 35 c 1
 638 29 638 4 632 -2 c 1
 599 -1 553 0 523 0 c 0
 493 0 452 -1 411 -2 c 1
 405 4 405 29 411 35 c 1
 481 40 486 44 485 116 c 2
EndSplineSet
EndChar

StartChar: uni1E41
Encoding: 7745 7745 135
Width: 640
VWidth: 999
Flags: HW
HStem: -2 37<1.77002 61.2404 592.25 637.692> 435 55<211.337 275.567 421.965 489.587> 436 28<6.40149 57.4566>
VStem: 68 82<39.9792 385.149 425.467 428.353> 286 82<0 372.412> 504 82<40.2499 423.481>
CounterMasks: 1 1c
LayerCount: 2
Fore
SplineSet
150 132 m 2
 150 47.1 151.2 15 152 -2 c 1
 139.3 -1 122.3 0 111 0 c 0
 101 0 76.7 -1 66 -2 c 1
 67.5 12 68 43 68 132 c 2
 68 368 l 2
 68 426 62 431 8 436 c 1
 6 442 4 458 6 464 c 1
 75 473 102 482 130 493 c 1
 138 493 139.9 489.6 142 485 c 0
 146.7 474.7 150 459 150 419 c 0
 150 409.3 152.7 409.6 159 419 c 0
 194.8 471.8 230 490 268 490 c 0
 320 490 348.5 468.5 359 428.4 c 0
 361.6 418.5 365.3 420.8 371 428 c 0
 415.2 483.9 449.7 490 484 490 c 0
 572 490 586 419.8 586 331 c 2
 586 152 l 2
 586 41.7 586.3 38.3 635 35 c 1
 640 29 640 4 635 -2 c 1
 592 -1 589 0 548 0 c 0
 540.3 0 523 -1 512 -2 c 1
 505.7 13.3 504 44 504 152 c 2
 504 346 l 2
 504 413 486 435 448 435 c 0
 426.6 435 403 430.5 368 383 c 1
 368 132 l 2
 368 47.1 369.2 15 370 -2 c 1
 357.3 -1 340.3 0 329 0 c 0
 319 0 294.7 -1 284 -2 c 1
 285.5 12 286 43 286 132 c 2
 286 344 l 2
 286 411 274 435 236 435 c 0
 220 435 196 434.3 167 389 c 0
 160.6 379 150 358 150 337 c 2
 150 132 l 2
EndSplineSet
LCarets2: 1 0 
EndChar

StartChar: uni1E42
Encoding: 7746 7746 136
Width: 640
VWidth: 999
Flags: HW
HStem: -2 37<5.77002 59.8991 135.015 192.23 412.77 474.66 574.311 635.23> 610 37<28.77 95.062 563.276 612.23>
VStem: 83.9 39.1<58.3672 303.141> 100 39<355.633 534> 479 78.3<165.488 544> 484.7 80.3<43.7055 501.512>
DStem2: 199 645 146 534 0.312825 -0.949811<88.8492 367.972> 472 645 474 544 0.360872 0.932615<-375.27 -93.4724>
LayerCount: 2
Fore
SplineSet
485 116 m 2
 479 517 l 1
 474 517 l 1
 308 109 l 2
 305 101 302 99 296 99 c 0
 290 99 287 102 284 109 c 2
 146 507 l 1
 139 507 l 1
 123 123 l 2
 120 42 122 38 194 35 c 1
 200 29 200 4 194 -2 c 1
 164 -1 119 0 95 0 c 0
 71 0 39 -1 9 -2 c 1
 3 4 3 29 9 35 c 1
 77 38 81 42 84 121 c 2
 100 506 l 2
 102.7 570 101 574 32 578 c 1
 26 584 26 609 32 615 c 1
 199 613 l 1
 315 292 l 2
 324 269 327 268 337 293 c 2
 472 613 l 1
 609 615 l 1
 615 609 615 584 609 578 c 1
 557 575 555.8 570 557 513 c 2
 565 121 l 2
 566.6 42 570 38 632 35 c 1
 638 29 638 4 632 -2 c 1
 599 -1 553 0 523 0 c 0
 493 0 452 -1 411 -2 c 1
 405 4 405 29 411 35 c 1
 481 40 486 44 485 116 c 2
EndSplineSet
LCarets2: 1 0 
EndChar

StartChar: uni1E43
Encoding: 7747 7747 137
Width: 640
VWidth: 999
Flags: HW
HStem: -2 37<1.77002 61.2404 592.25 637.692> 435 55<211.337 275.567 421.965 489.587> 436 28<6.40149 57.4566>
VStem: 68 82<39.9792 385.149 425.467 428.353> 286 82<0 372.412> 504 82<40.2499 423.481>
CounterMasks: 1 1c
LayerCount: 2
Fore
SplineSet
150 132 m 2
 150 47.1 151.2 15 152 -2 c 1
 139.3 -1 122.3 0 111 0 c 0
 101 0 76.7 -1 66 -2 c 1
 67.5 12 68 43 68 132 c 2
 68 368 l 2
 68 426 62 431 8 436 c 1
 6 442 4 458 6 464 c 1
 75 473 102 482 130 493 c 1
 138 493 139.9 489.6 142 485 c 0
 146.7 474.7 150 459 150 419 c 0
 150 409.3 152.7 409.6 159 419 c 0
 194.8 471.8 230 490 268 490 c 0
 320 490 348.5 468.5 359 428.4 c 0
 361.6 418.5 365.3 420.8 371 428 c 0
 415.2 483.9 449.7 490 484 490 c 0
 572 490 586 419.8 586 331 c 2
 586 152 l 2
 586 41.7 586.3 38.3 635 35 c 1
 640 29 640 4 635 -2 c 1
 592 -1 589 0 548 0 c 0
 540.3 0 523 -1 512 -2 c 1
 505.7 13.3 504 44 504 152 c 2
 504 346 l 2
 504 413 486 435 448 435 c 0
 426.6 435 403 430.5 368 383 c 1
 368 132 l 2
 368 47.1 369.2 15 370 -2 c 1
 357.3 -1 340.3 0 329 0 c 0
 319 0 294.7 -1 284 -2 c 1
 285.5 12 286 43 286 132 c 2
 286 344 l 2
 286 411 274 435 236 435 c 0
 220 435 196 434.3 167 389 c 0
 160.6 379 150 358 150 337 c 2
 150 132 l 2
EndSplineSet
LCarets2: 1 0 
EndChar

StartChar: uni1E44
Encoding: 7748 7748 138
Width: 640
VWidth: 999
Flags: HW
HStem: -10 21<522 535.5> -2 37<16.3083 77.0861 157.488 221.692> 610 37<23.3083 66.2825 419.308 485.895 566.727 625.692>
VStem: 92 49<49.0152 487.989> 505 49<158.008 593.285>
DStem2: 157 645 179 455 0.568822 -0.822461<124.148 592.136>
LayerCount: 2
Fore
SplineSet
505 481 m 2
 505 567 485 571 422 578 c 1
 417 584 417 609 422 615 c 1
 461.7 614 508.3 613 530 613 c 0
 550.7 613 587 614 623 615 c 1
 628 609 628 584 623 578 c 1
 560 571 554 566 554 481 c 2
 554 20 l 2
 554 2 541 -10 528 -10 c 0
 514 -10 498.1 -6.4 484 13 c 2
 179 432 l 2
 162 455 153 464 148 464 c 0
 141 464 141 449 141 417 c 2
 141 132 l 2
 141 46 156 42 219 35 c 1
 224 29 224 4 219 -2 c 1
 182.7 -1 139.3 0 119 0 c 0
 94 0 53.3 -1 19 -2 c 1
 14 4 14 29 19 35 c 1
 82 42 92 47 92 132 c 2
 92 517 l 1
 87 542 65 575 26 578 c 1
 21 584 21 609 26 615 c 1
 157 613 l 1
 451 202 l 2
 476 166 491 150 494 150 c 0
 500 150 505 161 505 179 c 2
 505 481 l 2
EndSplineSet
EndChar

StartChar: uni1E45
Encoding: 7749 7749 139
Width: 640
VWidth: 999
Flags: HW
HStem: -2 37<32.77 103.279 213.085 266.23 378.308 432.325 542.743 609.692> 436 28<49.4015 102.594> 438 52<314.044 434.722>
VStem: 116 87<46.3481 362.482 401.34 426.213> 443 87<45.4888 401.103>
LayerCount: 2
Fore
SplineSet
212 389 m 0
 273 457 337 490 417 490 c 0
 452 490 481.4 476.7 500 456 c 0
 526 427 530 377 530 322 c 2
 530 126 l 2
 530 44 541 39.1 607 35 c 1
 612 29 612 4 607 -2 c 1
 564 -1 527 0 486 0 c 0
 446 0 423 -1 381 -2 c 1
 376 4 376 29 381 35 c 1
 433 40 443 44 443 126 c 2
 443 325 l 2
 443 355 440 383 428 402 c 0
 414.1 423.9 395 438 375 438 c 0
 314 438 258 396 220 359 c 0
 212 350 203 338 203 317 c 2
 203 126 l 2
 203 44 212 40 263 35 c 1
 269 29 269 4 263 -2 c 1
 221 -1 198 0 159 0 c 0
 116 0 77 -1 36 -2 c 1
 30 4 30 29 36 35 c 1
 106 41.1 116 44 116 126 c 2
 116 368 l 2
 116 426 105 431 51 436 c 1
 49 442 47 458 49 464 c 1
 118 473 155 482 183 493 c 1
 191 493 192.9 489.6 195 485 c 0
 199.7 474.7 203 450.1 203 389 c 0
 203 375 209 385 212 389 c 0
EndSplineSet
LCarets2: 1 0 
EndChar

StartChar: uni1E46
Encoding: 7750 7750 140
Width: 640
VWidth: 999
Flags: HW
HStem: -10 21<522 535.5> -2 37<16.3083 77.0861 157.488 221.692> 610 37<23.3083 66.2825 419.308 485.895 566.727 625.692>
VStem: 92 49<49.0152 487.989> 505 49<158.008 593.285>
DStem2: 157 645 179 455 0.568822 -0.822461<124.148 592.136>
LayerCount: 2
Fore
SplineSet
505 481 m 2
 505 567 485 571 422 578 c 1
 417 584 417 609 422 615 c 1
 461.7 614 508.3 613 530 613 c 0
 550.7 613 587 614 623 615 c 1
 628 609 628 584 623 578 c 1
 560 571 554 566 554 481 c 2
 554 20 l 2
 554 2 541 -10 528 -10 c 0
 514 -10 498.1 -6.4 484 13 c 2
 179 432 l 2
 162 455 153 464 148 464 c 0
 141 464 141 449 141 417 c 2
 141 132 l 2
 141 46 156 42 219 35 c 1
 224 29 224 4 219 -2 c 1
 182.7 -1 139.3 0 119 0 c 0
 94 0 53.3 -1 19 -2 c 1
 14 4 14 29 19 35 c 1
 82 42 92 47 92 132 c 2
 92 517 l 1
 87 542 65 575 26 578 c 1
 21 584 21 609 26 615 c 1
 157 613 l 1
 451 202 l 2
 476 166 491 150 494 150 c 0
 500 150 505 161 505 179 c 2
 505 481 l 2
EndSplineSet
LCarets2: 1 0 
EndChar

StartChar: uni1E47
Encoding: 7751 7751 141
Width: 640
VWidth: 999
Flags: HW
HStem: -2 37<32.77 103.279 213.085 266.23 378.308 432.325 542.743 609.692> 436 28<49.4015 102.594> 438 52<314.044 434.722>
VStem: 116 87<46.3481 362.482 401.34 426.213> 443 87<45.4888 401.103>
LayerCount: 2
Fore
SplineSet
212 389 m 0
 273 457 337 490 417 490 c 0
 452 490 481.4 476.7 500 456 c 0
 526 427 530 377 530 322 c 2
 530 126 l 2
 530 44 541 39.1 607 35 c 1
 612 29 612 4 607 -2 c 1
 564 -1 527 0 486 0 c 0
 446 0 423 -1 381 -2 c 1
 376 4 376 29 381 35 c 1
 433 40 443 44 443 126 c 2
 443 325 l 2
 443 355 440 383 428 402 c 0
 414.1 423.9 395 438 375 438 c 0
 314 438 258 396 220 359 c 0
 212 350 203 338 203 317 c 2
 203 126 l 2
 203 44 212 40 263 35 c 1
 269 29 269 4 263 -2 c 1
 221 -1 198 0 159 0 c 0
 116 0 77 -1 36 -2 c 1
 30 4 30 29 36 35 c 1
 106 41.1 116 44 116 126 c 2
 116 368 l 2
 116 426 105 431 51 436 c 1
 49 442 47 458 49 464 c 1
 118 473 155 482 183 493 c 1
 191 493 192.9 489.6 195 485 c 0
 199.7 474.7 203 450.1 203 389 c 0
 203 375 209 385 212 389 c 0
EndSplineSet
LCarets2: 1 0 
EndChar

StartChar: uni1E48
Encoding: 7752 7752 142
Width: 640
VWidth: 999
Flags: HW
HStem: -131 44<237.058 474.638> -10 21<522 535.5> -2 37<16.3083 77.0861 157.488 221.692> 610 37<23.3083 66.2825 419.308 485.895 566.727 625.692>
VStem: 92 49<49.0152 487.989> 236 240<-130.948 -87> 505 49<158.008 593.285>
DStem2: 157 645 179 455 0.568822 -0.822461<124.148 592.136>
LayerCount: 2
Fore
SplineSet
505 481 m 2
 505 567 485 571 422 578 c 1
 417 584 417 609 422 615 c 1
 461.7 614 508.3 613 530 613 c 0
 550.7 613 587 614 623 615 c 1
 628 609 628 584 623 578 c 1
 560 571 554 566 554 481 c 2
 554 20 l 2
 554 2 541 -10 528 -10 c 0
 514 -10 498.1 -6.4 484 13 c 2
 179 432 l 2
 162 455 153 464 148 464 c 0
 141 464 141 449 141 417 c 2
 141 132 l 2
 141 46 156 42 219 35 c 1
 224 29 224 4 219 -2 c 1
 182.7 -1 139.3 0 119 0 c 0
 94 0 53.3 -1 19 -2 c 1
 14 4 14 29 19 35 c 1
 82 42 92 47 92 132 c 2
 92 517 l 1
 87 542 65 575 26 578 c 1
 21 584 21 609 26 615 c 1
 157 613 l 1
 451 202 l 2
 476 166 491 150 494 150 c 0
 500 150 505 161 505 179 c 2
 505 481 l 2
453 -131 m 2
 248 -131 l 2
 240 -131 236 -123 236 -116 c 0
 236 -104 246 -87 258 -87 c 2
 463 -87 l 2
 472 -87 476 -94 476 -101 c 0
 476 -113 466 -131 453 -131 c 2
EndSplineSet
LCarets2: 1 0 
EndChar

StartChar: uni1E49
Encoding: 7753 7753 143
Width: 640
VWidth: 999
Flags: HW
HStem: -131 44<143.058 380.638> -2 37<32.77 103.279 213.085 266.23 378.308 432.325 542.743 609.692> 436 28<49.4015 102.594> 438 52<314.044 434.722>
VStem: 116 87<46.3481 362.482 401.34 426.213> 142 240<-130.948 -87> 443 87<45.4888 401.103>
LayerCount: 2
Fore
SplineSet
212 389 m 0
 273 457 337 490 417 490 c 0
 452 490 481.4 476.7 500 456 c 0
 526 427 530 377 530 322 c 2
 530 126 l 2
 530 44 541 39.1 607 35 c 1
 612 29 612 4 607 -2 c 1
 564 -1 527 0 486 0 c 0
 446 0 423 -1 381 -2 c 1
 376 4 376 29 381 35 c 1
 433 40 443 44 443 126 c 2
 443 325 l 2
 443 355 440 383 428 402 c 0
 414.1 423.9 395 438 375 438 c 0
 314 438 258 396 220 359 c 0
 212 350 203 338 203 317 c 2
 203 126 l 2
 203 44 212 40 263 35 c 1
 269 29 269 4 263 -2 c 1
 221 -1 198 0 159 0 c 0
 116 0 77 -1 36 -2 c 1
 30 4 30 29 36 35 c 1
 106 41.1 116 44 116 126 c 2
 116 368 l 2
 116 426 105 431 51 436 c 1
 49 442 47 458 49 464 c 1
 118 473 155 482 183 493 c 1
 191 493 192.9 489.6 195 485 c 0
 199.7 474.7 203 450.1 203 389 c 0
 203 375 209 385 212 389 c 0
359 -131 m 2
 154 -131 l 2
 146 -131 142 -123 142 -116 c 0
 142 -104 152 -87 164 -87 c 2
 369 -87 l 2
 378 -87 382 -94 382 -101 c 0
 382 -113 372 -131 359 -131 c 2
EndSplineSet
LCarets2: 1 0 
EndChar

StartChar: uni1E4A
Encoding: 7754 7754 144
Width: 640
VWidth: 999
Flags: HW
HStem: -10 21<522 535.5> -2 37<16.3083 77.0861 157.488 221.692> 610 37<23.3083 66.2825 419.308 485.895 566.727 625.692>
VStem: 92 49<49.0152 487.989> 505 49<158.008 593.285>
DStem2: 157 645 179 455 0.568822 -0.822461<124.148 592.136>
LayerCount: 2
Fore
SplineSet
505 481 m 2
 505 567 485 571 422 578 c 1
 417 584 417 609 422 615 c 1
 461.7 614 508.3 613 530 613 c 0
 550.7 613 587 614 623 615 c 1
 628 609 628 584 623 578 c 1
 560 571 554 566 554 481 c 2
 554 20 l 2
 554 2 541 -10 528 -10 c 0
 514 -10 498.1 -6.4 484 13 c 2
 179 432 l 2
 162 455 153 464 148 464 c 0
 141 464 141 449 141 417 c 2
 141 132 l 2
 141 46 156 42 219 35 c 1
 224 29 224 4 219 -2 c 1
 182.7 -1 139.3 0 119 0 c 0
 94 0 53.3 -1 19 -2 c 1
 14 4 14 29 19 35 c 1
 82 42 92 47 92 132 c 2
 92 517 l 1
 87 542 65 575 26 578 c 1
 21 584 21 609 26 615 c 1
 157 613 l 1
 451 202 l 2
 476 166 491 150 494 150 c 0
 500 150 505 161 505 179 c 2
 505 481 l 2
EndSplineSet
LCarets2: 1 0 
EndChar

StartChar: uni1E4B
Encoding: 7755 7755 145
Width: 640
VWidth: 999
Flags: HW
HStem: -2 37<32.77 103.279 213.085 266.23 378.308 432.325 542.743 609.692> 436 28<49.4015 102.594> 438 52<314.044 434.722>
VStem: 116 87<46.3481 362.482 401.34 426.213> 443 87<45.4888 401.103>
LayerCount: 2
Fore
SplineSet
212 389 m 0
 273 457 337 490 417 490 c 0
 452 490 481.4 476.7 500 456 c 0
 526 427 530 377 530 322 c 2
 530 126 l 2
 530 44 541 39.1 607 35 c 1
 612 29 612 4 607 -2 c 1
 564 -1 527 0 486 0 c 0
 446 0 423 -1 381 -2 c 1
 376 4 376 29 381 35 c 1
 433 40 443 44 443 126 c 2
 443 325 l 2
 443 355 440 383 428 402 c 0
 414.1 423.9 395 438 375 438 c 0
 314 438 258 396 220 359 c 0
 212 350 203 338 203 317 c 2
 203 126 l 2
 203 44 212 40 263 35 c 1
 269 29 269 4 263 -2 c 1
 221 -1 198 0 159 0 c 0
 116 0 77 -1 36 -2 c 1
 30 4 30 29 36 35 c 1
 106 41.1 116 44 116 126 c 2
 116 368 l 2
 116 426 105 431 51 436 c 1
 49 442 47 458 49 464 c 1
 118 473 155 482 183 493 c 1
 191 493 192.9 489.6 195 485 c 0
 199.7 474.7 203 450.1 203 389 c 0
 203 375 209 385 212 389 c 0
EndSplineSet
LCarets2: 1 0 
EndChar

StartChar: uni1E4C
Encoding: 7756 7756 146
Width: 640
VWidth: 999
Flags: HW
HStem: -10 40<262.345 403.692> 618 40<243.518 383.377> 697.5 107.4
VStem: 34 97<189.353 457.47> 501.1 154.8 509 97<187.947 460.288>
LayerCount: 2
Fore
SplineSet
608.1 804.9 m 1
 630.2 793.2 646.1 777.9 655.9 759.1 c 1
 545 708 l 2
 528.8 700.1 519.5 697.5 512.6 697.5 c 0
 505.7 697.5 501.1 703.7 501.1 710.7 c 0
 501.1 716.9 502.6 721.3 512.6 729.2 c 2
 608.1 804.9 l 1
307 585 m 0
 227 585 131 501 131 311 c 0
 131 136 229 30 336 30 c 0
 436 30 509 130 509 294 c 0
 509 480 422 585 307 585 c 0
606 313 m 0
 606 221 585 164 549 110 c 0
 499 36 419 -10 318 -10 c 0
 163 -10 34 100 34 294 c 0
 34 400 59 457 99 514 c 0
 149 585 228 625 318 625 c 0
 481 625 606 507 606 313 c 0
EndSplineSet
LCarets2: 1 0 
EndChar

StartChar: uni1E4D
Encoding: 7757 7757 147
Width: 640
VWidth: 999
Flags: HW
HStem: -10 41<256.497 417.406> 449 41<224.832 386.04> 519 53<248.461 338.486> 570 55<137.759 230.68>
VStem: 60 96<144.93 336.691> 351 27<593.983 621.365> 484 96<133.429 338.358>
LayerCount: 2
Fore
SplineSet
233.2 768.5 m 1
 235.5 769.4 240 770.3 243.9 770.3 c 0
 248.8 770.3 268.6 769.4 286.3 750 c 1
 288.6 740.4 l 1
 200 644.4 l 2
 188.5 631.2 182.4 627.7 177 627.7 c 0
 171.6 627.7 166.2 633 166.2 639.2 c 0
 166.2 649.1 168.7 652.5 175 663.8 c 2
 233.2 768.5 l 1
60 230 m 0
 60 300 85 364 129 412 c 0
 174 460 240 490 321 490 c 0
 509 490 580 356 580 240 c 0
 580 172 556 101 500 52 c 0
 458 15 398 -10 319 -10 c 0
 144 -10 60 116 60 230 c 0
301 449 m 0
 184.9 449 156 354 156 255 c 0
 156 167 200 31 337 31 c 0
 400 31 484 60 484 203 c 0
 484 367 415 449 301 449 c 0
304 572 m 0
 326 572 337 582 351 624 c 1
 362 625 372 622 378 618 c 1
 366 558 337 519 291 519 c 0
 269 519 247 535 227 551 c 0
 210.5 564.2 190 570 173 570 c 0
 147 570 137 555 127 522 c 1
 116 520 106 521 100 527 c 1
 114 586 137 625 180 625 c 0
 210 625 233.5 606.9 252 591 c 0
 266.3 578.7 285 572 304 572 c 0
EndSplineSet
LCarets2: 1 0 
EndChar

StartChar: uni1E4E
Encoding: 7758 7758 148
Width: 640
VWidth: 999
Flags: HW
HStem: -10 40<262.345 403.692> 618 40<243.518 383.377> 706 92<234.347 311.653 644.347 721.653>
VStem: 34 97<189.353 457.47> 227 92<713.347 790.653> 509 97<187.947 460.288> 637 92<713.347 790.653>
LayerCount: 2
Fore
SplineSet
637 752 m 0
 637 777 658 798 683 798 c 0
 708 798 729 777 729 752 c 0
 729 727 708 706 683 706 c 0
 658 706 637 727 637 752 c 0
227 752 m 0
 227 777 248 798 273 798 c 0
 298 798 319 777 319 752 c 0
 319 727 298 706 273 706 c 0
 248 706 227 727 227 752 c 0
307 585 m 0
 227 585 131 501 131 311 c 0
 131 136 229 30 336 30 c 0
 436 30 509 130 509 294 c 0
 509 480 422 585 307 585 c 0
606 313 m 0
 606 221 585 164 549 110 c 0
 499 36 419 -10 318 -10 c 0
 163 -10 34 100 34 294 c 0
 34 400 59 457 99 514 c 0
 149 585 228 625 318 625 c 0
 481 625 606 507 606 313 c 0
EndSplineSet
LCarets2: 1 0 
EndChar

StartChar: uni1E4F
Encoding: 7759 7759 149
Width: 640
VWidth: 999
Flags: HW
HStem: -10 41<216.497 377.406> 449 41<184.832 346.04> 519 53<178.461 268.486> 570 55<67.759 160.68> 684 95<277.016 354.984 446.016 523.984>
VStem: 20 96<144.93 336.691> 269 94<691.394 771.312> 281 27<593.983 621.365> 438 94<691.394 771.312> 444 96<133.429 338.358>
LayerCount: 2
Fore
SplineSet
269 731 m 0
 269 757 290 779 316 779 c 0
 342 779 363 757 363 731 c 0
 363 705 342 684 316 684 c 0
 290 684 269 705 269 731 c 0
438 731 m 0
 438 757 459 779 485 779 c 0
 511 779 532 757 532 731 c 0
 532 705 511 684 485 684 c 0
 459 684 438 705 438 731 c 0
20 230 m 0
 20 300 45 364 89 412 c 0
 134 460 200 490 281 490 c 0
 469 490 540 356 540 240 c 0
 540 172 516 101 460 52 c 0
 418 15 358 -10 279 -10 c 0
 104 -10 20 116 20 230 c 0
261 449 m 0
 144.9 449 116 354 116 255 c 0
 116 167 160 31 297 31 c 0
 360 31 444 60 444 203 c 0
 444 367 375 449 261 449 c 0
234 572 m 0
 256 572 267 582 281 624 c 1
 292 625 302 622 308 618 c 1
 296 558 267 519 221 519 c 0
 199 519 177 535 157 551 c 0
 140.5 564.2 120 570 103 570 c 0
 77 570 67 555 57 522 c 1
 46 520 36 521 30 527 c 1
 44 586 67 625 110 625 c 0
 140 625 163.5 606.9 182 591 c 0
 196.3 578.7 215 572 234 572 c 0
EndSplineSet
LCarets2: 1 0 
EndChar

StartChar: uni1E50
Encoding: 7760 7760 150
Width: 640
VWidth: 999
Flags: HW
HStem: -10 40<262.345 403.692> 618 40<243.518 383.377> 699.5 105.6
VStem: 34 97<189.353 457.47> 37.4 163.2 509 97<187.947 460.288>
LayerCount: 2
Fore
SplineSet
95.9 805.1 m 1
 189.1 731.2 l 2
 197.6 724.2 200.6 718.9 200.6 712.7 c 0
 200.6 705.7 195.3 699.5 189.1 699.5 c 0
 182.9 699.5 172.2 702.1 156 710 c 2
 37.4 765.5 l 1
 51.5 781.1 69.6 794.9 95.9 805.1 c 1
307 585 m 0
 227 585 131 501 131 311 c 0
 131 136 229 30 336 30 c 0
 436 30 509 130 509 294 c 0
 509 480 422 585 307 585 c 0
606 313 m 0
 606 221 585 164 549 110 c 0
 499 36 419 -10 318 -10 c 0
 163 -10 34 100 34 294 c 0
 34 400 59 457 99 514 c 0
 149 585 228 625 318 625 c 0
 481 625 606 507 606 313 c 0
EndSplineSet
LCarets2: 1 0 
EndChar

StartChar: uni1E51
Encoding: 7761 7761 151
Width: 640
VWidth: 999
Flags: HW
HStem: -10 41<256.497 417.406> 449 41<224.832 386.04> 586 50<190.891 447.59>
VStem: 60 96<144.93 336.691> 189 261<586.239 636> 484 96<133.429 338.358>
LayerCount: 2
Fore
SplineSet
426 586 m 2
 202 586 l 2
 193 586 189 597 189 604 c 0
 189 616 200 636 211 636 c 2
 436 636 l 2
 446 636 450 625 450 619 c 0
 450 607 439 586 426 586 c 2
60 230 m 0
 60 300 85 364 129 412 c 0
 174 460 240 490 321 490 c 0
 509 490 580 356 580 240 c 0
 580 172 556 101 500 52 c 0
 458 15 398 -10 319 -10 c 0
 144 -10 60 116 60 230 c 0
301 449 m 0
 184.9 449 156 354 156 255 c 0
 156 167 200 31 337 31 c 0
 400 31 484 60 484 203 c 0
 484 367 415 449 301 449 c 0
74.5 776.5 m 1
 128.4 665.6 l 2
 132.2 656.8 133 650.7 133 644.5 c 0
 133 640.1 127.7 634.8 121.5 634.8 c 0
 116.9 634.8 111.5 639.2 99.2 652.4 c 2
 11.4 748.4 l 1
 12.9 758 l 1
 19.1 763.3 36.8 778.3 63 778.3 c 0
 66.8 778.3 71.4 777.4 74.5 776.5 c 1
EndSplineSet
LCarets2: 1 0 
EndChar

StartChar: uni1E52
Encoding: 7762 7762 152
Width: 640
VWidth: 999
Flags: HW
HStem: -10 40<262.345 403.692> 618 40<243.518 383.377> 697.5 107.4
VStem: 34 97<189.353 457.47> 496.1 154.8 509 97<187.947 460.288>
LayerCount: 2
Fore
SplineSet
603.1 804.9 m 1
 625.2 793.2 641.1 777.9 650.9 759.1 c 1
 540 708 l 2
 523.8 700.1 514.5 697.5 507.6 697.5 c 0
 500.7 697.5 496.1 703.7 496.1 710.7 c 0
 496.1 716.9 497.6 721.3 507.6 729.2 c 2
 603.1 804.9 l 1
307 585 m 0
 227 585 131 501 131 311 c 0
 131 136 229 30 336 30 c 0
 436 30 509 130 509 294 c 0
 509 480 422 585 307 585 c 0
606 313 m 0
 606 221 585 164 549 110 c 0
 499 36 419 -10 318 -10 c 0
 163 -10 34 100 34 294 c 0
 34 400 59 457 99 514 c 0
 149 585 228 625 318 625 c 0
 481 625 606 507 606 313 c 0
EndSplineSet
LCarets2: 1 0 
EndChar

StartChar: uni1E53
Encoding: 7763 7763 153
Width: 640
VWidth: 999
Flags: HW
HStem: -10 41<256.497 417.406> 449 41<224.832 386.04> 586 50<190.891 447.59>
VStem: 60 96<144.93 336.691> 189 261<586.239 636> 484 96<133.429 338.358>
LayerCount: 2
Fore
SplineSet
426 586 m 2
 202 586 l 2
 193 586 189 597 189 604 c 0
 189 616 200 636 211 636 c 2
 436 636 l 2
 446 636 450 625 450 619 c 0
 450 607 439 586 426 586 c 2
60 230 m 0
 60 300 85 364 129 412 c 0
 174 460 240 490 321 490 c 0
 509 490 580 356 580 240 c 0
 580 172 556 101 500 52 c 0
 458 15 398 -10 319 -10 c 0
 144 -10 60 116 60 230 c 0
301 449 m 0
 184.9 449 156 354 156 255 c 0
 156 167 200 31 337 31 c 0
 400 31 484 60 484 203 c 0
 484 367 415 449 301 449 c 0
165.2 785.5 m 1
 167.5 786.4 172 787.3 175.9 787.3 c 0
 180.8 787.3 200.6 786.4 218.3 767 c 1
 220.6 757.4 l 1
 132 661.4 l 2
 120.5 648.2 114.4 644.7 109 644.7 c 0
 103.6 644.7 98.2 650 98.2 656.2 c 0
 98.2 666.1 100.7 669.5 107 680.8 c 2
 165.2 785.5 l 1
EndSplineSet
LCarets2: 1 0 
EndChar

StartChar: uni1E54
Encoding: 7764 7764 154
Width: 640
VWidth: 999
Flags: HW
HStem: -2 37<45.77 126.554 266.974 364.23> 272 40<239.8 431.163> 612 40<57.7036 131.086 229.147 431.994> 697 122
VStem: 146 93<58.6613 285 315.407 592.13> 205 201 487 101<381.136 561.986>
LayerCount: 2
Fore
SplineSet
239 520 m 2
 239 302 l 1
 250 299 312 296 340 296 c 0
 448 296 487 339 487 442 c 0
 487 563 420 579 348 579 c 0
 268 579 239 555 239 520 c 2
146 491 m 2
 146 570 129 575 59 578 c 1
 53 584 53 609 59 615 c 1
 105.5 614 153.5 613 196 613 c 0
 236 613 327 619 356 619 c 0
 552 619 588 515 588 459 c 0
 588 373 547 258 345 258 c 0
 306 258 261 264 239 271 c 1
 239 122 l 2
 239 43 283 39 361 35 c 1
 367 29 367 4 361 -2 c 1
 311 -1 236.1 0 197 0 c 0
 150.5 0 98 -1 49 -2 c 1
 43 4 43 29 49 35 c 1
 119 38 146 43 146 122 c 2
 146 491 l 2
344 819 m 1
 372.6 805.7 393.3 788.3 406 767 c 1
 262 709 l 2
 241 700 229 697 220 697 c 0
 211 697 205 704 205 712 c 0
 205 719 207 724 220 733 c 2
 344 819 l 1
EndSplineSet
LCarets2: 1 0 
EndChar

StartChar: uni1E55
Encoding: 7765 7765 155
Width: 640
VWidth: 999
Flags: HW
HStem: -234 37<22.77 92.2003 209.358 300.23> -10 40<227.422 410.116> 430 31<24.4062 86.3618> 439 51<274.217 400.796>
VStem: 108 87<-183.644 5.98343 57.1131 369.995 406.815 415.613> 488 96<150.974 338.935>
LayerCount: 2
Fore
SplineSet
220 362 m 0
 207.9 345.3 195 322 195 299 c 2
 195 141 l 1
 203.5 83 276.7 32 323 32 c 0
 423 32 484 106 484 233 c 0
 484 359 445.6 439 336 439 c 0
 291 439 248.5 401.5 220 362 c 0
195 401 m 0
 195 393 201 393 204 397 c 0
 247.5 453.5 293.6 490 370 490 c 0
 508.6 490 580 399.5 580 263 c 0
 580 173 548 103 496 52 c 1
 450 9 392 -10 330 -10 c 0
 271 -10 227 13 195 48 c 1
 195 -106 l 2
 195 -188.6 206 -193 297 -197 c 1
 303 -203 303 -228 297 -234 c 1
 254 -233 208.6 -232 152 -232 c 0
 102.9 -232 68 -233 26 -234 c 1
 20 -228 20 -203 26 -197 c 1
 87 -194 108 -189 108 -106 c 2
 108 354 l 2
 108 419 86 424 26 430 c 1
 24 437 21 454 23 461 c 1
 100 471 145 482 176 494 c 1
 185 494 187 490 189 485 c 0
 194 473 195 434 195 401 c 0
173 692 m 1
 176 693 182 694 187 694 c 0
 193.4 694 219 693 242 671 c 1
 245 660 l 1
 130 551 l 2
 115 536 107 532 100 532 c 0
 93 532 86 538 86 545 c 0
 86 556.2 89.3 560.2 97.4 573 c 2
 173 692 l 1
EndSplineSet
LCarets2: 1 0 
EndChar

StartChar: uni1E56
Encoding: 7766 7766 156
Width: 640
VWidth: 999
Flags: HW
HStem: -2 37<45.77 126.554 266.974 364.23> 272 40<239.8 431.163> 612 40<57.7036 131.086 229.147 431.994>
VStem: 146 93<58.6613 285 315.407 592.13> 487 101<381.136 561.986>
LayerCount: 2
Fore
SplineSet
239 520 m 2
 239 302 l 1
 250 299 312 296 340 296 c 0
 448 296 487 339 487 442 c 0
 487 563 420 579 348 579 c 0
 268 579 239 555 239 520 c 2
146 491 m 2
 146 570 129 575 59 578 c 1
 53 584 53 609 59 615 c 1
 105.5 614 153.5 613 196 613 c 0
 236 613 327 619 356 619 c 0
 552 619 588 515 588 459 c 0
 588 373 547 258 345 258 c 0
 306 258 261 264 239 271 c 1
 239 122 l 2
 239 43 283 39 361 35 c 1
 367 29 367 4 361 -2 c 1
 311 -1 236.1 0 197 0 c 0
 150.5 0 98 -1 49 -2 c 1
 43 4 43 29 49 35 c 1
 119 38 146 43 146 122 c 2
 146 491 l 2
EndSplineSet
LCarets2: 1 0 
EndChar

StartChar: uni1E57
Encoding: 7767 7767 157
Width: 640
VWidth: 999
Flags: HW
HStem: -234 37<22.77 92.2003 209.358 300.23> -10 40<227.422 410.116> 430 31<24.4062 86.3618> 439 51<274.217 400.796>
VStem: 108 87<-183.644 5.98343 57.1131 369.995 406.815 415.613> 488 96<150.974 338.935>
LayerCount: 2
Fore
SplineSet
220 362 m 0
 207.9 345.3 195 322 195 299 c 2
 195 141 l 1
 203.5 83 276.7 32 323 32 c 0
 423 32 484 106 484 233 c 0
 484 359 445.6 439 336 439 c 0
 291 439 248.5 401.5 220 362 c 0
195 401 m 0
 195 393 201 393 204 397 c 0
 247.5 453.5 293.6 490 370 490 c 0
 508.6 490 580 399.5 580 263 c 0
 580 173 548 103 496 52 c 1
 450 9 392 -10 330 -10 c 0
 271 -10 227 13 195 48 c 1
 195 -106 l 2
 195 -188.6 206 -193 297 -197 c 1
 303 -203 303 -228 297 -234 c 1
 254 -233 208.6 -232 152 -232 c 0
 102.9 -232 68 -233 26 -234 c 1
 20 -228 20 -203 26 -197 c 1
 87 -194 108 -189 108 -106 c 2
 108 354 l 2
 108 419 86 424 26 430 c 1
 24 437 21 454 23 461 c 1
 100 471 145 482 176 494 c 1
 185 494 187 490 189 485 c 0
 194 473 195 434 195 401 c 0
EndSplineSet
LCarets2: 1 0 
EndChar

StartChar: uni1E58
Encoding: 7768 7768 158
Width: 640
VWidth: 999
Flags: HW
HStem: -10 21<549 586.5> -3 28<580.497 622.335> -2 37<13.77 86.8988 207.914 283.23> 291 34<193 300.792> 610 42<15.7036 88.8506 182.067 387.35>
VStem: 100 93<47.3809 291 325 588.106> 439 100<402.005 561.463>
DStem2: 396 308 330 253 0.543583 -0.839356<1.10511 315.581>
LayerCount: 2
Fore
SplineSet
296 578 m 0
 225 578 193 548 193 520 c 2
 193 309 l 1
 261 309 l 2
 358 309 439 335 439 454 c 0
 439 566 357 578 296 578 c 0
193 122 m 2
 193 43 210 38 280 35 c 1
 286 29 286 4 280 -2 c 1
 234 -1 185.6 0 147 0 c 0
 109.9 0 61.5 -1 17 -2 c 1
 11 4 11 29 17 35 c 1
 87 38 100 43 100 122 c 2
 100 491 l 2
 100 570 87 575 17 578 c 1
 11 584 11 609 17 615 c 1
 60.5 614 109.7 613 146 613 c 0
 184 613 270 619 295 619 c 0
 358 619 439 619 487 576 c 0
 523 544 539 503 539 455 c 0
 539 355 439 306 396 293 c 1
 532 93 l 1
 558 52 581 27 620 24 c 1
 624 16 624 4 621 -3 c 1
 611 -8 594 -10 579 -10 c 0
 519 -10 476 31 447 75 c 1
 330 240 l 2
 315 262 277 276 193 276 c 1
 193 122 l 2
EndSplineSet
LCarets2: 1 0 
EndChar

StartChar: uni1E59
Encoding: 7769 7769 159
Width: 640
VWidth: 999
Flags: HW
HStem: -2 37<59.77 183.431 312.639 479.23> 424 66<429.173 543.175> 436 28<90.4015 186.001>
VStem: 203 87<49.4754 329.642 383.747 421.621>
LayerCount: 2
Fore
SplineSet
301 406 m 0
 301 373 302.4 364.9 311 374 c 0
 378 444.5 428 490 549 490 c 0
 594 490 606 459 606 439 c 0
 606 412 585 384 559 384 c 0
 539 384 524 399 513 411 c 0
 506 419 483 431.5 469 431.5 c 0
 430 431.5 381 390.5 325 328 c 0
 310.2 311.5 301 290 301 264 c 2
 301 126 l 2
 301 77 305 59 323 49 c 0
 335 43 441 36 476 35 c 1
 482 29 482 4 476 -2 c 1
 433 -1 311 0 270 0 c 0
 230 0 105 -1 63 -2 c 1
 57 4 57 29 63 35 c 1
 104 37 185.5 42.5 195 49 c 0
 209.9 59.2 214 78 214 126 c 2
 214 368 l 2
 214 401 211 414 198 422 c 0
 188 428 115.5 436 92 436 c 1
 90 442 88 458 90 464 c 1
 159 473 237 485.5 281 493 c 1
 289 493 291 490 293 485 c 0
 298 475 301 460.5 301 406 c 0
EndSplineSet
LCarets2: 1 0 
EndChar

StartChar: uni1E5A
Encoding: 7770 7770 160
Width: 640
VWidth: 999
Flags: HW
HStem: -10 21<549 586.5> -3 28<580.497 622.335> -2 37<13.77 86.8988 207.914 283.23> 291 34<193 300.792> 610 42<15.7036 88.8506 182.067 387.35>
VStem: 100 93<47.3809 291 325 588.106> 439 100<402.005 561.463>
DStem2: 396 308 330 253 0.543583 -0.839356<1.10511 315.581>
LayerCount: 2
Fore
SplineSet
296 578 m 0
 225 578 193 548 193 520 c 2
 193 309 l 1
 261 309 l 2
 358 309 439 335 439 454 c 0
 439 566 357 578 296 578 c 0
193 122 m 2
 193 43 210 38 280 35 c 1
 286 29 286 4 280 -2 c 1
 234 -1 185.6 0 147 0 c 0
 109.9 0 61.5 -1 17 -2 c 1
 11 4 11 29 17 35 c 1
 87 38 100 43 100 122 c 2
 100 491 l 2
 100 570 87 575 17 578 c 1
 11 584 11 609 17 615 c 1
 60.5 614 109.7 613 146 613 c 0
 184 613 270 619 295 619 c 0
 358 619 439 619 487 576 c 0
 523 544 539 503 539 455 c 0
 539 355 439 306 396 293 c 1
 532 93 l 1
 558 52 581 27 620 24 c 1
 624 16 624 4 621 -3 c 1
 611 -8 594 -10 579 -10 c 0
 519 -10 476 31 447 75 c 1
 330 240 l 2
 315 262 277 276 193 276 c 1
 193 122 l 2
EndSplineSet
LCarets2: 1 0 
EndChar

StartChar: uni1E5B
Encoding: 7771 7771 161
Width: 640
VWidth: 999
Flags: HW
HStem: -2 37<59.77 183.431 312.639 479.23> 424 66<429.173 543.175> 436 28<90.4015 186.001>
VStem: 203 87<49.4754 329.642 383.747 421.621>
LayerCount: 2
Fore
SplineSet
301 406 m 0
 301 373 302.4 364.9 311 374 c 0
 378 444.5 428 490 549 490 c 0
 594 490 606 459 606 439 c 0
 606 412 585 384 559 384 c 0
 539 384 524 399 513 411 c 0
 506 419 483 431.5 469 431.5 c 0
 430 431.5 381 390.5 325 328 c 0
 310.2 311.5 301 290 301 264 c 2
 301 126 l 2
 301 77 305 59 323 49 c 0
 335 43 441 36 476 35 c 1
 482 29 482 4 476 -2 c 1
 433 -1 311 0 270 0 c 0
 230 0 105 -1 63 -2 c 1
 57 4 57 29 63 35 c 1
 104 37 185.5 42.5 195 49 c 0
 209.9 59.2 214 78 214 126 c 2
 214 368 l 2
 214 401 211 414 198 422 c 0
 188 428 115.5 436 92 436 c 1
 90 442 88 458 90 464 c 1
 159 473 237 485.5 281 493 c 1
 289 493 291 490 293 485 c 0
 298 475 301 460.5 301 406 c 0
EndSplineSet
LCarets2: 1 0 
EndChar

StartChar: uni1E5C
Encoding: 7772 7772 162
Width: 640
VWidth: 999
Flags: HW
HStem: -10 21<549 586.5> -3 28<580.497 622.335> -2 37<13.77 86.8988 207.914 283.23> 291 34<193 300.792> 610 42<15.7036 88.8506 182.067 387.35>
VStem: 100 93<47.3809 291 325 588.106> 439 100<402.005 561.463>
DStem2: 396 308 330 253 0.543583 -0.839356<1.10511 315.581>
LayerCount: 2
Fore
SplineSet
296 578 m 0
 225 578 193 548 193 520 c 2
 193 309 l 1
 261 309 l 2
 358 309 439 335 439 454 c 0
 439 566 357 578 296 578 c 0
193 122 m 2
 193 43 210 38 280 35 c 1
 286 29 286 4 280 -2 c 1
 234 -1 185.6 0 147 0 c 0
 109.9 0 61.5 -1 17 -2 c 1
 11 4 11 29 17 35 c 1
 87 38 100 43 100 122 c 2
 100 491 l 2
 100 570 87 575 17 578 c 1
 11 584 11 609 17 615 c 1
 60.5 614 109.7 613 146 613 c 0
 184 613 270 619 295 619 c 0
 358 619 439 619 487 576 c 0
 523 544 539 503 539 455 c 0
 539 355 439 306 396 293 c 1
 532 93 l 1
 558 52 581 27 620 24 c 1
 624 16 624 4 621 -3 c 1
 611 -8 594 -10 579 -10 c 0
 519 -10 476 31 447 75 c 1
 330 240 l 2
 315 262 277 276 193 276 c 1
 193 122 l 2
EndSplineSet
LCarets2: 1 0 
EndChar

StartChar: uni1E5D
Encoding: 7773 7773 163
Width: 640
VWidth: 999
Flags: HW
HStem: -2 37<59.77 183.431 312.639 479.23> 424 66<429.173 543.175> 436 28<90.4015 186.001>
VStem: 203 87<49.4754 329.642 383.747 421.621>
LayerCount: 2
Fore
SplineSet
301 406 m 0
 301 373 302.4 364.9 311 374 c 0
 378 444.5 428 490 549 490 c 0
 594 490 606 459 606 439 c 0
 606 412 585 384 559 384 c 0
 539 384 524 399 513 411 c 0
 506 419 483 431.5 469 431.5 c 0
 430 431.5 381 390.5 325 328 c 0
 310.2 311.5 301 290 301 264 c 2
 301 126 l 2
 301 77 305 59 323 49 c 0
 335 43 441 36 476 35 c 1
 482 29 482 4 476 -2 c 1
 433 -1 311 0 270 0 c 0
 230 0 105 -1 63 -2 c 1
 57 4 57 29 63 35 c 1
 104 37 185.5 42.5 195 49 c 0
 209.9 59.2 214 78 214 126 c 2
 214 368 l 2
 214 401 211 414 198 422 c 0
 188 428 115.5 436 92 436 c 1
 90 442 88 458 90 464 c 1
 159 473 237 485.5 281 493 c 1
 289 493 291 490 293 485 c 0
 298 475 301 460.5 301 406 c 0
EndSplineSet
LCarets2: 1 0 
EndChar

StartChar: uni1E5E
Encoding: 7774 7774 164
Width: 640
VWidth: 999
Flags: HW
HStem: -131 44<197.058 434.638> -10 21<549 586.5> -3 28<580.497 622.335> -2 37<13.77 86.8988 207.914 283.23> 291 34<193 300.792> 610 42<15.7036 88.8506 182.067 387.35>
VStem: 100 93<47.3809 291 325 588.106> 196 240<-130.948 -87> 439 100<402.005 561.463>
DStem2: 396 308 330 253 0.543583 -0.839356<1.10511 315.581>
LayerCount: 2
Fore
SplineSet
296 578 m 0
 225 578 193 548 193 520 c 2
 193 309 l 1
 261 309 l 2
 358 309 439 335 439 454 c 0
 439 566 357 578 296 578 c 0
193 122 m 2
 193 43 210 38 280 35 c 1
 286 29 286 4 280 -2 c 1
 234 -1 185.6 0 147 0 c 0
 109.9 0 61.5 -1 17 -2 c 1
 11 4 11 29 17 35 c 1
 87 38 100 43 100 122 c 2
 100 491 l 2
 100 570 87 575 17 578 c 1
 11 584 11 609 17 615 c 1
 60.5 614 109.7 613 146 613 c 0
 184 613 270 619 295 619 c 0
 358 619 439 619 487 576 c 0
 523 544 539 503 539 455 c 0
 539 355 439 306 396 293 c 1
 532 93 l 1
 558 52 581 27 620 24 c 1
 624 16 624 4 621 -3 c 1
 611 -8 594 -10 579 -10 c 0
 519 -10 476 31 447 75 c 1
 330 240 l 2
 315 262 277 276 193 276 c 1
 193 122 l 2
413 -131 m 2
 208 -131 l 2
 200 -131 196 -123 196 -116 c 0
 196 -104 206 -87 218 -87 c 2
 423 -87 l 2
 432 -87 436 -94 436 -101 c 0
 436 -113 426 -131 413 -131 c 2
EndSplineSet
LCarets2: 1 0 
EndChar

StartChar: uni1E5F
Encoding: 7775 7775 165
Width: 640
VWidth: 999
Flags: HW
HStem: -131 44<68.058 305.638> -2 37<59.77 183.431 312.639 479.23> 424 66<429.173 543.175> 436 28<90.4015 186.001>
VStem: 67 240<-130.948 -87> 203 87<49.4754 329.642 383.747 421.621>
LayerCount: 2
Fore
SplineSet
301 406 m 0
 301 373 302.4 364.9 311 374 c 0
 378 444.5 428 490 549 490 c 0
 594 490 606 459 606 439 c 0
 606 412 585 384 559 384 c 0
 539 384 524 399 513 411 c 0
 506 419 483 431.5 469 431.5 c 0
 430 431.5 381 390.5 325 328 c 0
 310.2 311.5 301 290 301 264 c 2
 301 126 l 2
 301 77 305 59 323 49 c 0
 335 43 441 36 476 35 c 1
 482 29 482 4 476 -2 c 1
 433 -1 311 0 270 0 c 0
 230 0 105 -1 63 -2 c 1
 57 4 57 29 63 35 c 1
 104 37 185.5 42.5 195 49 c 0
 209.9 59.2 214 78 214 126 c 2
 214 368 l 2
 214 401 211 414 198 422 c 0
 188 428 115.5 436 92 436 c 1
 90 442 88 458 90 464 c 1
 159 473 237 485.5 281 493 c 1
 289 493 291 490 293 485 c 0
 298 475 301 460.5 301 406 c 0
284 -131 m 2
 79 -131 l 2
 71 -131 67 -123 67 -116 c 0
 67 -104 77 -87 89 -87 c 2
 294 -87 l 2
 303 -87 307 -94 307 -101 c 0
 307 -113 297 -131 284 -131 c 2
EndSplineSet
LCarets2: 1 0 
EndChar

StartChar: uni1E60
Encoding: 7776 7776 166
Width: 640
VWidth: 999
Flags: HW
HStem: -10 37<204.735 407.136> 621 37<239.917 404.846>
VStem: 61 40<121.575 167.476> 90 84<456.715 560.231> 471 100<108.312 221.758> 493 40<498.847 537.763>
LayerCount: 2
Fore
SplineSet
511 599 m 1
 523 549 529 523 533 477 c 1
 522 470 507 471 493 471 c 1
 469 534 430 588 312 588 c 0
 241 588 174 546 174 476 c 0
 174 396 293.5 360 370 352 c 0
 485 340 571 289 571 175 c 0
 571 108 526 56 457 22 c 0
 415 1 360 -10 305 -10 c 0
 197 -10 161 12 85 12 c 1
 71 59 66 84 61 157 c 1
 72 162 86 164 101 160 c 1
 128 65 202 28 315 28 c 0
 412 28 471 65 471 142 c 0
 471 243 404 269 305 279 c 0
 196.1 290 90 350 90 451 c 0
 90 578 200 625 323 625 c 0
 441 625 441 607 511 599 c 1
EndSplineSet
LCarets2: 1 0 
EndChar

StartChar: uni1E61
Encoding: 7777 7777 167
Width: 640
VWidth: 999
Flags: HW
HStem: -10 37<203.806 412.793> 1 21<114 129> 453 37<223.462 392.956>
VStem: 88 43<105.169 148.964> 105 75<333.228 418.134> 471 82<69.4771 163.168> 480 36<336.746 359.046>
LayerCount: 2
Fore
SplineSet
88 144 m 1
 97 153 117 158 131 156 c 1
 138 128 162 78 191 53 c 0
 209 38 255 27 312 27 c 0
 412 27 471 65 471 120 c 0
 471 168 428.5 189 286 213 c 0
 153 235.4 105 272.5 105 361 c 0
 105 441 213 490 322 490 c 0
 393 490 461.5 470.5 496 459 c 1
 504 427 510 389 516 342 c 1
 509 335 496 329 480 330 c 1
 438 402 400.5 453 322 453 c 0
 230 453 180 420 180 377 c 0
 180 321 248.5 302.5 358 285 c 0
 515.1 259.9 553 221 553 145 c 0
 553 30.5 448 -10 314 -10 c 0
 257.5 -10 205.5 -3 187 2 c 0
 179 4.2 165 5 157 5 c 0
 151 5 135 3 123 1 c 1
 105 42 92 89 88 144 c 1
EndSplineSet
LCarets2: 1 0 
EndChar

StartChar: uni1E62
Encoding: 7778 7778 168
Width: 640
VWidth: 999
Flags: HW
HStem: -10 37<204.735 407.136> 621 37<239.917 404.846>
VStem: 61 40<121.575 167.476> 90 84<456.715 560.231> 471 100<108.312 221.758> 493 40<498.847 537.763>
LayerCount: 2
Fore
SplineSet
511 599 m 1
 523 549 529 523 533 477 c 1
 522 470 507 471 493 471 c 1
 469 534 430 588 312 588 c 0
 241 588 174 546 174 476 c 0
 174 396 293.5 360 370 352 c 0
 485 340 571 289 571 175 c 0
 571 108 526 56 457 22 c 0
 415 1 360 -10 305 -10 c 0
 197 -10 161 12 85 12 c 1
 71 59 66 84 61 157 c 1
 72 162 86 164 101 160 c 1
 128 65 202 28 315 28 c 0
 412 28 471 65 471 142 c 0
 471 243 404 269 305 279 c 0
 196.1 290 90 350 90 451 c 0
 90 578 200 625 323 625 c 0
 441 625 441 607 511 599 c 1
EndSplineSet
LCarets2: 1 0 
EndChar

StartChar: uni1E63
Encoding: 7779 7779 169
Width: 640
VWidth: 999
Flags: HW
HStem: -10 37<203.806 412.793> 1 21<114 129> 453 37<223.462 392.956>
VStem: 88 43<105.169 148.964> 105 75<333.228 418.134> 471 82<69.4771 163.168> 480 36<336.746 359.046>
LayerCount: 2
Fore
SplineSet
88 144 m 1
 97 153 117 158 131 156 c 1
 138 128 162 78 191 53 c 0
 209 38 255 27 312 27 c 0
 412 27 471 65 471 120 c 0
 471 168 428.5 189 286 213 c 0
 153 235.4 105 272.5 105 361 c 0
 105 441 213 490 322 490 c 0
 393 490 461.5 470.5 496 459 c 1
 504 427 510 389 516 342 c 1
 509 335 496 329 480 330 c 1
 438 402 400.5 453 322 453 c 0
 230 453 180 420 180 377 c 0
 180 321 248.5 302.5 358 285 c 0
 515.1 259.9 553 221 553 145 c 0
 553 30.5 448 -10 314 -10 c 0
 257.5 -10 205.5 -3 187 2 c 0
 179 4.2 165 5 157 5 c 0
 151 5 135 3 123 1 c 1
 105 42 92 89 88 144 c 1
EndSplineSet
LCarets2: 1 0 
EndChar

StartChar: uni1E64
Encoding: 7780 7780 170
Width: 640
VWidth: 999
Flags: HW
HStem: -10 37<204.735 407.136> 621 37<239.917 404.846> 697 122 757 115<-60.983 21.153>
VStem: -76 112<771.714 856.88> 61 40<121.575 167.476> 90 84<456.715 560.231> 194 201 471 100<108.312 221.758> 493 40<498.847 537.763>
LayerCount: 2
Fore
SplineSet
511 599 m 1
 523 549 529 523 533 477 c 1
 522 470 507 471 493 471 c 1
 469 534 430 588 312 588 c 0
 241 588 174 546 174 476 c 0
 174 396 293.5 360 370 352 c 0
 485 340 571 289 571 175 c 0
 571 108 526 56 457 22 c 0
 415 1 360 -10 305 -10 c 0
 197 -10 161 12 85 12 c 1
 71 59 66 84 61 157 c 1
 72 162 86 164 101 160 c 1
 128 65 202 28 315 28 c 0
 412 28 471 65 471 142 c 0
 471 243 404 269 305 279 c 0
 196.1 290 90 350 90 451 c 0
 90 578 200 625 323 625 c 0
 441 625 441 607 511 599 c 1
333 819 m 1
 361.6 805.7 382.3 788.3 395 767 c 1
 251 709 l 2
 230 700 218 697 209 697 c 0
 200 697 194 704 194 712 c 0
 194 719 196 724 209 733 c 2
 333 819 l 1
-76 817 m 0
 -76 845 -45 872 -18 872 c 0
 12 872 36 840 36 812 c 0
 36 788 9 757 -22 757 c 0
 -49 757 -76 787 -76 817 c 0
EndSplineSet
LCarets2: 1 0 
EndChar

StartChar: uni1E65
Encoding: 7781 7781 171
Width: 640
VWidth: 999
Flags: HW
HStem: -10 37<203.806 412.793> 1 21<114 129> 453 37<223.462 392.956>
VStem: 88 43<105.169 148.964> 105 75<333.228 418.134> 471 82<69.4771 163.168> 480 36<336.746 359.046>
LayerCount: 2
Fore
SplineSet
100 692 m 1
 103 693 109 694 114 694 c 0
 120.4 694 146 693 169 671 c 1
 172 660 l 1
 57 551 l 2
 42 536 34 532 27 532 c 0
 20 532 13 538 13 545 c 0
 13 556.2 16.3 560.2 24.4 573 c 2
 100 692 l 1
88 144 m 1
 97 153 117 158 131 156 c 1
 138 128 162 78 191 53 c 0
 209 38 255 27 312 27 c 0
 412 27 471 65 471 120 c 0
 471 168 428.5 189 286 213 c 0
 153 235.4 105 272.5 105 361 c 0
 105 441 213 490 322 490 c 0
 393 490 461.5 470.5 496 459 c 1
 504 427 510 389 516 342 c 1
 509 335 496 329 480 330 c 1
 438 402 400.5 453 322 453 c 0
 230 453 180 420 180 377 c 0
 180 321 248.5 302.5 358 285 c 0
 515.1 259.9 553 221 553 145 c 0
 553 30.5 448 -10 314 -10 c 0
 257.5 -10 205.5 -3 187 2 c 0
 179 4.2 165 5 157 5 c 0
 151 5 135 3 123 1 c 1
 105 42 92 89 88 144 c 1
EndSplineSet
LCarets2: 1 0 
EndChar

StartChar: uni1E66
Encoding: 7782 7782 172
Width: 640
VWidth: 999
Flags: HW
HStem: -10 37<204.735 407.136> 621 37<239.917 404.846> 697 115 831 115<57.017 139.153>
VStem: 42 112<845.714 930.88> 61 40<121.575 167.476> 90 84<456.715 560.231> 114 244 471 100<108.312 221.758> 493 40<498.847 537.763>
LayerCount: 2
Fore
SplineSet
511 599 m 1
 523 549 529 523 533 477 c 1
 522 470 507 471 493 471 c 1
 469 534 430 588 312 588 c 0
 241 588 174 546 174 476 c 0
 174 396 293.5 360 370 352 c 0
 485 340 571 289 571 175 c 0
 571 108 526 56 457 22 c 0
 415 1 360 -10 305 -10 c 0
 197 -10 161 12 85 12 c 1
 71 59 66 84 61 157 c 1
 72 162 86 164 101 160 c 1
 128 65 202 28 315 28 c 0
 412 28 471 65 471 142 c 0
 471 243 404 269 305 279 c 0
 196.1 290 90 350 90 451 c 0
 90 578 200 625 323 625 c 0
 441 625 441 607 511 599 c 1
305 697 m 1
 275 734 240 764 204 792 c 1
 220 812 l 1
 259 795 293 776 326 751 c 1
 363 777 395 796 433 812 c 1
 448 792 l 1
 410 763 378 731 348 697 c 1
 305 697 l 1
42 891 m 0
 42 919 73 946 100 946 c 0
 130 946 154 914 154 886 c 0
 154 862 127 831 96 831 c 0
 69 831 42 861 42 891 c 0
EndSplineSet
LCarets2: 1 0 
EndChar

StartChar: uni1E67
Encoding: 7783 7783 173
Width: 640
VWidth: 999
Flags: HW
HStem: -10 37<203.806 412.793> 1 21<114 129> 453 37<223.462 392.956>
VStem: 88 43<105.169 148.964> 105 75<333.228 418.134> 471 82<69.4771 163.168> 480 36<336.746 359.046>
LayerCount: 2
Fore
SplineSet
295 584 m 1
 266 631 229 676 194 714 c 1
 214 727 l 1
 253 698 286 673 320 637 c 1
 357 675 391 700 428 727 c 1
 447 714 l 1
 412 675 374 630 345 584 c 1
 295 584 l 1
88 144 m 1
 97 153 117 158 131 156 c 1
 138 128 162 78 191 53 c 0
 209 38 255 27 312 27 c 0
 412 27 471 65 471 120 c 0
 471 168 428.5 189 286 213 c 0
 153 235.4 105 272.5 105 361 c 0
 105 441 213 490 322 490 c 0
 393 490 461.5 470.5 496 459 c 1
 504 427 510 389 516 342 c 1
 509 335 496 329 480 330 c 1
 438 402 400.5 453 322 453 c 0
 230 453 180 420 180 377 c 0
 180 321 248.5 302.5 358 285 c 0
 515.1 259.9 553 221 553 145 c 0
 553 30.5 448 -10 314 -10 c 0
 257.5 -10 205.5 -3 187 2 c 0
 179 4.2 165 5 157 5 c 0
 151 5 135 3 123 1 c 1
 105 42 92 89 88 144 c 1
EndSplineSet
LCarets2: 1 0 
EndChar

StartChar: uni1E68
Encoding: 7784 7784 174
Width: 640
VWidth: 999
Flags: HW
HStem: -10 37<204.735 407.136> 621 37<239.917 404.846>
VStem: 61 40<121.575 167.476> 90 84<456.715 560.231> 471 100<108.312 221.758> 493 40<498.847 537.763>
LayerCount: 2
Fore
SplineSet
511 599 m 1
 523 549 529 523 533 477 c 1
 522 470 507 471 493 471 c 1
 469 534 430 588 312 588 c 0
 241 588 174 546 174 476 c 0
 174 396 293.5 360 370 352 c 0
 485 340 571 289 571 175 c 0
 571 108 526 56 457 22 c 0
 415 1 360 -10 305 -10 c 0
 197 -10 161 12 85 12 c 1
 71 59 66 84 61 157 c 1
 72 162 86 164 101 160 c 1
 128 65 202 28 315 28 c 0
 412 28 471 65 471 142 c 0
 471 243 404 269 305 279 c 0
 196.1 290 90 350 90 451 c 0
 90 578 200 625 323 625 c 0
 441 625 441 607 511 599 c 1
EndSplineSet
LCarets2: 1 0 
EndChar

StartChar: uni1E69
Encoding: 7785 7785 175
Width: 640
VWidth: 999
Flags: HW
HStem: -10 37<203.806 412.793> 1 21<114 129> 453 37<223.462 392.956>
VStem: 88 43<105.169 148.964> 105 75<333.228 418.134> 471 82<69.4771 163.168> 480 36<336.746 359.046>
LayerCount: 2
Fore
SplineSet
88 144 m 1
 97 153 117 158 131 156 c 1
 138 128 162 78 191 53 c 0
 209 38 255 27 312 27 c 0
 412 27 471 65 471 120 c 0
 471 168 428.5 189 286 213 c 0
 153 235.4 105 272.5 105 361 c 0
 105 441 213 490 322 490 c 0
 393 490 461.5 470.5 496 459 c 1
 504 427 510 389 516 342 c 1
 509 335 496 329 480 330 c 1
 438 402 400.5 453 322 453 c 0
 230 453 180 420 180 377 c 0
 180 321 248.5 302.5 358 285 c 0
 515.1 259.9 553 221 553 145 c 0
 553 30.5 448 -10 314 -10 c 0
 257.5 -10 205.5 -3 187 2 c 0
 179 4.2 165 5 157 5 c 0
 151 5 135 3 123 1 c 1
 105 42 92 89 88 144 c 1
EndSplineSet
LCarets2: 1 0 
EndChar

StartChar: uni1E6A
Encoding: 7786 7786 176
Width: 640
VWidth: 999
Flags: HW
HStem: -2 37<143.77 263.761 396.889 517.23> 505 148<39.2285 57.8205 583.414 611.092> 606 39<110.86 270.688 390.118 528.202>
VStem: 16 34<502.785 541.578> 284 93<52.6944 597.249> 590 34<505.785 545.508>
LayerCount: 2
Fore
SplineSet
367 122 m 2
 367 43 384 37 504 35 c 1
 510 29 510 4 504 -2 c 1
 454 -1 392.4 0 321 0 c 0
 249.2 0 186 -1 137 -2 c 1
 131 4 131 29 137 35 c 1
 257 38 274 43 274 122 c 2
 274 482 l 2
 274 540 264 576 227 576 c 2
 192 576 l 2
 126 576 70 551 50 475 c 1
 38 475 26 476 16 480 c 1
 27 526 37 575 41 618 c 0
 41 619 43 620 45 620 c 0
 83 617 211 613 288 613 c 2
 374 613 l 2
 453 613 574 617 608 620 c 0
 609 620 611 619 611 618 c 0
 612 575 617 527 624 483 c 1
 615 479 601 478 590 478 c 1
 573 551 516 576 441 576 c 2
 413 576 l 2
 377 576 367 540 367 479 c 2
 367 122 l 2
EndSplineSet
LCarets2: 1 0 
EndChar

StartChar: uni1E6B
Encoding: 7787 7787 177
Width: 640
VWidth: 999
Flags: HW
HStem: -10 59<305.78 423.208> 416 44<71 188 275 523>
VStem: 188 87<81.247 416 460.103 619.553>
LayerCount: 2
Fore
SplineSet
89 440 m 2
 188 440.1 l 1
 188 551 185 594.4 185 606 c 0
 185 616 210 618 227 625.1 c 0
 242.7 631.7 264 642.8 271.3 642.8 c 0
 276 642.8 279 640.4 279 634 c 2
 279 634 275 594 275 529 c 2
 275 440 l 1
 495 440 l 2
 500 440 503 438 503 434 c 2
 503 409 l 2
 503 400 489 396 479 396 c 2
 275 396 l 1
 275 187 l 2
 275 69 326 49 377 49 c 0
 420.5 49 476.5 71 531 94 c 1
 541 93 547 76.3 549 66 c 1
 468 21 400.5 -10 342 -10 c 0
 254 -10 188 27 188 139 c 2
 188 396 l 1
 76 396 l 2
 72 396 71 397 71 402 c 2
 71 420 l 2
 71 428 75 440 89 440 c 2
EndSplineSet
EndChar

StartChar: uni1E6C
Encoding: 7788 7788 178
Width: 640
VWidth: 999
Flags: HW
HStem: -2 37<143.77 263.761 396.889 517.23> 505 148<39.2285 57.8205 583.414 611.092> 606 39<110.86 270.688 390.118 528.202>
VStem: 16 34<502.785 541.578> 284 93<52.6944 597.249> 590 34<505.785 545.508>
LayerCount: 2
Fore
SplineSet
367 122 m 2
 367 43 384 37 504 35 c 1
 510 29 510 4 504 -2 c 1
 454 -1 392.4 0 321 0 c 0
 249.2 0 186 -1 137 -2 c 1
 131 4 131 29 137 35 c 1
 257 38 274 43 274 122 c 2
 274 482 l 2
 274 540 264 576 227 576 c 2
 192 576 l 2
 126 576 70 551 50 475 c 1
 38 475 26 476 16 480 c 1
 27 526 37 575 41 618 c 0
 41 619 43 620 45 620 c 0
 83 617 211 613 288 613 c 2
 374 613 l 2
 453 613 574 617 608 620 c 0
 609 620 611 619 611 618 c 0
 612 575 617 527 624 483 c 1
 615 479 601 478 590 478 c 1
 573 551 516 576 441 576 c 2
 413 576 l 2
 377 576 367 540 367 479 c 2
 367 122 l 2
EndSplineSet
LCarets2: 1 0 
EndChar

StartChar: uni1E6D
Encoding: 7789 7789 179
Width: 640
VWidth: 999
Flags: HW
HStem: -10 59<305.78 423.208> 416 44<71 188 275 523>
VStem: 188 87<81.247 416 460.103 619.553>
LayerCount: 2
Fore
SplineSet
89 440 m 2
 188 440.1 l 1
 188 551 185 594.4 185 606 c 0
 185 616 210 618 227 625.1 c 0
 242.7 631.7 264 642.8 271.3 642.8 c 0
 276 642.8 279 640.4 279 634 c 2
 279 634 275 594 275 529 c 2
 275 440 l 1
 495 440 l 2
 500 440 503 438 503 434 c 2
 503 409 l 2
 503 400 489 396 479 396 c 2
 275 396 l 1
 275 187 l 2
 275 69 326 49 377 49 c 0
 420.5 49 476.5 71 531 94 c 1
 541 93 547 76.3 549 66 c 1
 468 21 400.5 -10 342 -10 c 0
 254 -10 188 27 188 139 c 2
 188 396 l 1
 76 396 l 2
 72 396 71 397 71 402 c 2
 71 420 l 2
 71 428 75 440 89 440 c 2
EndSplineSet
LCarets2: 1 0 
EndChar

StartChar: uni1E6E
Encoding: 7790 7790 180
Width: 640
VWidth: 999
Flags: HW
HStem: -131 44<181.058 418.638> -2 37<143.77 263.761 396.889 517.23> 505 148<39.2285 57.8205 583.414 611.092> 606 39<110.86 270.688 390.118 528.202>
VStem: 16 34<502.785 541.578> 180 240<-130.948 -87> 284 93<52.6944 597.249> 590 34<505.785 545.508>
LayerCount: 2
Fore
SplineSet
367 122 m 2
 367 43 384 37 504 35 c 1
 510 29 510 4 504 -2 c 1
 454 -1 392.4 0 321 0 c 0
 249.2 0 186 -1 137 -2 c 1
 131 4 131 29 137 35 c 1
 257 38 274 43 274 122 c 2
 274 482 l 2
 274 540 264 576 227 576 c 2
 192 576 l 2
 126 576 70 551 50 475 c 1
 38 475 26 476 16 480 c 1
 27 526 37 575 41 618 c 0
 41 619 43 620 45 620 c 0
 83 617 211 613 288 613 c 2
 374 613 l 2
 453 613 574 617 608 620 c 0
 609 620 611 619 611 618 c 0
 612 575 617 527 624 483 c 1
 615 479 601 478 590 478 c 1
 573 551 516 576 441 576 c 2
 413 576 l 2
 377 576 367 540 367 479 c 2
 367 122 l 2
397 -131 m 2
 192 -131 l 2
 184 -131 180 -123 180 -116 c 0
 180 -104 190 -87 202 -87 c 2
 407 -87 l 2
 416 -87 420 -94 420 -101 c 0
 420 -113 410 -131 397 -131 c 2
EndSplineSet
LCarets2: 1 0 
EndChar

StartChar: uni1E6F
Encoding: 7791 7791 181
Width: 640
VWidth: 999
Flags: HW
HStem: -131 44<53.558 291.138> -10 59<305.78 423.208> 416 44<71 188 275 523>
VStem: 52.5 240<-130.948 -87> 188 87<81.247 416 460.103 619.553>
LayerCount: 2
Fore
SplineSet
89 440 m 2
 188 440.1 l 1
 188 551 185 594.4 185 606 c 0
 185 616 210 618 227 625.1 c 0
 242.7 631.7 264 642.8 271.3 642.8 c 0
 276 642.8 279 640.4 279 634 c 2
 279 634 275 594 275 529 c 2
 275 440 l 1
 495 440 l 2
 500 440 503 438 503 434 c 2
 503 409 l 2
 503 400 489 396 479 396 c 2
 275 396 l 1
 275 187 l 2
 275 69 326 49 377 49 c 0
 420.5 49 476.5 71 531 94 c 1
 541 93 547 76.3 549 66 c 1
 468 21 400.5 -10 342 -10 c 0
 254 -10 188 27 188 139 c 2
 188 396 l 1
 76 396 l 2
 72 396 71 397 71 402 c 2
 71 420 l 2
 71 428 75 440 89 440 c 2
269.5 -131 m 2
 64.5 -131 l 2
 56.5 -131 52.5 -123 52.5 -116 c 0
 52.5 -104 62.5 -87 74.5 -87 c 2
 279.5 -87 l 2
 288.5 -87 292.5 -94 292.5 -101 c 0
 292.5 -113 282.5 -131 269.5 -131 c 2
EndSplineSet
LCarets2: 1 0 
EndChar

StartChar: uni1E70
Encoding: 7792 7792 182
Width: 640
VWidth: 999
Flags: HW
HStem: -2 37<143.77 263.761 396.889 517.23> 505 148<39.2285 57.8205 583.414 611.092> 606 39<110.86 270.688 390.118 528.202>
VStem: 16 34<502.785 541.578> 284 93<52.6944 597.249> 590 34<505.785 545.508>
LayerCount: 2
Fore
SplineSet
367 122 m 2
 367 43 384 37 504 35 c 1
 510 29 510 4 504 -2 c 1
 454 -1 392.4 0 321 0 c 0
 249.2 0 186 -1 137 -2 c 1
 131 4 131 29 137 35 c 1
 257 38 274 43 274 122 c 2
 274 482 l 2
 274 540 264 576 227 576 c 2
 192 576 l 2
 126 576 70 551 50 475 c 1
 38 475 26 476 16 480 c 1
 27 526 37 575 41 618 c 0
 41 619 43 620 45 620 c 0
 83 617 211 613 288 613 c 2
 374 613 l 2
 453 613 574 617 608 620 c 0
 609 620 611 619 611 618 c 0
 612 575 617 527 624 483 c 1
 615 479 601 478 590 478 c 1
 573 551 516 576 441 576 c 2
 413 576 l 2
 377 576 367 540 367 479 c 2
 367 122 l 2
EndSplineSet
EndChar

StartChar: uni1E71
Encoding: 7793 7793 183
Width: 640
VWidth: 999
Flags: HW
HStem: -10 59<305.78 423.208> 416 44<71 188 275 523>
VStem: 188 87<81.247 416 460.103 619.553>
LayerCount: 2
Fore
SplineSet
89 440 m 2
 188 440.1 l 1
 188 551 185 594.4 185 606 c 0
 185 616 210 618 227 625.1 c 0
 242.7 631.7 264 642.8 271.3 642.8 c 0
 276 642.8 279 640.4 279 634 c 2
 279 634 275 594 275 529 c 2
 275 440 l 1
 495 440 l 2
 500 440 503 438 503 434 c 2
 503 409 l 2
 503 400 489 396 479 396 c 2
 275 396 l 1
 275 187 l 2
 275 69 326 49 377 49 c 0
 420.5 49 476.5 71 531 94 c 1
 541 93 547 76.3 549 66 c 1
 468 21 400.5 -10 342 -10 c 0
 254 -10 188 27 188 139 c 2
 188 396 l 1
 76 396 l 2
 72 396 71 397 71 402 c 2
 71 420 l 2
 71 428 75 440 89 440 c 2
EndSplineSet
EndChar

StartChar: uni1E72
Encoding: 7794 7794 184
Width: 640
VWidth: 999
Flags: HW
HStem: -109 95<208.016 285.984 377.016 454.984> -10 41<253.947 417.948> 610 37<6.77002 68.588 183.341 256.23 409.77 484.188 567.263 629.23>
VStem: 80 93<117.714 601.039> 200 94<-101.606 -21.688> 369 94<-101.606 -21.688> 501 53<135.217 595.643>
AnchorPoint: "top_akzent" 346 850 basechar 0
LayerCount: 2
Fore
SplineSet
173 493 m 2
 173 256 l 2
 173 194 176 122 216 79 c 0
 243 50 282 31 328 31 c 0
 490 31 501 157 501 263 c 2
 501 493 l 2
 501 570 485 574 413 580 c 1
 407 586 407 609 413 615 c 1
 457 614 507.5 613 528 613 c 0
 551.5 613 590 614 626 615 c 1
 632 609 632 586 626 580 c 1
 568 575 554 572 554 493 c 2
 554 280 l 2
 554 111 505 -10 308 -10 c 0
 222 -10 80 30 80 224 c 2
 80 493 l 2
 80 572 68 577 10 580 c 1
 4 586 4 609 10 615 c 1
 46.5 614 84.5 613 124 613 c 0
 169.5 613 213 614 253 615 c 1
 259 609 259 586 253 580 c 1
 179 577 173 572 173 493 c 2
200 -62 m 0
 200 -36 221 -14 247 -14 c 0
 273 -14 294 -36 294 -62 c 0
 294 -88 273 -109 247 -109 c 0
 221 -109 200 -88 200 -62 c 0
369 -62 m 0
 369 -36 390 -14 416 -14 c 0
 442 -14 463 -36 463 -62 c 0
 463 -88 442 -109 416 -109 c 0
 390 -109 369 -88 369 -62 c 0
EndSplineSet
LCarets2: 1 0 
EndChar

StartChar: uni1E73
Encoding: 7795 7795 185
Width: 640
VWidth: 999
Flags: HW
HStem: -109 95<119.12 197.088 288.12 366.088> -10 47<224.343 335.237> 30 27<538.286 595.139> 445 37<36.27 95.5458 363.27 412.242>
VStem: 111.1 94<-101.606 -21.688> 111.5 87<63.8821 430.032> 280.1 94<-101.606 -21.688> 428.5 87<95.4194 431.027>
AnchorPoint: "top_akzent" 255 646 basechar 0
LayerCount: 2
Fore
SplineSet
246.5 -10 m 0
 147.5 -10 111.5 57 111.5 126 c 2
 111.5 365 l 2
 111.5 400.2 107.4 419.6 96 430.6 c 0
 86.4 439.9 61.5 443.2 39.5 445 c 1
 33.5 451 33.5 476 39.5 482 c 1
 76.5 481 125.5 480 157.5 480 c 0
 172.5 480 189.5 481 194.5 482 c 0
 199.5 482 202.5 479 202.5 476 c 2
 202.5 476 198.5 399 198.5 369 c 2
 198.5 140 l 2
 198.5 51 248.5 37 278.5 37 c 0
 303.5 37 364 56 422.5 99 c 0
 437.4 109.9 438.5 119 438.5 138 c 2
 438.5 364 l 2
 438.5 400.5 434.5 420.5 422.7 431.6 c 0
 413.1 440.6 393.4 443.7 371.5 445 c 1
 365.5 451 365.5 476 371.5 482 c 1
 408.5 481 446.5 480 478.5 480 c 0
 493.5 480 516.5 481 521.5 482 c 0
 526.5 482 529.5 479 529.5 476 c 2
 529.5 476 525.5 399 525.5 369 c 2
 525.5 130 l 2
 525.5 81 537.5 62 601.5 57 c 1
 607.5 51 607.5 36 601.5 30 c 1
 540.5 23 491.5 8 469.5 -10 c 1
 461.5 -12 458.5 -13 450.5 -10 c 1
 450.5 -10 439.5 14.9 439.5 59 c 0
 439.5 66 432.6 63.9 427.5 60 c 0
 360 9.1 285.5 -10 246.5 -10 c 0
111.1 -62 m 0
 111.1 -36 132.1 -14 158.1 -14 c 0
 184.1 -14 205.1 -36 205.1 -62 c 0
 205.1 -88 184.1 -109 158.1 -109 c 0
 132.1 -109 111.1 -88 111.1 -62 c 0
280.1 -62 m 0
 280.1 -36 301.1 -14 327.1 -14 c 0
 353.1 -14 374.1 -36 374.1 -62 c 0
 374.1 -88 353.1 -109 327.1 -109 c 0
 301.1 -109 280.1 -88 280.1 -62 c 0
EndSplineSet
LCarets2: 1 0 
EndChar

StartChar: uni1E74
Encoding: 7796 7796 186
Width: 640
VWidth: 999
Flags: HW
HStem: -10 41<253.947 417.948> 610 37<6.77002 68.588 183.341 256.23 409.77 484.188 567.263 629.23>
VStem: 80 93<117.714 601.039> 501 53<135.217 595.643>
LayerCount: 2
Fore
SplineSet
173 493 m 2
 173 256 l 2
 173 194 176 122 216 79 c 0
 243 50 282 31 328 31 c 0
 490 31 501 157 501 263 c 2
 501 493 l 2
 501 570 485 574 413 580 c 1
 407 586 407 609 413 615 c 1
 457 614 507.5 613 528 613 c 0
 551.5 613 590 614 626 615 c 1
 632 609 632 586 626 580 c 1
 568 575 554 572 554 493 c 2
 554 280 l 2
 554 111 505 -10 308 -10 c 0
 222 -10 80 30 80 224 c 2
 80 493 l 2
 80 572 68 577 10 580 c 1
 4 586 4 609 10 615 c 1
 46.5 614 84.5 613 124 613 c 0
 169.5 613 213 614 253 615 c 1
 259 609 259 586 253 580 c 1
 179 577 173 572 173 493 c 2
EndSplineSet
LCarets2: 1 0 
EndChar

StartChar: uni1E75
Encoding: 7797 7797 187
Width: 640
VWidth: 999
Flags: HW
HStem: -10 47<224.343 335.237> 30 27<538.286 595.139> 445 37<36.27 95.5458 363.27 412.242>
VStem: 111.5 87<63.8821 430.032> 428.5 87<95.4194 431.027>
LayerCount: 2
Fore
SplineSet
246.5 -10 m 0
 147.5 -10 111.5 57 111.5 126 c 2
 111.5 365 l 2
 111.5 400.2 107.4 419.6 96 430.6 c 0
 86.4 439.9 61.5 443.2 39.5 445 c 1
 33.5 451 33.5 476 39.5 482 c 1
 76.5 481 125.5 480 157.5 480 c 0
 172.5 480 189.5 481 194.5 482 c 0
 199.5 482 202.5 479 202.5 476 c 2
 202.5 476 198.5 399 198.5 369 c 2
 198.5 140 l 2
 198.5 51 248.5 37 278.5 37 c 0
 303.5 37 364 56 422.5 99 c 0
 437.4 109.9 438.5 119 438.5 138 c 2
 438.5 364 l 2
 438.5 400.5 434.5 420.5 422.7 431.6 c 0
 413.1 440.6 393.4 443.7 371.5 445 c 1
 365.5 451 365.5 476 371.5 482 c 1
 408.5 481 446.5 480 478.5 480 c 0
 493.5 480 516.5 481 521.5 482 c 0
 526.5 482 529.5 479 529.5 476 c 2
 529.5 476 525.5 399 525.5 369 c 2
 525.5 130 l 2
 525.5 81 537.5 62 601.5 57 c 1
 607.5 51 607.5 36 601.5 30 c 1
 540.5 23 491.5 8 469.5 -10 c 1
 461.5 -12 458.5 -13 450.5 -10 c 1
 450.5 -10 439.5 14.9 439.5 59 c 0
 439.5 66 432.6 63.9 427.5 60 c 0
 360 9.1 285.5 -10 246.5 -10 c 0
EndSplineSet
LCarets2: 1 0 
EndChar

